<svg width="493" height="280" viewBox="0 0 493 280" fill="none" xmlns="http://www.w3.org/2000/svg">
<path d="M279.301 63.1412C279.301 63.9498 279.966 64.6075 280.783 64.6075C281.6 64.6075 282.265 63.9498 282.265 63.1412C282.265 62.3326 281.6 61.6748 280.783 61.6748C279.966 61.6748 279.301 62.3326 279.301 63.1412Z" fill="white" stroke="#F5F5F5" stroke-width="1.62257"/>
<path d="M274.85 64.6075C275.669 64.6075 276.332 63.951 276.332 63.1412C276.332 62.3313 275.669 61.6748 274.85 61.6748C274.032 61.6748 273.368 62.3313 273.368 63.1412C273.368 63.951 274.032 64.6075 274.85 64.6075Z" fill="white" stroke="#F5F5F5" stroke-width="1.62257"/>
<path d="M267.453 62.4082C267.042 63.1078 267.288 64.0086 267.995 64.4108C268.702 64.8172 269.612 64.5742 270.019 63.8745C270.43 63.1749 270.184 62.2741 269.477 61.8719C268.77 61.4655 267.86 61.7085 267.453 62.4082Z" fill="white" stroke="#F5F5F5" stroke-width="1.62257"/>
<path d="M274.756 46.0088C274.756 46.0088 274.654 46.0004 274.455 46.0046C274.24 46.0088 273.947 46.0172 273.575 46.0297C273.38 46.0381 273.164 46.0381 272.927 46.0591C272.69 46.0926 272.432 46.1261 272.152 46.168C271.868 46.2099 271.568 46.2518 271.246 46.2979C270.929 46.3775 270.59 46.4571 270.234 46.5451C268.811 46.9054 267.088 47.5254 265.323 48.665C263.561 49.7836 261.732 51.3841 260.246 53.5585C258.79 55.7371 257.663 58.4729 257.367 61.5523C257.337 62.3232 257.244 63.1066 257.32 63.9026C257.35 64.3007 257.341 64.7029 257.401 65.1051C257.46 65.5073 257.524 65.9095 257.583 66.3159C257.913 67.9205 258.396 69.567 259.234 71.0962C260.051 72.6296 261.106 74.0918 262.388 75.3906C263.701 76.6642 265.229 77.7703 266.936 78.6208C268.634 79.4796 270.518 80.0746 272.478 80.305C272.965 80.4014 273.46 80.4014 273.956 80.4307C274.451 80.4642 274.951 80.481 275.45 80.4558C276.45 80.4139 277.453 80.2924 278.444 80.083C280.595 79.6305 282.623 78.7632 284.401 77.6027L284.219 77.6195C286.285 78.4406 288.309 79.245 290.287 80.0285L290.646 80.1709L290.545 79.8022C289.931 77.5985 289.338 75.4576 288.762 73.3837L288.733 73.543C290.435 71.3015 291.523 68.7458 291.972 66.2069C292.196 64.9375 292.293 63.6722 292.209 62.4488C292.183 61.8372 292.154 61.2297 292.035 60.6431C291.989 60.3498 291.942 60.0566 291.895 59.7633C291.84 59.4742 291.752 59.1935 291.684 58.9128C290.511 54.3922 287.7 51.0573 284.914 49.1468C283.521 48.1748 282.144 47.4793 280.883 47.0436C280.569 46.9305 280.265 46.8258 279.977 46.721C279.676 46.6456 279.392 46.5744 279.117 46.5032C278.842 46.4361 278.579 46.3733 278.33 46.3104C278.076 46.2643 277.834 46.235 277.606 46.2015C277.148 46.1428 276.742 46.0674 276.39 46.0465C276.043 46.0339 275.747 46.0255 275.497 46.0172C275.273 46.013 275.091 46.0088 274.951 46.0046C274.828 46.0046 274.765 46.0046 274.765 46.013C274.765 46.0213 274.828 46.0255 274.947 46.0381C275.086 46.0507 275.264 46.0632 275.489 46.08C275.734 46.0968 276.031 46.1177 276.373 46.1387C276.725 46.1638 277.123 46.2518 277.576 46.3188C279.363 46.6414 282.039 47.3495 284.774 49.327C287.505 51.2374 290.244 54.543 291.375 58.984C291.442 59.2605 291.527 59.5371 291.578 59.8178C291.62 60.1027 291.667 60.3917 291.709 60.6808C291.819 61.259 291.845 61.8497 291.87 62.453C291.951 63.6555 291.849 64.8956 291.624 66.1357C291.176 68.6243 290.104 71.1214 288.432 73.3125L288.377 73.3837L288.402 73.4717C288.974 75.5456 289.567 77.6907 290.172 79.8944L290.43 79.6682C288.453 78.8805 286.429 78.0719 284.363 77.2508L284.27 77.2131L284.185 77.2675C282.445 78.3987 280.464 79.2492 278.359 79.6891C277.39 79.8944 276.412 80.0159 275.434 80.0536C274.947 80.0746 274.46 80.0578 273.973 80.0285C273.49 79.9992 273.003 79.9992 272.529 79.907C270.611 79.6849 268.773 79.1068 267.109 78.2688C265.441 77.4393 263.942 76.3584 262.655 75.1141C261.393 73.8446 260.36 72.4159 259.556 70.9161C258.734 69.4204 258.256 67.8116 257.926 66.2404C257.862 65.8424 257.803 65.4486 257.739 65.0548C257.68 64.661 257.689 64.2671 257.659 63.8775C257.583 63.0982 257.672 62.3273 257.697 61.5732C257.977 58.5525 259.065 55.8586 260.483 53.7051C261.931 51.5558 263.722 49.9638 265.45 48.841C267.177 47.7014 268.875 47.0688 270.281 46.6875C270.632 46.5953 270.967 46.5073 271.28 46.4236C271.597 46.3733 271.898 46.323 272.178 46.2769C272.453 46.2308 272.711 46.1889 272.948 46.1512C273.185 46.1261 273.401 46.1177 273.592 46.1051C273.96 46.08 274.252 46.0591 274.468 46.0423C274.667 46.0255 274.769 46.013 274.769 46.0088H274.756Z" fill="white" stroke="#F5F5F5" stroke-width="1.62257"/>
<path d="M489.501 42.6066C489.501 42.6066 483.568 39.0252 477.01 52.9857C470.446 66.9461 468.061 74.9445 468.061 74.9445C468.061 74.9445 466.301 77.8869 464.236 76.0751C462.171 74.2704 459.247 69.0387 455.897 70.1202C452.42 71.2367 451.405 75.1622 452.278 80.8433C453.158 86.5243 454.62 99.0382 454.748 100.169C454.875 101.278 454.286 102.943 452.683 101.938C451.079 100.927 441.711 91.3276 437.375 95.9975C433.039 100.667 438.113 116.095 438.631 117.788C439.149 119.48 438.844 120.232 438.035 120.681C437.226 121.137 434.387 117.612 431.612 114.993C428.837 112.367 425.147 109.81 422.876 112.711C420.598 115.611 420.264 127.338 432.208 145.933L438.312 154.192L448.652 153.251C470.659 149.908 479.359 141.945 480.069 138.335C480.779 134.733 476.407 133.672 472.582 133.328C468.757 132.984 464.208 133.188 464.023 132.289C463.839 131.39 464.201 130.667 465.833 129.936C467.465 129.206 482.546 122.837 483.241 116.531C483.937 110.225 470.467 109.565 468.643 109.031C466.819 108.497 467.699 106.966 468.629 106.327C469.573 105.674 480.062 98.5325 484.959 95.4497C489.856 92.3669 492.176 89.0243 490.736 85.6957C489.352 82.4865 483.447 83.7505 480.715 83.3994C477.983 83.0553 479.061 79.804 479.061 79.804C479.061 79.804 483.575 72.7606 489.884 58.6808C496.186 44.601 489.38 42.5224 489.38 42.5224" fill="#F5F5F5"/>
<path d="M483.605 55.0996C483.605 55.0996 483.57 55.2049 483.492 55.4016C483.399 55.6122 483.279 55.9002 483.123 56.2723C482.782 57.0518 482.292 58.1754 481.661 59.615C480.39 62.5152 478.51 66.7005 476.175 71.8549C471.505 82.1777 464.934 96.3769 457.624 112.037C450.314 127.704 443.707 141.889 438.981 152.183C436.625 157.324 434.723 161.488 433.395 164.381C432.743 165.807 432.232 166.923 431.877 167.696C431.706 168.061 431.572 168.349 431.472 168.553C431.38 168.742 431.323 168.84 431.323 168.84C431.323 168.84 431.359 168.735 431.437 168.538C431.529 168.328 431.65 168.04 431.806 167.668C432.146 166.888 432.636 165.765 433.268 164.325C434.538 161.425 436.412 157.24 438.754 152.085C443.423 141.762 449.995 127.563 457.305 111.896C464.614 96.2365 471.221 82.0513 475.948 71.7566C478.304 66.6162 480.206 62.452 481.533 59.5588C482.186 58.1333 482.704 57.0167 483.059 56.2443C483.229 55.8791 483.364 55.5912 483.463 55.3875C483.556 55.1979 483.612 55.0996 483.612 55.0996H483.605Z" fill="#E0E0E0"/>
<path d="M459.688 77.6061C459.688 77.6061 459.816 77.8449 459.979 78.2873C460.15 78.7297 460.37 79.3828 460.639 80.1904C461.172 81.8055 461.839 84.0597 462.534 86.5596C463.208 89.0174 463.819 91.2435 464.287 92.964C464.5 93.7224 464.677 94.3685 464.827 94.9022C464.954 95.3586 465.018 95.6184 464.99 95.6255C464.968 95.6325 464.862 95.3937 464.692 94.9443C464.528 94.4949 464.301 93.8488 464.046 93.0342C463.535 91.4121 462.889 89.1509 462.194 86.6509C461.505 84.1931 460.881 81.974 460.398 80.2606C460.185 79.5022 460.001 78.8561 459.852 78.3224C459.724 77.866 459.667 77.6061 459.688 77.5991V77.6061Z" fill="#E0E0E0"/>
<path d="M465.947 95.7719C465.919 95.6806 470.546 94.1006 476.287 92.2467C482.029 90.3858 486.713 88.9602 486.741 89.0515C486.769 89.1428 482.142 90.7228 476.401 92.5767C470.66 94.4306 465.983 95.8632 465.947 95.7719Z" fill="#E0E0E0"/>
<path d="M453.619 119.325C453.619 119.325 453.888 119.276 454.378 119.255C454.946 119.234 455.634 119.213 456.45 119.185C458.203 119.122 460.616 119.03 463.277 118.834C465.939 118.644 468.345 118.384 470.083 118.188C470.892 118.097 471.581 118.019 472.141 117.956C472.631 117.907 472.901 117.886 472.901 117.914C472.901 117.935 472.638 117.998 472.156 118.09C471.673 118.181 470.977 118.3 470.105 118.427C468.373 118.686 465.96 118.981 463.292 119.171C460.623 119.368 458.196 119.424 456.443 119.424C455.563 119.424 454.854 119.41 454.364 119.382C453.874 119.361 453.604 119.339 453.604 119.311L453.619 119.325Z" fill="#E0E0E0"/>
<path d="M444.308 104.122C444.308 104.122 444.479 104.305 444.741 104.677C444.997 105.049 445.359 105.583 445.806 106.257C446.693 107.598 447.892 109.466 449.198 111.538C450.504 113.609 451.675 115.498 452.505 116.875C452.924 117.563 453.25 118.125 453.47 118.511C453.69 118.904 453.804 119.122 453.782 119.136C453.761 119.15 453.612 118.953 453.35 118.581C453.094 118.209 452.732 117.675 452.285 117.001C451.398 115.66 450.199 113.792 448.893 111.713C447.587 109.642 446.416 107.753 445.586 106.376C445.174 105.688 444.84 105.126 444.62 104.74C444.4 104.347 444.287 104.129 444.308 104.115V104.122Z" fill="#E0E0E0"/>
<path d="M430.754 123.553C430.754 123.553 430.967 123.799 431.294 124.269C431.656 124.803 432.117 125.484 432.663 126.291C433.806 128.005 435.36 130.385 437.063 133.033C438.767 135.673 440.292 138.082 441.378 139.831C441.889 140.666 442.315 141.361 442.656 141.909C442.947 142.408 443.103 142.682 443.081 142.696C443.06 142.71 442.869 142.45 442.542 141.979C442.18 141.446 441.719 140.764 441.172 139.957C440.03 138.243 438.476 135.863 436.772 133.215C435.069 130.575 433.543 128.173 432.458 126.425C431.947 125.589 431.521 124.894 431.18 124.346C430.889 123.848 430.733 123.574 430.754 123.56V123.553Z" fill="#E0E0E0"/>
<path d="M442.924 142.148C442.924 142.148 443.265 142.085 443.889 142.042C444.578 141.993 445.458 141.93 446.515 141.86C448.729 141.705 451.795 141.481 455.166 141.136C458.537 140.799 461.582 140.42 463.789 140.125C464.839 139.985 465.719 139.872 466.401 139.788C467.018 139.711 467.359 139.676 467.366 139.704C467.366 139.725 467.032 139.802 466.422 139.922C465.811 140.041 464.924 140.196 463.824 140.371C461.631 140.722 458.58 141.144 455.202 141.481C451.824 141.825 448.751 142.007 446.529 142.099C445.415 142.141 444.521 142.169 443.897 142.169C443.272 142.169 442.931 142.169 442.931 142.141L442.924 142.148Z" fill="#E0E0E0"/>
<path d="M66.8963 111.776C83.4531 100.842 87.4911 80.1544 87.1363 61.503C87.0795 58.3851 87.477 55.1127 86.0079 52.36C84.5318 49.6072 81.026 47.6901 78.1518 48.9541C75.7673 50.0075 74.6956 52.683 73.3331 54.888C71.5234 57.8233 68.8621 60.232 65.7466 61.7488C63.7027 62.746 61.1833 63.3359 59.1962 62.2263C56.4711 60.7025 56.2014 56.9947 56.2724 53.8978C56.4001 48.1325 56.5279 42.3601 56.6556 36.5948C56.7266 33.498 56.7833 30.3379 55.8466 27.3885C54.9098 24.4391 52.7737 21.6723 49.7717 20.8016C46.7698 19.9308 43.0156 21.574 42.3272 24.5936C42.0433 25.8506 42.2846 27.1638 42.1781 28.4489C42.0717 29.734 41.433 31.1455 40.1768 31.4825C38.9065 31.8266 37.6504 30.9278 36.7207 30.0079C33.4988 26.8338 31.3413 22.7748 29.333 18.737C27.3175 14.6991 25.3729 10.577 22.4562 7.12205C19.5394 3.66706 15.48 0.907275 10.9452 0.591269C6.41031 0.275264 1.52772 2.93673 0.31417 7.27654C-0.906478 11.6234 1.63417 16.0896 4.41612 19.6639C8.53935 24.9658 13.4503 29.6778 18.9291 33.5963C19.9155 34.3055 20.9871 35.071 21.3562 36.2226C22.0091 38.2942 19.9794 40.3166 17.8787 40.9627C15.5013 41.693 12.9465 41.4192 10.4697 41.6649C7.9929 41.9107 5.29612 42.936 4.33095 45.2042C2.98256 48.3502 5.64386 51.7069 8.26967 53.9189C13.5426 58.35 19.582 61.8752 26.0471 64.2979C28.3678 65.1687 30.8091 65.9341 32.6613 67.5633C34.5136 69.1925 35.6065 71.9874 34.4355 74.1503C33.2646 76.3202 30.3407 76.9733 27.8994 76.4957C25.4652 76.0182 23.3007 74.691 20.9871 73.7992C16.6581 72.1278 11.0232 72.3385 8.17741 75.9761C6.30386 78.3637 6.09096 81.7274 6.97096 84.6206C7.85096 87.5138 9.69613 90.0208 11.6548 92.3381C18.5103 100.442 27.3458 107.015 37.3949 110.582C47.444 114.157 56.7975 115.217 66.8963 111.783" fill="#EBEBEB"/>
<path d="M65.5979 112.135C62.9366 102.69 55.6411 80.4569 51.2979 70.0006C50.205 67.3883 49.1192 64.8111 48.0476 62.269C46.9759 59.734 45.9185 57.22 44.7192 54.8254C42.3488 50.0221 39.7017 45.584 37.0546 41.4478C34.4075 37.3046 31.7391 33.4704 29.2127 29.9031C26.6791 26.3357 24.2591 23.0563 21.9243 20.1631C17.2617 14.3486 12.9468 10.1001 9.86681 7.3052C8.3268 5.90073 7.09906 4.84738 6.25454 4.14515C5.84293 3.80808 5.52357 3.54123 5.28938 3.35162C5.06938 3.17607 4.94873 3.0918 4.94873 3.0918C4.94873 3.0918 5.04809 3.19713 5.25389 3.38674C5.48099 3.58336 5.78615 3.86425 6.18357 4.21537C7.0068 4.94569 8.21326 6.01309 9.73197 7.43862C12.7765 10.2756 17.0417 14.5452 21.6546 20.3667C23.9681 23.267 26.3739 26.5534 28.8862 30.1278C31.3914 33.7022 34.0456 37.5434 36.6785 41.6795C39.3114 45.8157 41.9443 50.2468 44.3004 55.029C45.4856 57.4166 46.5359 59.9095 47.6075 62.4516C48.6721 64.9937 49.7579 67.5709 50.8508 70.1762C55.194 80.6254 62.4895 102.83 65.1721 112.247" fill="#E0E0E0"/>
<path d="M44.6068 54.7904C44.6068 54.7904 44.7487 54.327 44.919 53.4702C45.0893 52.6135 45.3023 51.3706 45.5435 49.8327C46.0332 46.7569 46.5584 42.4873 47.1332 37.7753C47.7081 33.0633 48.3113 28.8148 48.8648 25.7531C49.1345 24.2222 49.3687 22.9863 49.5461 22.1366C49.7165 21.2869 49.7945 20.8093 49.7661 20.8023C49.7377 20.7953 49.5958 21.2588 49.3687 22.1015C49.1345 22.9441 48.8506 24.173 48.5384 25.6969C47.8997 28.7516 47.2397 33.0071 46.6648 37.7262C46.1042 42.396 45.5932 46.6235 45.21 49.7905C45.0184 51.2652 44.8552 52.4941 44.7274 53.4422C44.6139 54.3059 44.5642 54.7834 44.5997 54.7904H44.6068Z" fill="#E0E0E0"/>
<path d="M3.96826 46.7501C3.96826 46.7501 4.1102 46.7923 4.38697 46.8204C4.72052 46.8555 5.11794 46.8906 5.59343 46.9397C6.63666 47.0381 8.14827 47.1785 10.0147 47.4102C13.7405 47.8456 18.8715 48.6391 24.4851 49.7557C30.0986 50.8863 35.1374 52.1222 38.7567 53.1335C40.5664 53.625 42.0213 54.0604 43.029 54.3553C43.4903 54.4888 43.8735 54.6011 44.1929 54.6924C44.4626 54.7626 44.6045 54.7977 44.6116 54.7767C44.6116 54.7626 44.4838 54.6994 44.2284 54.6011C43.9161 54.4888 43.54 54.3483 43.0929 54.1798C42.1064 53.8287 40.6587 53.3441 38.8561 52.8104C35.258 51.722 30.2193 50.4298 24.5844 49.2922C18.9567 48.1687 13.8044 47.4313 10.0573 47.0732C8.18376 46.8836 6.66504 46.7923 5.61472 46.7431C5.13214 46.7291 4.73472 46.7221 4.40117 46.708C4.12439 46.708 3.97536 46.708 3.97536 46.7291L3.96826 46.7501Z" fill="#E0E0E0"/>
<path d="M61.666 99.2767C61.666 99.2767 61.7724 99.1152 61.9428 98.7922C62.1273 98.42 62.3615 97.9425 62.6525 97.3596C63.2628 96.1167 64.1073 94.2909 65.1221 92.0226C67.1518 87.4862 69.7563 81.145 72.5454 74.1016C75.3344 67.0582 77.8893 60.703 79.8338 56.1385C80.7989 53.9054 81.5867 52.0725 82.1615 50.7453C82.417 50.1484 82.6299 49.6569 82.7931 49.2777C82.9351 48.9406 82.9989 48.758 82.9848 48.751C82.9706 48.751 82.8783 48.9125 82.708 49.2355C82.5235 49.6077 82.2893 50.0852 81.9983 50.6681C81.388 51.911 80.5435 53.7368 79.5286 56.0051C77.4989 60.5415 74.8944 66.8827 72.1054 73.9261C69.3163 80.9625 66.7615 87.3247 64.817 91.8822C63.8518 94.1153 63.0641 95.9481 62.4892 97.2753C62.2337 97.8793 62.0208 98.3638 61.8576 98.743C61.7157 99.0801 61.6518 99.2627 61.666 99.2697V99.2767Z" fill="#E0E0E0"/>
<path d="M7.78174 81.4323C7.78174 81.4323 7.95916 81.5236 8.32109 81.65C8.72561 81.7834 9.24368 81.959 9.88949 82.1767C11.3088 82.6472 13.2676 83.2932 15.6663 84.0797C20.5418 85.6949 27.2482 88.0052 34.6502 90.5754C42.0522 93.1456 48.7799 95.4138 53.6909 96.9447C56.1464 97.7101 58.1335 98.314 59.5174 98.7073C60.1703 98.8898 60.7025 99.0373 61.1141 99.1497C61.4832 99.248 61.6748 99.2901 61.6819 99.2761C61.6819 99.262 61.5045 99.1848 61.1425 99.0584C60.738 98.925 60.2199 98.7494 59.5741 98.5317C58.1548 98.0612 56.1961 97.4152 53.7973 96.6287C48.9218 95.0135 42.2154 92.7032 34.8134 90.133C27.4115 87.5628 20.6837 85.3016 15.7798 83.7637C13.3243 82.9983 11.3372 82.3944 9.95336 82.0011C9.30045 81.8185 8.76819 81.6711 8.35658 81.5587C7.98754 81.4604 7.79593 81.4183 7.78883 81.4323H7.78174Z" fill="#E0E0E0"/>
<path d="M339.39 3.58984H428.86L411.352 15.907V26.1877C411.352 36.6861 402.623 45.1972 391.857 45.1972H335.714C324.948 45.1972 316.219 36.6861 316.219 26.1877C316.219 13.709 326.595 3.59687 339.39 3.59687V3.58984Z" fill="#F5F5F5"/>
<path d="M396.266 17.333C396.266 17.4313 381.327 17.5156 362.904 17.5156C344.48 17.5156 329.542 17.4313 329.542 17.333C329.542 17.2347 344.473 17.1504 362.904 17.1504C381.334 17.1504 396.266 17.2347 396.266 17.333Z" fill="#037A84"/>
<mask id="path-21-inside-1_81_3202" fill="white">
<path d="M396.266 24.1728C396.266 24.2711 381.327 24.3554 362.904 24.3554C344.48 24.3554 329.542 24.2711 329.542 24.1728C329.542 24.0745 344.473 23.9902 362.904 23.9902C381.334 23.9902 396.266 24.0745 396.266 24.1728Z"/>
</mask>
<path d="M396.266 24.1728C396.266 24.2711 381.327 24.3554 362.904 24.3554C344.48 24.3554 329.542 24.2711 329.542 24.1728C329.542 24.0745 344.473 23.9902 362.904 23.9902C381.334 23.9902 396.266 24.0745 396.266 24.1728Z" fill="#037A84"/>
<path d="M393.362 24.1728C393.362 22.9358 394.102 22.1999 394.394 21.9539C394.716 21.6828 395.019 21.5486 395.135 21.4998C395.393 21.3911 395.607 21.3469 395.656 21.3366C395.799 21.3064 395.908 21.2957 395.917 21.2947C395.967 21.2895 395.986 21.2894 395.94 21.2918C395.866 21.2958 395.728 21.3009 395.511 21.3066C395.087 21.3178 394.447 21.329 393.606 21.3398C391.928 21.3614 389.494 21.3811 386.477 21.3977C380.446 21.4311 372.111 21.4521 362.904 21.4521V27.2587C372.119 27.2587 380.465 27.2376 386.509 27.2042C389.53 27.1875 391.982 27.1677 393.681 27.1459C394.528 27.135 395.2 27.1234 395.664 27.1112C395.892 27.1051 396.093 27.0984 396.246 27.0903C396.315 27.0867 396.42 27.0805 396.527 27.0692C396.565 27.0652 396.696 27.0515 396.854 27.0182C396.91 27.0064 397.129 26.9606 397.39 26.8505C397.508 26.8009 397.813 26.6659 398.136 26.3941C398.429 26.1473 399.169 25.4106 399.169 24.1728H393.362ZM362.904 21.4521C353.696 21.4521 345.361 21.4311 339.33 21.3977C336.313 21.3811 333.879 21.3614 332.201 21.3398C331.36 21.329 330.72 21.3178 330.296 21.3066C330.079 21.3009 329.941 21.2958 329.867 21.2918C329.822 21.2894 329.84 21.2895 329.89 21.2947C329.899 21.2957 330.008 21.3064 330.151 21.3366C330.2 21.3469 330.414 21.3911 330.672 21.4998C330.788 21.5486 331.091 21.6828 331.413 21.9539C331.705 22.1999 332.445 22.9358 332.445 24.1728H326.638C326.638 25.4106 327.378 26.1473 327.671 26.3941C327.994 26.6659 328.299 26.8009 328.417 26.8505C328.678 26.9606 328.897 27.0064 328.953 27.0182C329.111 27.0515 329.242 27.0652 329.28 27.0692C329.387 27.0805 329.492 27.0867 329.561 27.0903C329.714 27.0984 329.915 27.1051 330.143 27.1112C330.608 27.1234 331.279 27.135 332.126 27.1459C333.825 27.1677 336.277 27.1875 339.298 27.2042C345.342 27.2376 353.688 27.2587 362.904 27.2587V21.4521ZM332.445 24.1728C332.445 25.4093 331.706 26.1451 331.414 26.3913C331.092 26.6625 330.788 26.7968 330.672 26.8457C330.414 26.9544 330.2 26.9987 330.152 27.009C330.008 27.0392 329.899 27.0499 329.89 27.0509C329.84 27.0561 329.822 27.0562 329.867 27.0538C329.941 27.0499 330.079 27.0447 330.296 27.039C330.72 27.0278 331.359 27.0167 332.2 27.0058C333.877 26.9843 336.311 26.9646 339.327 26.9479C345.357 26.9146 353.692 26.8935 362.904 26.8935V21.087C353.685 21.087 345.339 21.108 339.295 21.1414C336.274 21.1581 333.824 21.1779 332.125 21.1998C331.278 21.2107 330.607 21.2222 330.143 21.2345C329.915 21.2405 329.714 21.2472 329.56 21.2553C329.492 21.2589 329.387 21.2651 329.28 21.2764C329.242 21.2804 329.111 21.2942 328.953 21.3275C328.897 21.3393 328.678 21.3851 328.416 21.4954C328.299 21.545 327.993 21.68 327.671 21.952C327.378 22.199 326.638 22.9356 326.638 24.1728H332.445ZM362.904 26.8935C372.115 26.8935 380.45 26.9146 386.48 26.9479C389.496 26.9646 391.93 26.9843 393.607 27.0058C394.448 27.0167 395.087 27.0278 395.511 27.039C395.728 27.0447 395.866 27.0499 395.94 27.0538C395.986 27.0562 395.967 27.0561 395.917 27.0509C395.908 27.0499 395.799 27.0392 395.655 27.009C395.607 26.9987 395.393 26.9544 395.135 26.8457C395.019 26.7968 394.715 26.6625 394.393 26.3913C394.101 26.1451 393.362 25.4093 393.362 24.1728H399.169C399.169 22.9356 398.429 22.199 398.136 21.952C397.814 21.68 397.509 21.545 397.391 21.4954C397.129 21.3851 396.91 21.3393 396.854 21.3275C396.696 21.2942 396.565 21.2804 396.527 21.2764C396.42 21.2651 396.315 21.2589 396.247 21.2553C396.093 21.2472 395.892 21.2405 395.664 21.2345C395.2 21.2222 394.529 21.2107 393.682 21.1998C391.983 21.1779 389.533 21.1581 386.512 21.1414C380.468 21.108 372.122 21.087 362.904 21.087V26.8935Z" fill="#037A84" mask="url(#path-21-inside-1_81_3202)"/>
<path d="M203.65 214.295H97.7803L115.025 226.613V250.84C115.025 253.635 117.318 255.896 120.135 255.896H203.65C206.475 255.896 208.76 253.628 208.76 250.84V219.359C208.76 216.564 206.468 214.302 203.65 214.302V214.295Z" fill="#F5F5F5"/>
<path d="M199.236 231.416C199.236 231.514 183.268 231.599 163.574 231.599C143.881 231.599 127.913 231.514 127.913 231.416C127.913 231.318 143.881 231.233 163.574 231.233C183.268 231.233 199.236 231.318 199.236 231.416Z" fill="#037A84"/>
<path d="M199.236 240.72C199.236 240.818 183.268 240.903 163.574 240.903C143.881 240.903 127.913 240.818 127.913 240.72C127.913 240.622 143.881 240.538 163.574 240.538C183.268 240.538 199.236 240.622 199.236 240.72Z" fill="#037A84"/>
<path d="M210.688 34.5576H83.8756C68.4401 34.5576 55.9284 46.938 55.9284 62.2116V106.93H28.5703L55.9355 134.008V164.401C55.9355 179.674 68.4472 192.055 83.8827 192.055H210.695C226.131 192.055 238.642 179.674 238.642 164.401V62.2116C238.642 46.938 226.131 34.5576 210.695 34.5576H210.688Z" fill="#FFC91C"/>
<path d="M158.882 39.2817C158.08 41.3322 159.457 43.5794 161.004 45.1594C162.551 46.7465 164.418 48.2493 164.907 50.3981C165.312 52.2028 164.638 54.0778 164.801 55.9176C164.971 57.7996 165.993 59.492 166.575 61.2897C167.632 64.5481 167.207 68.1084 166.263 71.4019C165.489 74.1055 164.347 76.76 162.459 78.8526C160.571 80.9453 157.853 82.427 155.021 82.3778C154.22 82.3638 153.347 82.1882 152.821 81.5913C152.367 81.0717 152.268 80.3413 152.183 79.6602C150.558 65.5382 150.558 51.2337 152.183 37.1118" fill="#455A64"/>
<path d="M157.385 84.8504C163.559 84.5836 169.265 90.4332 168.775 96.5286C175.028 98.0313 179.442 104.843 178.221 111.093C177.817 113.157 176.894 115.124 176.766 117.216C176.624 119.506 177.448 121.725 177.895 123.979C178.704 128.045 178.264 132.342 176.66 136.17C175.688 138.494 173.871 140.896 171.33 140.966C169.606 141.015 168.009 139.906 167.044 138.487C166.086 137.069 165.66 135.362 165.319 133.691C164.219 128.206 163.886 122.567 162.367 117.181C160.848 111.795 157.889 106.486 152.964 103.74C150.246 102.224 146.981 101.507 144.817 99.2743C142.553 96.9359 142.035 93.2351 143.22 90.2155C144.405 87.1959 147.102 84.8925 150.175 83.79" fill="#455A64"/>
<path d="M114.649 44.3166C114.57 41.7043 117.012 39.6889 119.467 38.7338C121.923 37.7788 124.655 37.4136 126.841 35.96C128.778 34.6679 130.084 32.6525 131.723 31.0093C135.747 26.9714 142.035 25.3001 147.563 26.7888C153.092 28.2846 157.648 32.8842 159.046 38.3827C159.99 42.0975 159.344 46.4935 156.385 48.9654C152.95 51.8305 147.854 51.1985 143.447 50.3066C139.04 49.4148 134.058 48.537 130.382 51.0931C128.168 52.6381 126.891 55.145 125.535 57.4694C124.18 59.7938 122.476 62.1674 119.914 63.0381C117.352 63.9089 113.868 62.4061 113.769 59.7236" fill="#455A64"/>
<path d="M125.054 44.8507C122.775 45.0965 121.065 47.0206 121.115 49.2888L123.748 108.276C123.861 115.243 134.152 119.161 141.688 118.986C149.303 118.81 149.545 115.116 149.644 108.487C149.8 97.4129 149.793 93.2556 149.793 93.3189C149.793 93.3189 159.409 91.7178 161.375 79.2952C162.354 73.1156 162.014 62.9894 161.467 54.7171C160.977 47.2664 155.967 38.1373 148.466 38.9379L125.054 44.8507Z" fill="#FFBE9D"/>
<path d="M159.303 62.5124C159.339 63.355 158.643 64.0713 157.756 64.1205C156.869 64.1696 156.124 63.5306 156.096 62.6879C156.067 61.8452 156.756 61.129 157.643 61.0798C158.53 61.0306 159.275 61.6697 159.31 62.5124H159.303Z" fill="#455A64"/>
<path d="M159.261 59.9916C159.062 60.2023 157.841 59.3105 156.11 59.3175C154.378 59.3034 153.108 60.1883 152.923 59.9776C152.831 59.8863 153.037 59.5071 153.583 59.1068C154.13 58.7065 155.052 58.3203 156.131 58.3203C157.21 58.3203 158.118 58.7136 158.643 59.1138C159.175 59.5141 159.36 59.8933 159.261 59.9846V59.9916Z" fill="#455A64"/>
<path d="M142.662 62.5124C142.698 63.355 142.002 64.0713 141.115 64.1205C140.228 64.1696 139.483 63.5306 139.454 62.6879C139.426 61.8452 140.114 61.129 141.002 61.0798C141.889 61.0306 142.634 61.6697 142.662 62.5124Z" fill="#455A64"/>
<path d="M142.236 60.3486C142.037 60.5592 140.817 59.6674 139.085 59.6744C137.353 59.6604 136.083 60.5452 135.899 60.3345C135.806 60.2432 136.005 59.864 136.559 59.4637C137.105 59.0635 138.028 58.6772 139.106 58.6772C140.185 58.6772 141.093 59.0705 141.619 59.4708C142.151 59.871 142.335 60.2502 142.236 60.3415V60.3486Z" fill="#455A64"/>
<path d="M148.551 73.0459C148.544 72.9476 149.615 72.765 151.361 72.5403C151.801 72.4912 152.22 72.4069 152.298 72.1049C152.404 71.7889 152.213 71.3184 152 70.8058C151.581 69.7454 151.141 68.6359 150.687 67.4772C148.863 62.7371 147.536 58.8397 147.727 58.7695C147.919 58.6993 149.558 62.4843 151.389 67.2244C151.829 68.3901 152.248 69.5067 152.653 70.5741C152.823 71.0727 153.107 71.6344 152.887 72.2945C152.766 72.6246 152.447 72.8563 152.163 72.9336C151.879 73.0178 151.631 73.0249 151.411 73.0389C149.658 73.1372 148.565 73.1442 148.558 73.0459H148.551Z" fill="#455A64"/>
<path d="M149.793 93.319C149.793 93.319 141.347 93.8738 132.973 88.916C132.973 88.916 137.068 97.4411 149.629 96.2473L149.793 93.312V93.319Z" fill="#EB996E"/>
<path d="M147.828 77.175C147.204 76.3604 146.111 75.9179 145.025 76.0373C144.273 76.1216 143.513 76.4797 143.059 77.0837C142.605 77.6876 142.513 78.5513 142.924 79.1272C143.393 79.7732 144.372 79.9277 145.195 79.6889C146.019 79.4572 146.728 78.9165 147.41 78.3758C147.594 78.2283 147.786 78.0738 147.906 77.8702C148.02 77.6665 148.048 77.3997 147.906 77.2311" fill="#EB996E"/>
<path d="M143.454 74.2384C143.737 74.2243 143.745 76.0852 145.356 77.3984C146.967 78.7186 148.968 78.5079 148.982 78.7678C149.01 78.8871 148.535 79.1329 147.69 79.154C146.86 79.1821 145.647 78.9223 144.66 78.1147C143.674 77.3071 143.255 76.2257 143.184 75.4673C143.113 74.6878 143.319 74.2313 143.447 74.2384H143.454Z" fill="#455A64"/>
<path d="M143.009 57.3432C142.838 57.8067 141.107 57.589 139.077 57.8418C137.04 58.0454 135.401 58.6423 135.131 58.221C135.01 58.0244 135.294 57.582 135.954 57.1325C136.607 56.6831 137.658 56.2477 138.878 56.1143C140.099 55.9809 141.213 56.1705 141.958 56.4654C142.703 56.7603 143.079 57.1255 143.009 57.3502V57.3432Z" fill="#455A64"/>
<path d="M158.615 55.0329C158.309 55.4261 157.117 55.0188 155.684 55.0048C154.25 54.9416 153.036 55.2716 152.753 54.8643C152.632 54.6677 152.824 54.2745 153.349 53.9093C153.874 53.5441 154.747 53.2422 155.733 53.2632C156.72 53.2913 157.571 53.6425 158.075 54.0427C158.586 54.443 158.749 54.8433 158.615 55.0329Z" fill="#455A64"/>
<path d="M116.287 85.7059C119.736 86.3941 123.497 85.3478 126.073 82.9742C128.649 80.6007 129.983 76.9701 129.543 73.5151C129.153 70.4674 127.492 67.3635 128.557 64.4774C129.969 60.6572 135.377 59.4845 136.81 55.6784C137.648 53.4663 136.896 50.8751 137.839 48.7052C138.727 46.6617 140.898 45.489 143.006 44.7376C145.114 43.9792 147.378 43.4595 149.152 42.0972C150.926 40.7348 152.033 38.1576 150.883 36.2476C141.523 37.3571 132.29 39.5761 123.461 42.8415C121.41 43.5999 119.26 44.5058 118.054 46.3106C116.769 48.2136 116.833 50.6785 116.939 52.9677C117.465 64.1192 115.747 74.5614 116.279 85.7129" fill="#455A64"/>
<path d="M113.299 82.2104C113.299 82.2104 113.228 82.1963 113.093 82.1472C112.958 82.105 112.767 82.0137 112.518 81.8733C112.043 81.5924 111.404 81.0095 110.95 80.0405C110.503 79.0854 110.24 77.7512 110.538 76.2695C110.836 74.7878 111.702 73.2639 112.816 71.7611C113.916 70.2443 115.307 68.7064 116.258 66.7472C116.727 65.7711 117.074 64.6896 117.089 63.545C117.11 62.4004 116.741 61.2557 116.35 60.09C115.953 58.9313 115.563 57.6673 115.612 56.3331C115.669 55.0129 116.052 53.6786 116.755 52.4989C117.45 51.3191 118.451 50.2658 119.686 49.5495C120.921 48.7911 122.397 48.5312 123.823 48.3838C125.257 48.2223 126.683 48.145 127.961 47.6675C129.252 47.211 130.253 46.2349 130.871 45.0762C131.502 43.9176 131.864 42.6465 132.247 41.4106C132.623 40.1747 133.071 38.9668 133.66 37.8643C134.816 35.6523 136.449 33.8054 138.365 32.6327C140.281 31.4599 142.417 30.9824 144.326 31.1018C146.242 31.2212 147.903 31.9796 149.017 33.0048C150.138 34.0231 150.798 35.1888 151.118 36.193C151.444 37.1972 151.458 38.0328 151.409 38.5806C151.359 39.1283 151.26 39.4092 151.26 39.4092C151.238 39.4092 151.309 39.1213 151.331 38.5806C151.359 38.0399 151.316 37.2182 150.976 36.2421C150.642 35.266 149.982 34.1425 148.875 33.1664C147.782 32.1832 146.171 31.474 144.312 31.3686C142.46 31.2633 140.387 31.7478 138.535 32.8995C136.683 34.0512 135.093 35.8629 133.972 38.0328C133.397 39.1143 132.964 40.294 132.595 41.53C132.212 42.7589 131.857 44.051 131.197 45.2588C130.871 45.8628 130.452 46.4386 129.927 46.9161C129.409 47.4006 128.77 47.7658 128.096 48.0186C126.74 48.5172 125.285 48.5944 123.866 48.756C122.447 48.9034 121.049 49.1562 119.878 49.8725C118.7 50.5537 117.741 51.5579 117.067 52.6885C116.393 53.8191 116.017 55.0901 115.96 56.3541C115.918 57.6181 116.272 58.826 116.67 59.9917C117.06 61.1574 117.436 62.3442 117.408 63.559C117.387 64.7599 117.018 65.8905 116.528 66.8876C115.541 68.896 114.122 70.4269 113.015 71.9226C111.894 73.4044 111.035 74.8861 110.723 76.3256C110.41 77.7582 110.645 79.0644 111.063 79.9983C111.482 80.9463 112.085 81.5292 112.539 81.8241C112.994 82.1261 113.285 82.1963 113.278 82.2244L113.299 82.2104Z" fill="#455A64"/>
<path d="M149.769 28.0607C149.769 28.0607 149.954 28.0818 150.259 28.2082C150.564 28.3346 150.983 28.5593 151.444 28.9175C152.367 29.6197 153.453 30.982 153.729 32.7797C153.999 34.5845 153.36 36.1996 152.686 37.1336C152.346 37.6111 152.012 37.9482 151.764 38.1589C151.508 38.3625 151.352 38.4538 151.338 38.4398C151.288 38.3906 151.87 37.9552 152.466 36.9931C153.062 36.0592 153.616 34.5213 153.36 32.8289C153.105 31.1435 152.118 29.8304 151.274 29.1071C150.422 28.3627 149.741 28.1169 149.769 28.0537V28.0607Z" fill="#455A64"/>
<path d="M177.574 113.284C177.532 113.27 177.794 112.834 177.936 111.971C178.085 111.114 178.014 109.801 177.319 108.396C176.644 106.985 175.232 105.643 173.359 104.745C172.422 104.288 171.379 103.93 170.279 103.656C169.172 103.375 168.001 103.136 166.823 102.764C165.652 102.392 164.509 101.886 163.65 101.051C162.763 100.243 162.337 99.0986 162.153 98.0663C161.961 97.02 161.897 96.0298 161.663 95.145C161.436 94.2602 161.017 93.5088 160.521 92.9119C159.52 91.7041 158.313 91.1353 157.483 90.8684C156.632 90.6156 156.135 90.6156 156.135 90.5805C156.135 90.5664 156.263 90.5664 156.497 90.5735C156.731 90.5805 157.079 90.6296 157.519 90.735C158.377 90.9667 159.648 91.5145 160.712 92.7504C161.237 93.3613 161.699 94.1549 161.947 95.0748C162.203 95.9947 162.281 96.9919 162.479 98.0101C162.671 99.0143 163.061 100.047 163.892 100.798C164.686 101.57 165.779 102.062 166.922 102.42C168.072 102.785 169.235 103.024 170.357 103.312C171.478 103.6 172.543 103.972 173.501 104.443C175.424 105.377 176.879 106.802 177.546 108.284C178.234 109.758 178.263 111.128 178.064 111.999C177.972 112.441 177.844 112.764 177.744 112.975C177.638 113.185 177.574 113.291 177.567 113.284H177.574Z" fill="#455A64"/>
<path d="M122.986 91.2973C116.628 89.612 111.135 83.4534 108.906 77.3229C106.678 71.1994 106.678 64.5001 107.246 58.0114C107.657 53.3065 108.495 48.3417 111.646 44.8024C116.401 39.4655 121.546 36.7408 128.735 36.9655" fill="#455A64"/>
<path d="M160.105 104.991L154.179 103.516C155.57 102.421 155.96 101.023 155.357 99.4292C154.647 97.5613 152.83 96.3324 150.829 96.1076L123.805 93.088C122.839 92.9827 121.896 93.5094 121.541 94.4082C120.341 97.4208 120.299 99.8997 121.42 101.852H121.292L116.09 102.877L107.283 179.94L165.108 177.265L160.119 104.991H160.105Z" fill="#F5F5F5"/>
<path d="M151.601 103.81C151.601 103.81 151.218 103.909 150.515 104.014C149.812 104.126 148.791 104.253 147.527 104.372C144.994 104.618 141.474 104.772 137.599 104.583C133.717 104.386 130.232 103.888 127.734 103.396C126.485 103.15 125.485 102.926 124.796 102.743C124.108 102.567 123.732 102.455 123.739 102.434C123.739 102.413 124.136 102.469 124.832 102.61C125.527 102.75 126.535 102.933 127.784 103.143C130.282 103.565 133.752 104.028 137.62 104.218C141.481 104.407 144.987 104.288 147.513 104.112C148.776 104.028 149.798 103.937 150.508 103.867C151.218 103.803 151.608 103.775 151.608 103.803L151.601 103.81Z" fill="#1A7474"/>
<path d="M125.464 116.057C125.378 116.001 126.287 114.512 127.486 112.728C128.693 110.944 129.736 109.547 129.821 109.603C129.906 109.659 128.998 111.148 127.798 112.932C126.599 114.715 125.549 116.113 125.464 116.057Z" fill="#E0E0E0"/>
<path d="M144.099 117.363C144.021 117.427 142.871 116.141 141.53 114.491C140.189 112.841 139.174 111.458 139.252 111.394C139.33 111.331 140.48 112.616 141.821 114.266C143.162 115.917 144.177 117.3 144.099 117.363Z" fill="#E0E0E0"/>
<path d="M135.443 127.152C135.343 127.173 134.953 125.452 134.57 123.318C134.187 121.183 133.96 119.441 134.059 119.42C134.158 119.399 134.549 121.12 134.932 123.254C135.315 125.389 135.542 127.131 135.443 127.152Z" fill="#E0E0E0"/>
<path d="M149.669 127.763C149.74 127.833 148.271 129.385 146.384 131.218C144.496 133.058 142.913 134.483 142.842 134.413C142.771 134.343 144.24 132.791 146.128 130.958C148.009 129.118 149.598 127.693 149.669 127.763Z" fill="#E0E0E0"/>
<path d="M130.586 140.894C130.544 140.971 128.777 139.911 127.052 138.092C125.313 136.281 124.348 134.483 124.433 134.441C124.526 134.377 125.619 136.063 127.322 137.84C129.018 139.623 130.65 140.803 130.586 140.894Z" fill="#E0E0E0"/>
<path d="M136.718 151.035C136.746 151.14 135.1 151.66 133.226 152.643C131.345 153.619 129.983 154.672 129.912 154.588C129.848 154.525 131.133 153.317 133.049 152.32C134.965 151.316 136.696 150.944 136.711 151.035H136.718Z" fill="#E0E0E0"/>
<path d="M146.689 151.688C146.654 151.716 146.214 151.267 145.561 150.487C144.908 149.708 144.035 148.605 143.127 147.348C142.218 146.091 141.452 144.918 140.92 144.055C140.387 143.191 140.096 142.636 140.139 142.608C140.181 142.58 140.558 143.086 141.14 143.914C141.807 144.855 142.58 145.937 143.432 147.137C144.305 148.324 145.092 149.399 145.774 150.326C146.377 151.14 146.739 151.653 146.696 151.688H146.689Z" fill="#E0E0E0"/>
<path d="M147.691 160.34C147.712 160.438 145.81 160.937 143.419 161.323C141.027 161.716 139.068 161.85 139.054 161.751C139.04 161.646 140.978 161.358 143.355 160.965C145.732 160.579 147.663 160.242 147.684 160.34H147.691Z" fill="#E0E0E0"/>
<path d="M131.545 102.721C131.495 102.679 131.836 102.3 132.127 101.556C132.425 100.818 132.609 99.7088 132.432 98.508C132.255 97.3001 131.829 96.2608 131.517 95.5165C131.197 94.7721 130.991 94.3086 131.041 94.2805C131.084 94.2595 131.375 94.6808 131.758 95.4041C132.134 96.1344 132.617 97.1878 132.801 98.4588C132.986 99.7299 132.744 100.91 132.368 101.661C131.992 102.419 131.573 102.757 131.545 102.728V102.721Z" fill="#E0E0E0"/>
<path d="M142.347 96.9491C142.425 96.8999 143.092 97.862 143.411 99.2524C143.745 100.636 143.582 101.794 143.489 101.78C143.383 101.78 143.369 100.657 143.049 99.3367C142.744 98.0094 142.248 97.0053 142.347 96.9561V96.9491Z" fill="#E0E0E0"/>
<path d="M191.067 151.858L217.971 105.11L221.214 96.9994C221.214 96.9994 229.595 79.1556 230.185 77.3438C230.859 75.2442 232.044 75.0616 232.81 75.3635C234.003 75.827 234.386 77.5896 233.861 79.4014C233.676 80.0264 230.419 89.8296 230.419 89.8296C230.419 89.8296 231.135 89.1624 233.201 87.7861C235.266 86.4097 239.056 86.4518 242.554 87.6877C246.053 88.9237 246.926 89.5768 246.507 90.9391C246.337 91.4868 245.883 91.8309 245.386 92.0416C244.57 92.3857 243.633 92.3787 242.796 92.0978C237.161 90.1947 234.663 92.7087 234.663 92.7087L234.237 93.7691C234.237 93.7691 238.474 92.4278 240.879 94.3239C241.27 94.6328 241.554 94.9769 241.759 95.3421C243.257 95.8337 244.477 97.1188 244.846 98.6426C245.23 100.23 244.69 101.999 243.484 103.109C242.909 103.635 242.036 104.022 241.348 103.642C240.986 103.439 240.759 103.074 240.539 102.723C240.425 102.54 240.297 102.35 240.156 102.196L238.545 105.005C238.545 105.005 234.592 111.121 233.172 113.972L214.657 162.792C212.088 169.561 204.416 172.932 197.617 170.27C190.23 167.377 187.135 158.684 191.067 151.851V151.858Z" fill="#FFBE9D"/>
<path d="M219.815 104.949C220.766 105.56 222.079 105.145 222.93 104.408C223.789 103.678 224.364 102.674 225.166 101.887C227.565 99.5205 231.574 99.2958 233.852 96.8169C234.172 96.4728 234.456 95.9462 234.179 95.567C233.923 95.2158 233.391 95.258 232.965 95.3423C229.296 96.0585 225.627 96.7818 221.958 97.4981" fill="#FFBE9D"/>
<path d="M221.957 97.4969C221.95 97.4548 222.361 97.3284 223.121 97.1458C223.88 96.9562 224.98 96.7104 226.35 96.4085C227.769 96.1065 229.387 95.7694 231.147 95.3973C231.601 95.306 232.063 95.2076 232.538 95.1164C232.985 95.0602 233.546 94.7863 234.22 95.1725C234.547 95.3762 234.674 95.8397 234.582 96.1627C234.504 96.4927 234.341 96.7385 234.149 96.9632C233.773 97.3705 233.368 97.7357 232.907 98.0447C231.076 99.3017 229.068 99.8143 227.464 100.643C226.655 101.043 225.938 101.507 225.377 102.054C224.81 102.595 224.363 103.213 223.894 103.74C223 104.849 221.801 105.397 220.977 105.362C220.133 105.348 219.785 104.955 219.814 104.948C219.842 104.891 220.211 105.179 220.963 105.116C221.716 105.06 222.723 104.547 223.547 103.452C223.979 102.925 224.405 102.286 225.001 101.682C225.597 101.071 226.357 100.559 227.194 100.13C228.848 99.2455 230.849 98.6978 232.538 97.532C232.957 97.2512 233.333 96.9 233.659 96.5559C233.965 96.2118 234.078 95.7905 233.851 95.6781C233.631 95.5166 233.12 95.6149 232.652 95.7133C232.176 95.8046 231.715 95.8888 231.261 95.9731C229.487 96.2961 227.861 96.591 226.435 96.8509C225.058 97.0896 223.944 97.2722 223.17 97.3916C222.397 97.504 221.964 97.5461 221.957 97.504V97.4969Z" fill="#EB996E"/>
<path d="M234.081 93.7893C234.152 93.8314 234.301 92.9185 235.344 92.1039C235.855 91.7037 236.607 91.4298 237.473 91.4158C238.339 91.3877 239.29 91.5913 240.276 91.8862C241.263 92.1742 242.235 92.4621 243.158 92.5323C244.08 92.6025 244.932 92.4831 245.578 92.1601C246.238 91.8441 246.55 91.2683 246.607 90.882C246.671 90.4958 246.607 90.2852 246.593 90.2852C246.55 90.2852 246.557 90.4958 246.451 90.8469C246.344 91.191 246.046 91.6475 245.45 91.9003C244.861 92.1531 244.059 92.2374 243.193 92.1531C242.32 92.0688 241.391 91.7809 240.39 91.486C239.396 91.191 238.389 90.9874 237.452 91.0365C236.522 91.0717 235.685 91.4157 235.16 91.8792C234.62 92.3357 234.336 92.8483 234.202 93.2064C234.067 93.5716 234.06 93.7823 234.081 93.7893Z" fill="#EB996E"/>
<path d="M234.043 78.6989C233.986 78.6849 233.752 79.4363 233.383 80.6441C232.964 81.9854 232.467 83.5935 231.914 85.3631C231.332 87.1257 230.814 88.7198 230.374 90.0611C229.977 91.2619 229.728 92.0063 229.785 92.0273C229.835 92.0484 230.175 91.3391 230.651 90.1594C231.126 88.9796 231.722 87.3294 232.311 85.4895C232.9 83.6497 233.369 81.9573 233.667 80.7284C233.965 79.4924 234.1 78.72 234.043 78.7059V78.6989Z" fill="#EB996E"/>
<path d="M235.597 96.7116C235.597 96.7116 235.839 96.7116 236.243 96.6694C236.633 96.6413 237.293 96.6062 237.79 97.0837C238.032 97.3085 238.124 97.6666 238.039 98.0598C237.968 98.4531 237.748 98.8534 237.535 99.3028C237.322 99.7382 237.102 100.307 237.272 100.918C237.45 101.501 237.939 101.971 238.535 102.175C239.146 102.386 239.799 102.266 240.303 101.999C240.813 101.726 241.225 101.339 241.481 100.869C241.935 99.9559 242.126 99.0851 242.254 98.3407C242.368 97.5964 242.361 96.9784 242.275 96.5641C242.183 96.1427 242.041 95.9461 242.027 95.9602C241.992 95.9742 242.077 96.1849 242.119 96.5852C242.155 96.9854 242.119 97.5753 241.97 98.2916C241.814 98.9938 241.58 99.8576 241.147 100.686C240.721 101.445 239.657 102.112 238.67 101.789C238.188 101.627 237.797 101.241 237.663 100.806C237.528 100.363 237.684 99.8927 237.883 99.4643C238.074 99.0289 238.308 98.5935 238.379 98.123C238.472 97.6666 238.323 97.1469 237.996 96.8801C237.343 96.3324 236.612 96.4517 236.222 96.522C235.803 96.6062 235.59 96.6905 235.597 96.7186V96.7116Z" fill="#EB996E"/>
<path d="M240.24 101.646C240.24 101.646 240.098 101.829 240.112 102.215C240.127 102.587 240.325 103.191 240.936 103.592C241.532 103.985 242.49 104.055 243.327 103.62C244.165 103.184 244.81 102.335 245.137 101.344C245.463 100.347 245.428 99.308 245.137 98.4512C244.853 97.5875 244.328 96.9274 243.824 96.485C243.313 96.0356 242.809 95.7968 242.454 95.6704C242.099 95.544 241.887 95.5229 241.879 95.551C241.844 95.6212 242.688 95.8038 243.618 96.7027C244.072 97.1451 244.534 97.7771 244.768 98.5706C245.016 99.3571 245.03 100.312 244.739 101.225C244.448 102.131 243.859 102.903 243.143 103.297C242.433 103.69 241.61 103.662 241.085 103.36C240.552 103.058 240.325 102.545 240.268 102.215C240.205 101.871 240.268 101.667 240.233 101.66L240.24 101.646Z" fill="#EB996E"/>
<path d="M231.285 106.05C231.285 106.05 230.966 105.832 230.334 105.762C229.71 105.692 228.766 105.783 227.865 106.345L228.17 106.548C228.262 106.12 228.333 105.657 228.376 105.172C228.617 102.461 227.744 100.369 227.659 100.425C227.538 100.453 228.205 102.532 227.964 105.137C227.921 105.607 227.858 106.057 227.787 106.471L227.701 106.928L228.092 106.675C228.887 106.148 229.745 106.015 230.327 106.008C230.923 106.008 231.278 106.099 231.292 106.05H231.285Z" fill="#EB996E"/>
<path d="M236.884 89.394C236.777 89.4081 236.933 90.2367 237.685 90.8828C238.431 91.5359 239.282 91.578 239.282 91.4726C239.304 91.3533 238.608 91.1496 237.955 90.5808C237.295 90.0261 236.997 89.3589 236.884 89.4011V89.394Z" fill="#EB996E"/>
<path d="M152.896 190.649L181.028 190.923L176.294 170.72L177.877 174.533C180.864 181.731 187.947 186.436 195.817 186.436C204.717 186.436 210.863 179.884 214.631 171.907C223.431 153.255 231.912 123.221 231.912 123.221L214.752 108.305C202.339 131.542 190.665 151.731 190.665 151.731C190.665 151.731 187.294 141.598 184.697 132.553C182.092 123.516 182.113 118.762 178.111 114.246C171.965 107.315 163.201 105.588 155.061 103.516L154.755 141.043L152.896 190.649Z" fill="#037A84"/>
<path d="M120.718 162.7L171.957 172.574L174.455 192.054H95.8934C86.7811 192.173 79.5353 184.519 80.2521 175.53C81.3805 161.331 82.6082 143.845 83.545 136.451C84.2689 130.686 86.5966 124.724 89.3502 119.59C93.3173 112.203 106.532 102.709 118.121 102.245L120.313 150.538" fill="#037A84"/>
<g opacity="0.4">
<path d="M152.895 190.649L181.027 190.923L176.293 170.72L177.876 174.533C180.863 181.731 187.946 186.436 195.816 186.436C204.716 186.436 210.862 179.884 214.63 171.907C223.43 153.255 231.911 123.221 231.911 123.221L214.751 108.305C202.338 131.542 190.664 151.731 190.664 151.731C190.664 151.731 187.293 141.598 184.696 132.553C182.091 123.516 182.113 118.762 178.11 114.246C171.964 107.315 163.2 105.588 155.06 103.516L154.754 141.043L152.895 190.649Z" fill="#037A84"/>
</g>
<path d="M110.751 135.194C110.751 135.194 110.659 135.222 110.489 135.25C110.311 135.264 110.056 135.321 109.715 135.321C109.041 135.363 108.062 135.321 106.87 135.103C105.677 134.885 104.301 134.457 102.831 133.853C101.362 133.249 99.8011 132.476 98.1618 131.669C96.5295 130.868 94.9327 130.187 93.4353 129.71C91.9379 129.239 90.5398 128.965 89.3547 128.923C86.9701 128.804 85.565 129.443 85.5508 129.352C85.5508 129.338 85.6288 129.302 85.7921 129.239C85.9624 129.183 86.1966 129.071 86.5301 128.993C87.1759 128.804 88.1553 128.649 89.3689 128.67C90.5824 128.684 92.016 128.937 93.5418 129.394C95.0676 129.857 96.6856 130.538 98.325 131.346C99.9644 132.153 101.511 132.933 102.959 133.544C104.407 134.155 105.755 134.611 106.912 134.85C109.24 135.363 110.744 135.11 110.744 135.194H110.751Z" fill="#FAFAFA"/>
<path d="M119.525 133.48C119.539 133.578 117.673 133.979 115.352 134.372C113.031 134.765 111.13 134.997 111.115 134.899C111.101 134.8 112.968 134.4 115.288 134.007C117.609 133.613 119.511 133.382 119.525 133.48Z" fill="#FAFAFA"/>
<path d="M110.434 148.557C110.434 148.557 110.072 148.74 109.405 149C108.731 149.26 107.744 149.611 106.517 150.004C104.061 150.798 100.598 151.724 96.7089 152.406C94.7643 152.743 92.8979 152.988 91.1947 153.157C89.4985 153.333 87.9372 153.424 86.6385 153.276C85.3398 153.15 84.3179 152.792 83.6792 152.441C83.3598 152.265 83.1256 152.111 82.9766 151.991C82.8275 151.872 82.7566 151.809 82.7637 151.795C82.785 151.767 83.1043 152.012 83.7501 152.314C84.3959 152.616 85.3895 152.932 86.6669 153.017C87.9443 153.122 89.4701 153.017 91.1592 152.813C92.8553 152.63 94.7076 152.371 96.645 152.04C100.52 151.366 103.969 150.481 106.439 149.751C107.673 149.393 108.667 149.077 109.355 148.859C110.044 148.642 110.427 148.529 110.434 148.55V148.557Z" fill="#FAFAFA"/>
<path d="M119.326 152.258C119.326 152.357 117.594 152.469 115.458 152.504C113.322 152.539 111.59 152.483 111.59 152.385C111.59 152.286 113.322 152.174 115.458 152.139C117.594 152.104 119.326 152.16 119.326 152.258Z" fill="#FAFAFA"/>
<path d="M82.8052 184.245C82.8052 184.245 82.8194 184.112 82.8832 183.873C82.9613 183.592 83.0536 183.241 83.1671 182.82C83.231 182.588 83.3019 182.335 83.38 182.061C83.4723 181.787 83.5858 181.499 83.7065 181.183C83.9549 180.558 84.189 179.821 84.5865 179.07C84.771 178.683 84.9626 178.283 85.1613 177.869C85.3671 177.455 85.6297 177.047 85.8781 176.612C86.3536 175.727 86.9852 174.863 87.6239 173.929C88.9723 172.125 90.6329 170.264 92.5988 168.55C94.5929 166.858 96.6865 165.496 98.6736 164.421C99.6955 163.923 100.647 163.424 101.597 163.08C102.066 162.897 102.513 162.701 102.96 162.553C103.407 162.413 103.833 162.279 104.245 162.153C105.054 161.872 105.82 161.739 106.487 161.584C106.821 161.514 107.126 161.437 107.417 161.387C107.701 161.352 107.963 161.317 108.205 161.282C108.645 161.226 109.007 161.184 109.298 161.149C109.546 161.121 109.681 161.114 109.681 161.128C109.681 161.142 109.553 161.17 109.305 161.226C109.014 161.282 108.659 161.345 108.226 161.43C107.985 161.472 107.729 161.514 107.445 161.563C107.161 161.619 106.856 161.71 106.53 161.788C105.877 161.963 105.117 162.111 104.323 162.406C103.918 162.539 103.499 162.68 103.059 162.827C102.619 162.975 102.187 163.185 101.718 163.368C100.781 163.719 99.8446 164.224 98.8368 164.723C96.871 165.805 94.8129 167.16 92.84 168.831C90.8955 170.531 89.2491 172.363 87.8936 174.14C87.2549 175.053 86.6232 175.903 86.1407 176.773C85.8923 177.202 85.6226 177.602 85.4168 178.009C85.211 178.417 85.0123 178.817 84.8207 179.189C84.4161 179.933 84.1607 180.65 83.8981 181.268C83.7703 181.577 83.6426 181.865 83.5432 182.131C83.4581 182.398 83.3729 182.651 83.3019 182.876C83.16 183.29 83.0465 183.634 82.9542 183.908C82.869 184.14 82.8194 184.266 82.8052 184.259V184.245Z" fill="#FAFAFA"/>
<path d="M118.397 162.679C118.475 162.742 116.843 163.733 115.48 166.303C114.806 167.574 114.217 169.203 113.848 171.071C113.472 172.939 113.323 175.039 113.174 177.244C113.025 179.449 112.862 181.569 112.45 183.458C112.046 185.347 111.407 186.991 110.669 188.269C109.931 189.54 109.122 190.439 108.504 190.979C108.192 191.246 107.944 191.443 107.759 191.562C107.582 191.682 107.482 191.745 107.475 191.731C107.397 191.668 109.051 190.705 110.442 188.149C111.13 186.885 111.733 185.263 112.117 183.395C112.507 181.527 112.663 179.428 112.805 177.223C112.954 175.018 113.11 172.897 113.515 171.008C113.912 169.119 114.53 167.469 115.246 166.183C115.97 164.905 116.765 163.992 117.375 163.445C117.681 163.171 117.929 162.974 118.113 162.855C118.291 162.728 118.383 162.672 118.397 162.679Z" fill="#FAFAFA"/>
<path d="M130.512 192.166C130.413 192.166 130.526 186.113 130.774 178.655C131.023 171.191 131.307 165.151 131.406 165.151C131.505 165.151 131.392 171.205 131.144 178.669C130.895 186.127 130.611 192.173 130.512 192.173V192.166Z" fill="#FAFAFA"/>
<path d="M149.771 191.128C149.771 191.128 149.636 190.826 149.459 190.25C149.366 189.962 149.26 189.611 149.168 189.196C149.076 188.782 148.948 188.312 148.87 187.778C148.671 186.725 148.536 185.446 148.494 184.028C148.472 182.609 148.55 181.043 148.792 179.421C149.054 177.799 149.452 176.282 149.906 174.934C150.381 173.593 150.892 172.413 151.403 171.465C151.637 170.98 151.9 170.573 152.12 170.201C152.333 169.829 152.539 169.527 152.716 169.281C153.064 168.789 153.263 168.523 153.284 168.537C153.348 168.579 152.581 169.667 151.645 171.577C151.169 172.532 150.686 173.705 150.239 175.032C149.814 176.367 149.423 177.869 149.168 179.463C148.926 181.065 148.841 182.609 148.848 184.007C148.877 185.411 148.976 186.668 149.146 187.722C149.459 189.821 149.863 191.092 149.792 191.106L149.771 191.128Z" fill="#FAFAFA"/>
<path d="M117.063 113.51C117.034 113.573 115.941 113.081 114.096 112.492C112.258 111.902 109.654 111.27 106.715 111.01C103.777 110.757 101.102 110.926 99.1858 111.192C97.2696 111.452 96.1058 111.74 96.0845 111.677C96.0845 111.656 96.3613 111.565 96.8864 111.417C97.4116 111.27 98.178 111.101 99.1432 110.933C101.059 110.603 103.77 110.385 106.744 110.645C109.717 110.911 112.343 111.593 114.174 112.246C115.09 112.576 115.821 112.871 116.31 113.109C116.8 113.341 117.07 113.482 117.055 113.503L117.063 113.51Z" fill="#FAFAFA"/>
<path d="M173.127 143.038C173.127 143.087 172.119 143.059 170.494 142.996C168.869 142.933 166.626 142.849 164.149 142.785C161.673 142.722 159.43 142.701 157.805 142.68C156.18 142.659 155.172 142.645 155.172 142.589C155.172 142.561 155.42 142.533 155.874 142.505C156.329 142.469 156.989 142.441 157.798 142.42C159.423 142.371 161.673 142.357 164.156 142.42C166.64 142.483 168.883 142.61 170.501 142.736C171.31 142.799 171.97 142.863 172.417 142.919C172.871 142.975 173.12 143.01 173.12 143.038H173.127Z" fill="#FAFAFA"/>
<path d="M187.135 140.411C187.156 140.474 186.248 140.776 184.864 141.451C183.48 142.125 181.649 143.22 179.896 144.765C178.143 146.317 176.83 147.988 176 149.273C175.163 150.558 174.758 151.415 174.694 151.387C174.673 151.38 174.758 151.155 174.928 150.755C175.092 150.355 175.383 149.8 175.78 149.133C176.568 147.799 177.873 146.064 179.655 144.491C181.443 142.918 183.331 141.837 184.757 141.219C185.474 140.91 186.063 140.685 186.482 140.573C186.901 140.446 187.135 140.39 187.142 140.418L187.135 140.411Z" fill="#FAFAFA"/>
<path d="M180.223 117.898C180.223 117.989 178.776 117.673 176.618 118.397C175.54 118.734 174.319 119.316 172.978 119.998C171.636 120.672 170.16 121.465 168.478 121.999C165.114 123.087 161.829 122.996 159.586 122.575C158.458 122.364 157.563 122.09 156.96 121.873C156.364 121.648 156.038 121.493 156.052 121.472C156.073 121.402 157.386 121.964 159.629 122.315C161.857 122.666 165.072 122.715 168.365 121.648C170.011 121.128 171.473 120.356 172.821 119.696C174.17 119.029 175.426 118.467 176.533 118.151C177.64 117.821 178.584 117.736 179.23 117.772C179.549 117.772 179.798 117.821 179.968 117.842C180.138 117.87 180.223 117.891 180.216 117.898H180.223Z" fill="#FAFAFA"/>
<path d="M176.683 164.969C176.683 164.969 176.399 165.123 175.859 165.348C175.59 165.46 175.256 165.594 174.859 165.72C174.461 165.847 174.014 166.015 173.51 166.141C172.503 166.436 171.275 166.689 169.898 166.886C168.521 167.061 166.988 167.16 165.385 167.125C163.781 167.068 162.255 166.879 160.892 166.619C159.53 166.345 158.316 166.015 157.33 165.664C156.826 165.509 156.393 165.313 156.003 165.165C155.612 165.018 155.286 164.863 155.023 164.737C154.498 164.484 154.214 164.33 154.221 164.309C154.25 164.245 155.421 164.8 157.408 165.425C158.401 165.741 159.601 166.043 160.949 166.296C162.305 166.528 163.802 166.71 165.392 166.766C166.974 166.809 168.486 166.717 169.856 166.563C171.218 166.387 172.439 166.163 173.447 165.903C175.462 165.397 176.668 164.913 176.69 164.976L176.683 164.969Z" fill="#FAFAFA"/>
<path d="M192.99 185.748C192.99 185.748 192.883 185.677 192.713 185.523C192.55 185.361 192.28 185.144 191.982 184.814C191.365 184.182 190.555 183.184 189.739 181.836C188.079 179.154 186.666 174.891 186.574 170.074C186.489 165.263 187.44 160.98 188.185 157.953C188.568 156.436 188.909 155.214 189.157 154.372C189.278 153.985 189.37 153.669 189.455 153.41C189.526 153.192 189.569 153.08 189.583 153.08C189.597 153.08 189.576 153.206 189.526 153.431C189.463 153.698 189.392 154.021 189.299 154.414C189.086 155.32 188.795 156.535 188.441 158.016C187.759 161.057 186.858 165.312 186.943 170.074C187.035 174.828 188.384 179.034 189.959 181.71C190.74 183.058 191.506 184.069 192.088 184.722C192.663 185.382 193.011 185.726 192.983 185.748H192.99Z" fill="#FAFAFA"/>
<path d="M218.815 161.907C218.758 161.991 217.595 160.72 215.061 159.821C213.805 159.365 212.258 158.986 210.519 158.656C208.78 158.305 206.843 157.989 204.863 157.364C200.903 156.114 197.794 153.874 195.871 152.013C194.899 151.079 194.203 150.243 193.749 149.646C193.515 149.351 193.359 149.105 193.245 148.944C193.139 148.782 193.082 148.691 193.096 148.684C193.118 148.67 193.38 148.986 193.863 149.555C194.345 150.117 195.076 150.917 196.056 151.823C198 153.621 201.087 155.784 204.984 157.013C206.921 157.623 208.851 157.954 210.59 158.319C212.336 158.67 213.897 159.084 215.16 159.576C216.424 160.067 217.367 160.65 217.956 161.121C218.269 161.338 218.467 161.556 218.616 161.689C218.758 161.823 218.829 161.9 218.822 161.914L218.815 161.907Z" fill="#FAFAFA"/>
<path d="M226.934 138.474C226.934 138.474 226.643 138.256 226.174 137.821C225.94 137.603 225.656 137.336 225.301 137.041C224.954 136.746 224.57 136.395 224.109 136.051C223.215 135.328 222.101 134.541 220.816 133.741C219.518 132.961 218.041 132.175 216.438 131.486C214.819 130.812 213.23 130.3 211.761 129.906C210.285 129.541 208.943 129.281 207.801 129.141C207.233 129.05 206.715 129.022 206.254 128.972C205.799 128.923 205.402 128.902 205.083 128.888C204.437 128.853 204.082 128.818 204.082 128.797C204.082 128.769 204.437 128.755 205.09 128.748C205.416 128.741 205.814 128.748 206.268 128.776C206.729 128.804 207.254 128.818 207.829 128.895C208.986 129.007 210.349 129.239 211.846 129.59C213.336 129.963 214.947 130.475 216.579 131.163C218.205 131.859 219.695 132.666 220.994 133.467C222.285 134.288 223.4 135.11 224.272 135.861C224.727 136.219 225.096 136.585 225.436 136.901C225.777 137.21 226.054 137.49 226.274 137.729C226.714 138.2 226.948 138.467 226.934 138.481V138.474Z" fill="#FAFAFA"/>
<path d="M164.838 106.241C164.859 106.283 164.348 106.55 163.49 106.88C162.631 107.217 161.418 107.617 160.048 107.933C158.671 108.249 157.408 108.425 156.485 108.495C155.563 108.565 154.995 108.558 154.988 108.509C154.981 108.397 157.245 108.207 159.963 107.575C162.681 106.957 164.796 106.135 164.838 106.234V106.241Z" fill="#FAFAFA"/>
<path d="M190.01 205.144C190.408 206.506 189.258 207.812 187.838 207.623C187.072 207.517 186.44 206.984 186.213 206.246L185.617 204.034L185.702 204.062C186.078 205.39 184.787 206.604 183.403 206.471C182.466 206.45 181.664 205.13 181.402 204.42C179.855 204.603 178.393 203.704 177.797 202.707L173.631 196.275L165.917 190.692L170.579 174.196L187.186 184.828C187.838 185.327 187.938 185.544 188.974 186.492L199.69 196.239C198.477 196.963 197.44 196.907 195.759 196.239C194.077 195.572 186.668 190.629 186.668 190.629L190.003 205.13" fill="#FFBE9D"/>
<path d="M175.809 191.577C175.809 191.577 176.001 191.661 176.306 191.865C176.476 191.984 176.661 192.111 176.853 192.244C177.065 192.385 177.321 192.581 177.541 192.834C177.761 193.087 177.967 193.41 178.102 193.789C178.229 194.154 178.364 194.541 178.506 194.941C178.79 195.762 179.095 196.654 179.415 197.581C180.046 199.456 180.6 201.163 180.983 202.406C181.366 203.649 181.579 204.421 181.529 204.435C181.48 204.449 181.182 203.705 180.735 202.483C180.287 201.261 179.698 199.576 179.06 197.701C178.747 196.767 178.456 195.882 178.18 195.053C178.052 194.653 177.924 194.267 177.804 193.895C177.69 193.55 177.52 193.248 177.328 193.003C177.136 192.75 176.924 192.574 176.718 192.413C176.533 192.258 176.37 192.118 176.207 191.984C175.93 191.746 175.788 191.605 175.802 191.584L175.809 191.577Z" fill="#EB996E"/>
<path d="M185.794 204.392C185.794 204.392 185.688 204.153 185.56 203.711C185.411 203.191 185.234 202.559 185.028 201.829C184.581 200.241 183.97 198.044 183.197 195.649C182.416 193.261 181.614 191.112 180.642 189.799C180.166 189.139 179.67 188.697 179.279 188.458C178.889 188.219 178.641 188.149 178.655 188.114C178.655 188.1 178.726 188.114 178.846 188.142C178.967 188.163 179.137 188.233 179.357 188.339C179.783 188.549 180.337 188.985 180.855 189.652C181.912 190.986 182.764 193.149 183.552 195.544C184.325 197.945 184.9 200.157 185.283 201.765C185.475 202.573 185.617 203.226 185.702 203.675C185.787 204.132 185.823 204.385 185.801 204.392H185.794Z" fill="#EB996E"/>
<path d="M190.081 205.389C190.081 205.389 189.953 205.136 189.79 204.651C189.612 204.089 189.392 203.408 189.13 202.601C188.59 200.866 187.866 198.465 187.093 195.81C186.348 193.191 185.666 190.824 185.148 188.998C184.871 188.149 184.424 187.566 184.013 187.285C183.608 186.99 183.317 186.955 183.324 186.92C183.324 186.913 183.402 186.906 183.537 186.934C183.672 186.962 183.871 187.025 184.098 187.166C184.559 187.425 185.084 188.036 185.397 188.914C185.979 190.649 186.667 193.05 187.455 195.712C188.228 198.373 188.91 200.782 189.385 202.538C189.598 203.352 189.782 204.047 189.931 204.616C190.052 205.108 190.109 205.389 190.081 205.396V205.389Z" fill="#EB996E"/>
<path d="M393.42 125.167H269.517C254.314 125.167 241.989 137.363 241.989 152.407V252.195C241.989 267.239 254.314 279.434 269.517 279.434H393.42C408.624 279.434 420.949 267.239 420.949 252.195V152.407C420.949 137.363 408.624 125.167 393.42 125.167Z" fill="#FFC91C"/>
<g opacity="0.4">
<path d="M393.42 125.167H269.517C254.314 125.167 241.989 137.363 241.989 152.407V252.195C241.989 267.239 254.314 279.434 269.517 279.434H393.42C408.624 279.434 420.949 267.239 420.949 252.195V152.407C420.949 137.363 408.624 125.167 393.42 125.167Z" fill="#FFC91C"/>
</g>
<path d="M420.901 178.951H447.705L420.297 206.071L420.901 178.951Z" fill="#FFC91C"/>
<g opacity="0.4">
<path d="M420.901 178.951H447.705L420.297 206.071L420.901 178.951Z" fill="#FFC91C"/>
</g>
<path d="M237.701 195.629L226.467 183.017C223.429 180.012 222.386 178.558 222.996 178.031C223.805 177.329 223.458 177.561 229.767 182.252C229.767 182.252 220.825 175.482 223.926 175.44C224.473 175.433 225.991 176.311 227.616 177.364C225.402 175.503 224.792 174.246 225.211 173.649C225.935 172.617 231.406 176.367 233.918 178.179C231.86 176.662 227.936 173.713 227.24 172.793C226.296 171.529 228.213 171.634 229.774 172.161C231.527 172.751 241.214 177.645 244.081 178.909C246.054 179.78 246.749 178.01 246.749 178.01C247.807 173.621 251 170.756 252.228 170.384C253.463 170.012 254.393 171.564 253.52 172.68C252.817 173.586 252.107 175.44 251.632 176.852C251.242 178.017 251.036 179.232 251.057 180.454C251.078 181.873 251.157 183.073 251.249 184.092L261.511 198.031L244.336 207.883L237.694 195.622L237.701 195.629Z" fill="#B78876"/>
<path d="M233.664 184.19C233.55 184.352 231.549 182.989 229.207 181.157C226.858 179.324 225.063 177.716 225.198 177.568C225.325 177.421 227.327 178.776 229.654 180.602C231.989 182.428 233.785 184.036 233.664 184.19Z" fill="#AA6550"/>
<path d="M235.856 181.972C235.743 182.133 233.536 180.806 230.924 179.001C228.313 177.203 226.29 175.609 226.403 175.448C226.517 175.286 228.724 176.614 231.336 178.418C233.947 180.216 235.97 181.81 235.856 181.972Z" fill="#AA6550"/>
<path d="M237.445 179.612C237.331 179.773 235.224 178.551 232.733 176.88C230.242 175.209 228.304 173.72 228.418 173.558C228.531 173.397 230.639 174.619 233.137 176.29C235.628 177.961 237.559 179.45 237.452 179.612H237.445Z" fill="#AA6550"/>
<path d="M252.214 186.009L293.148 237.371L283.774 258.965C283.774 258.965 272.546 256.507 269.14 251.823C265.733 247.139 237.701 195.623 237.701 195.623L252.214 186.002V186.009Z" fill="#B78876"/>
<path d="M356.126 114.135C359.071 116.663 359.064 121.115 358.724 124.956C358.383 128.797 358.127 133.172 360.81 135.967C363.024 138.271 367.048 139.275 367.566 142.414C367.807 143.874 367.034 145.454 365.714 146.164C364.401 146.88 362.641 146.676 361.52 145.693C362.385 148.172 361.789 151.269 359.618 152.772C357.446 154.274 353.813 153.348 353.138 150.812C353.55 152.491 352.308 154.38 350.591 154.689C348.873 154.998 347.042 153.664 346.822 151.95" fill="#455A64"/>
<path d="M313.949 140.054C313.218 141.971 310.749 143.017 308.839 142.231C306.93 141.444 305.951 138.965 306.817 137.104C307.491 135.644 309.088 134.59 309.244 132.989C309.429 131.051 307.434 129.675 305.66 128.832C303.886 127.989 301.821 126.894 301.629 124.956C301.445 123.088 303.134 121.634 304.546 120.384C305.958 119.134 307.356 117.203 306.483 115.532C306.036 114.682 305.107 114.19 304.51 113.432C303.183 111.761 303.879 109.099 305.568 107.786C307.257 106.473 309.606 106.29 311.721 106.669C313.836 107.049 315.823 107.912 317.888 108.516C324.68 110.518 332.316 109.527 338.355 105.862" fill="#455A64"/>
<path d="M326.517 185.348C334.146 186.872 341.605 182.061 343.258 174.533L353.328 128.846C355.976 117.73 348.829 106.649 337.531 104.338L336.474 104.184C325.836 102.639 315.786 109.443 313.381 119.808C311.138 129.45 308.789 140.138 308.079 145.384C306.61 156.24 317.319 159.52 317.319 159.52L315.396 168.67C313.792 176.324 318.781 183.803 326.517 185.355V185.348Z" fill="#BF8E7C"/>
<path d="M315.342 126.964C315.193 127.779 315.76 128.572 316.619 128.748C317.471 128.917 318.287 128.397 318.436 127.589C318.585 126.775 318.017 125.981 317.158 125.806C316.3 125.637 315.491 126.157 315.335 126.971L315.342 126.964Z" fill="#455A64"/>
<path d="M314.938 125.453C315.101 125.684 316.414 124.989 318.096 125.235C319.778 125.46 320.892 126.492 321.105 126.316C321.212 126.239 321.063 125.846 320.587 125.382C320.112 124.919 319.267 124.413 318.217 124.266C317.167 124.118 316.23 124.371 315.662 124.694C315.087 125.01 314.86 125.354 314.938 125.46V125.453Z" fill="#455A64"/>
<path d="M331.801 129.668C331.652 130.483 332.22 131.276 333.079 131.452C333.93 131.62 334.746 131.101 334.895 130.293C335.044 129.478 334.477 128.685 333.618 128.509C332.759 128.341 331.95 128.86 331.794 129.675L331.801 129.668Z" fill="#455A64"/>
<path d="M331.446 128.158C331.61 128.39 332.922 127.695 334.604 127.94C336.286 128.165 337.4 129.197 337.613 129.022C337.713 128.945 337.578 128.551 337.088 128.088C336.613 127.624 335.768 127.119 334.718 126.971C333.668 126.824 332.731 127.077 332.163 127.4C331.588 127.716 331.361 128.06 331.439 128.158H331.446Z" fill="#455A64"/>
<path d="M323.504 139.632C323.526 139.54 322.504 139.21 320.843 138.747C320.417 138.642 320.027 138.494 319.998 138.199C319.942 137.876 320.19 137.448 320.474 136.977C321.027 136.008 321.616 134.99 322.227 133.923C324.675 129.569 326.513 125.959 326.336 125.861C326.158 125.763 324.029 129.218 321.581 133.571C320.985 134.646 320.424 135.671 319.878 136.654C319.644 137.111 319.282 137.623 319.409 138.29C319.48 138.628 319.757 138.901 320.027 139.014C320.289 139.14 320.531 139.175 320.744 139.217C322.44 139.554 323.497 139.716 323.511 139.625L323.504 139.632Z" fill="#455A64"/>
<path d="M331.972 121.571C332.072 122.048 333.782 122.076 335.726 122.596C337.678 123.081 339.182 123.881 339.509 123.516C339.658 123.34 339.438 122.87 338.863 122.343C338.288 121.81 337.33 121.248 336.166 120.946C335.003 120.644 333.888 120.672 333.122 120.862C332.355 121.044 331.937 121.346 331.979 121.571H331.972Z" fill="#455A64"/>
<path d="M316.273 120.72C316.514 121.142 317.728 120.917 319.126 121.1C320.531 121.233 321.666 121.725 321.993 121.373C322.142 121.198 322.007 120.791 321.546 120.362C321.092 119.934 320.283 119.52 319.317 119.407C318.352 119.302 317.472 119.52 316.933 119.836C316.379 120.152 316.166 120.517 316.266 120.72H316.273Z" fill="#455A64"/>
<path d="M343.194 115.229C343.194 115.229 343.229 115.264 343.244 115.285C344.784 116.9 345.649 119.042 345.628 121.261C345.628 121.338 345.628 121.416 345.628 121.486C345.6 124.639 345.053 127.771 345.06 130.931C345.06 134.084 345.678 137.385 347.672 139.842C348.488 140.854 350.078 141.703 351.015 140.79C351.376 140.439 351.504 139.92 351.618 139.428C353.307 132.048 356.344 125.72 357.487 117.912C357.799 115.784 357.082 113.649 355.521 112.153C354.045 110.742 352.207 109.239 350.241 109.829C348.275 110.426 345.394 113.48 343.762 114.716" fill="#455A64"/>
<path d="M348.906 133.213C349.104 133.157 356.762 132.103 355.421 139.477C354.086 146.85 346.876 144.006 346.904 143.789C346.933 143.578 348.906 133.213 348.906 133.213Z" fill="#BF8E7C"/>
<path d="M349.686 141.402C349.721 141.381 349.799 141.514 349.998 141.655C350.197 141.788 350.552 141.922 350.963 141.844C351.801 141.697 352.688 140.58 352.964 139.253C353.106 138.586 353.078 137.919 352.936 137.35C352.808 136.767 352.524 136.332 352.141 136.191C351.765 136.03 351.439 136.219 351.311 136.409C351.176 136.599 351.197 136.753 351.155 136.76C351.134 136.774 351.02 136.606 351.133 136.318C351.19 136.177 351.311 136.016 351.51 135.911C351.715 135.798 351.992 135.77 352.262 135.847C352.83 135.988 353.255 136.606 353.412 137.231C353.603 137.87 353.646 138.614 353.49 139.365C353.17 140.84 352.155 142.097 351.02 142.217C350.474 142.259 350.062 142.027 349.87 141.809C349.672 141.585 349.664 141.416 349.693 141.409L349.686 141.402Z" fill="#AA6550"/>
<path d="M350.319 111.017C352.604 108.32 348.183 103.327 344.656 101.642C341.129 99.9563 335.998 101.031 332.137 101.705C329.703 102.133 327.233 102.857 324.806 102.407C323.181 102.105 321.705 101.284 320.236 100.525C318.767 99.7597 317.234 99.0224 315.58 98.896C313.927 98.7695 312.117 99.3875 311.273 100.799C310.428 102.21 311.017 104.394 312.607 104.858C310.698 103.432 307.483 104.479 306.802 106.747C306.12 109.015 308.242 111.627 310.627 111.459C309.683 110.504 307.852 111.585 307.788 112.927C307.724 114.261 308.789 115.391 309.931 116.101C312.855 117.912 316.56 118.004 319.952 117.4C323.344 116.789 326.587 115.546 329.965 114.858C333.344 114.17 339.014 112.87 342.065 114.457C344.315 115.63 345.543 118.692 346.969 118.257C348.353 117.842 349.368 116.62 349.829 115.265C350.291 113.91 350.305 112.456 350.305 111.024" fill="#455A64"/>
<path d="M364.919 145.264C364.919 145.264 365.068 145.243 365.309 145.095C365.55 144.955 365.877 144.667 366.118 144.182C366.345 143.705 366.494 143.031 366.359 142.279C366.239 141.514 365.735 140.742 365.018 140.11C364.294 139.478 363.357 138.986 362.335 138.558C361.321 138.122 360.199 137.736 359.192 137.055C358.184 136.388 357.389 135.348 356.913 134.126C356.424 132.912 356.225 131.535 356.253 130.138C356.332 127.322 357.119 124.695 357.311 122.217C357.545 119.752 357.176 117.413 356.119 115.805C355.068 114.197 353.606 113.404 352.577 113.172C352.059 113.038 351.641 113.045 351.364 113.052C351.087 113.081 350.938 113.102 350.945 113.116C350.945 113.165 351.541 113.031 352.542 113.312C353.528 113.579 354.912 114.38 355.892 115.946C356.878 117.505 357.219 119.766 356.963 122.189C356.757 124.618 355.955 127.245 355.877 130.131C355.849 131.57 356.055 132.996 356.573 134.267C357.077 135.538 357.928 136.648 359 137.343C360.064 138.045 361.207 138.431 362.215 138.846C363.23 139.253 364.145 139.716 364.848 140.306C365.543 140.896 366.019 141.612 366.153 142.315C366.295 143.017 366.182 143.656 365.983 144.119C365.55 145.067 364.869 145.215 364.919 145.257V145.264Z" fill="#455A64"/>
<path d="M312.367 104.69C312.367 104.69 312.261 104.627 312.041 104.521C311.934 104.465 311.793 104.409 311.622 104.36C311.452 104.297 311.253 104.24 311.026 104.205C310.125 104.023 308.606 104.17 307.265 105.343C306.356 106.361 305.767 107.969 305.923 109.739C306.044 111.516 307.023 113.398 308.663 114.746C310.288 116.115 312.502 116.972 314.865 117.218C317.236 117.478 319.727 117.239 322.232 116.768C326.313 115.996 330.024 114.451 333.09 112.618C334.637 111.733 336.099 110.884 337.568 110.315C339.03 109.732 340.492 109.479 341.826 109.451C344.516 109.402 346.624 110.195 347.944 110.884C349.271 111.586 349.895 112.162 349.924 112.12C349.924 112.12 349.342 111.502 348.015 110.757C346.702 110.027 344.573 109.177 341.826 109.191C340.464 109.191 338.952 109.444 337.455 110.027C335.95 110.596 334.46 111.445 332.913 112.323C329.854 114.128 326.192 115.645 322.154 116.403C319.677 116.867 317.214 117.098 314.901 116.86C312.587 116.628 310.451 115.806 308.876 114.5C307.286 113.208 306.335 111.424 306.207 109.725C306.037 108.025 306.584 106.481 307.428 105.49C308.67 104.367 310.139 104.177 311.019 104.318C311.92 104.458 312.36 104.725 312.374 104.69H312.367Z" fill="#455A64"/>
<path d="M316.519 98.5515C316.519 98.5515 316.441 99.1695 316.782 100.209C317.13 101.234 318.038 102.653 319.72 103.706C320.55 104.24 321.551 104.689 322.694 104.928C323.829 105.174 325.085 105.223 326.377 105.117C328.981 104.921 331.714 104.043 334.574 103.306C337.427 102.568 340.294 102.189 342.763 102.842C345.233 103.467 347.121 104.956 348.327 106.417C349.555 107.891 350.165 109.352 350.456 110.377C350.74 111.409 350.776 112.013 350.818 112.006C350.832 112.006 350.818 111.859 350.797 111.571C350.783 111.283 350.705 110.869 350.591 110.342C350.343 109.289 349.754 107.786 348.526 106.248C347.312 104.731 345.396 103.172 342.841 102.505C340.287 101.81 337.341 102.196 334.474 102.94C331.593 103.678 328.896 104.563 326.341 104.766C325.071 104.879 323.85 104.837 322.75 104.612C321.643 104.394 320.664 103.973 319.855 103.474C318.208 102.477 317.293 101.136 316.91 100.153C316.534 99.1484 316.555 98.5375 316.512 98.5445L316.519 98.5515Z" fill="#455A64"/>
<path d="M320.145 145.152C320.273 145.869 320.4 146.599 320.72 147.252C321.046 147.905 321.6 148.488 322.309 148.671C323.069 148.867 323.906 148.572 324.467 148.024C325.028 147.484 325.34 146.725 325.468 145.96C325.581 145.265 325.439 144.38 324.765 144.155C324.488 144.064 324.183 144.113 323.892 144.162C322.579 144.394 321.273 144.633 319.96 144.864" fill="#AA6550"/>
<path d="M320.833 148.103C320.89 147.997 321.557 148.552 322.785 148.468C323.381 148.426 324.091 148.194 324.623 147.639C325.148 147.091 325.496 146.242 325.411 145.371C325.397 145.153 325.333 144.943 325.269 144.753C325.177 144.563 325.198 144.577 325.042 144.549C324.886 144.542 324.616 144.577 324.403 144.591C324.183 144.605 323.963 144.627 323.75 144.641C322.899 144.704 322.132 144.753 321.486 144.781C320.195 144.844 319.393 144.837 319.379 144.746C319.364 144.655 320.159 144.5 321.437 144.325C322.075 144.233 322.842 144.142 323.693 144.044C323.906 144.023 324.126 143.995 324.346 143.973C324.581 143.952 324.765 143.91 325.077 143.917C325.226 143.917 325.432 143.959 325.595 144.1C325.759 144.233 325.83 144.395 325.886 144.528C325.979 144.788 326.05 145.041 326.071 145.315C326.177 146.403 325.737 147.421 325.063 148.075C324.375 148.735 323.495 148.952 322.813 148.938C322.118 148.931 321.586 148.714 321.266 148.51C320.947 148.306 320.819 148.138 320.848 148.11L320.833 148.103Z" fill="#455A64"/>
<path d="M317.312 159.514C317.312 159.514 324.466 162.196 331.428 160.244C331.428 160.244 326.176 164.598 316.596 162.927L317.312 159.507V159.514Z" fill="#AA6550"/>
<path d="M328.229 260.192C328.229 260.192 327.86 259.946 327.249 259.455C326.944 259.202 326.568 258.9 326.107 258.584C325.653 258.261 325.149 257.868 324.553 257.496C323.963 257.109 323.318 256.688 322.594 256.288C321.884 255.852 321.089 255.466 320.259 255.045C318.577 254.244 316.675 253.479 314.61 252.854C312.545 252.25 310.522 251.864 308.67 251.618C307.74 251.52 306.86 251.414 306.03 251.386C305.2 251.323 304.426 251.33 303.723 251.33C303.014 251.316 302.375 251.372 301.814 251.393C301.254 251.414 300.771 251.456 300.374 251.506C299.586 251.583 299.146 251.611 299.146 251.59C299.146 251.562 299.572 251.485 300.36 251.365C300.75 251.302 301.232 251.232 301.8 251.197C302.361 251.155 303.007 251.077 303.716 251.077C304.426 251.056 305.207 251.035 306.044 251.084C306.882 251.091 307.776 251.197 308.712 251.281C310.579 251.513 312.623 251.899 314.716 252.503C316.796 253.128 318.719 253.921 320.408 254.743C321.238 255.178 322.04 255.579 322.75 256.028C323.474 256.442 324.12 256.878 324.702 257.285C325.298 257.671 325.787 258.086 326.234 258.43C326.689 258.767 327.051 259.083 327.342 259.357C327.931 259.883 328.25 260.185 328.229 260.206V260.192Z" fill="#FAFAFA"/>
<path d="M286.522 224.127L292.348 199.176C294.577 189.795 297.217 180.778 301.645 179.71V182.611L299.75 253.894C299.75 253.894 287.884 267.265 272.754 259.828C268.027 257.504 259.405 241.177 259.405 241.177C259.405 241.177 239.371 205.749 240.201 204.141C241.031 202.533 253.294 186.901 254.544 186.122L286.515 224.113L286.522 224.127Z" fill="#037A84"/>
<path d="M346.405 172.673C357.973 174.864 370.996 181.542 376.993 198.642C379.178 204.892 395.111 250.958 395.111 250.958L367.944 250.396L363.523 240.895L365.68 256.302L367.518 278.289L298.935 279.427L299.418 246.316L300.078 180.447C300.078 180.447 300.851 179.45 312.674 172.989C320.02 168.979 346.405 172.659 346.405 172.659V172.673Z" fill="#037A84"/>
<g opacity="0.2">
<path d="M353.246 216.704C354.374 230.608 355.666 234.906 356.794 248.81C356.9 250.123 357.014 251.465 357.532 252.673C358.05 253.887 359.065 254.969 360.371 255.229C362.365 255.629 364.962 257.061 365.53 255.123L363.635 241.732C363.635 241.732 363.188 239.211 361.762 236.079C357.553 226.837 355.999 226.29 353.246 216.704Z" fill="black"/>
</g>
<path d="M312.672 180.125L312.899 178.679L315.092 164.803C315.227 163.967 315.987 163.37 316.838 163.44L343.841 165.673C345.538 165.814 346.801 167.281 346.68 168.96L346.077 177.021L337.646 187.906L325.503 189.781" fill="#037A84"/>
<path d="M299.111 206.219C299.211 206.219 299.296 217.089 299.296 230.495C299.296 243.901 299.211 254.771 299.111 254.771C299.012 254.771 298.927 243.901 298.927 230.495C298.927 217.089 299.012 206.219 299.111 206.219Z" fill="#1A7474"/>
<path d="M368.519 252.623C368.519 252.623 368.483 252.574 368.434 252.469C368.377 252.342 368.299 252.188 368.214 251.991C368.015 251.542 367.738 250.924 367.391 250.144C366.681 248.508 365.666 246.184 364.424 243.326C361.947 237.532 358.541 229.569 354.779 220.777C352.913 216.367 351.132 212.168 349.507 208.34C348.648 206.451 348.073 204.513 347.761 202.695C347.434 200.869 347.307 199.148 347.292 197.575C347.257 194.429 347.732 191.88 348.371 190.237C348.449 190.033 348.52 189.837 348.591 189.654C348.676 189.478 348.761 189.317 348.839 189.162C348.989 188.853 349.123 188.601 349.265 188.418C349.386 188.243 349.485 188.102 349.57 187.983C349.641 187.884 349.677 187.842 349.684 187.842C349.734 187.87 349.088 188.629 348.513 190.286C347.924 191.929 347.491 194.45 347.555 197.575C347.64 200.679 348.066 204.457 349.819 208.214C351.451 212.034 353.24 216.234 355.113 220.637C358.839 229.45 362.21 237.42 364.658 243.227C365.858 246.107 366.83 248.445 367.511 250.088C367.83 250.882 368.086 251.507 368.271 251.963C368.349 252.16 368.412 252.321 368.462 252.455C368.505 252.567 368.519 252.623 368.512 252.623H368.519Z" fill="#1A7474"/>
<path d="M354.82 175.096C354.82 175.096 354.572 175.356 354.032 175.77C353.493 176.191 352.641 176.739 351.442 177.266C350.243 177.778 348.703 178.235 346.879 178.53C345.055 178.832 342.961 179.021 340.634 179.141C338.313 179.246 335.765 179.197 333.04 179.253C330.322 179.316 327.398 179.485 324.453 180.285C321.536 181.065 318.52 182.504 316.377 184.997C315.327 186.24 314.539 187.75 314.134 189.379C313.716 191.001 313.708 192.764 314.212 194.4C314.482 195.215 314.894 195.973 315.405 196.647C315.923 197.315 316.583 197.862 317.321 198.249C318.052 198.635 318.889 198.831 319.691 198.74C320.493 198.663 321.245 198.27 321.77 197.68C322.835 196.479 323.034 194.751 322.821 193.235C322.707 192.469 322.48 191.718 322.147 191.044C321.806 190.369 321.359 189.744 320.883 189.162C318.939 186.844 316.221 185.503 313.609 184.899C310.976 184.281 308.386 184.408 306.157 184.983C303.922 185.538 302.02 186.451 300.452 187.399C298.883 188.34 297.648 189.33 296.676 190.18C295.704 191.023 295.016 191.753 294.533 192.23C294.313 192.469 294.136 192.652 294.001 192.792C293.88 192.919 293.816 192.982 293.809 192.975C293.809 192.975 294.668 191.823 296.577 190.068C297.535 189.204 298.77 188.186 300.338 187.223C301.907 186.254 303.816 185.313 306.087 184.738C308.336 184.134 310.976 183.993 313.666 184.611C316.334 185.222 319.123 186.577 321.132 188.958C321.621 189.562 322.076 190.194 322.445 190.903C322.799 191.619 323.041 192.399 323.154 193.199C323.275 194 323.275 194.836 323.112 195.657C322.948 196.472 322.615 197.286 322.026 197.933C321.444 198.579 320.607 199.021 319.719 199.105C318.832 199.204 317.924 198.986 317.136 198.572C316.348 198.157 315.646 197.581 315.099 196.872C314.56 196.163 314.134 195.369 313.85 194.513C313.318 192.799 313.332 190.966 313.765 189.288C314.191 187.603 314.993 186.051 316.086 184.759C318.307 182.188 321.387 180.735 324.347 179.948C327.334 179.148 330.287 178.986 333.019 178.937C335.751 178.895 338.292 178.958 340.605 178.874C342.919 178.776 345.012 178.6 346.829 178.319C348.646 178.045 350.179 177.61 351.371 177.125C352.563 176.627 353.422 176.107 353.969 175.707C354.252 175.517 354.444 175.342 354.586 175.243C354.728 175.138 354.799 175.089 354.799 175.089L354.82 175.096Z" fill="#FAFAFA"/>
<path d="M378.29 204.323C378.29 204.323 378.184 204.351 377.985 204.372C377.786 204.386 377.495 204.428 377.112 204.435C376.353 204.471 375.253 204.464 373.897 204.358C372.542 204.26 370.938 204.056 369.164 203.817C367.389 203.579 365.445 203.312 363.387 203.2C361.336 203.101 359.377 203.256 357.639 203.628C355.907 204.007 354.402 204.583 353.26 205.278C350.939 206.655 350.102 208.199 350.024 208.115C350.017 208.115 350.066 208.017 350.173 207.855C350.293 207.694 350.428 207.434 350.691 207.153C351.159 206.556 351.968 205.784 353.125 205.06C354.275 204.323 355.808 203.712 357.568 203.305C359.335 202.912 361.329 202.743 363.408 202.841C365.488 202.954 367.439 203.235 369.213 203.487C370.988 203.747 372.577 203.979 373.926 204.105C375.267 204.239 376.36 204.288 377.119 204.295C377.871 204.302 378.297 204.295 378.297 204.323H378.29Z" fill="#FAFAFA"/>
<path d="M361.238 235.804C361.23 235.896 359.811 235.306 357.164 235.46C355.844 235.523 354.247 235.797 352.438 236.296C350.621 236.78 348.605 237.49 346.334 238.185C344.078 238.873 341.501 239.526 338.684 239.505C335.881 239.505 332.865 238.957 329.969 237.714C327.059 236.507 324.27 234.575 322.021 231.998C320.892 230.72 319.906 229.252 319.203 227.63C318.515 226.008 318.132 224.182 318.394 222.357C318.664 220.552 319.523 218.824 320.914 217.659C321.609 217.083 322.418 216.633 323.305 216.451C324.185 216.261 325.101 216.296 325.945 216.535C326.79 216.774 327.592 217.174 328.223 217.771C328.855 218.361 329.33 219.119 329.501 219.955C329.685 220.783 329.6 221.654 329.309 222.42C329.018 223.192 328.536 223.866 327.982 224.435C326.868 225.58 325.484 226.345 324.086 226.886C323.383 227.146 322.659 227.349 321.95 227.469C321.595 227.532 321.24 227.609 320.885 227.665C320.53 227.708 320.183 227.75 319.828 227.785C317.032 228.087 314.399 227.785 312.085 227.251C309.765 226.703 307.763 225.875 306.103 224.976C304.442 224.084 303.122 223.122 302.121 222.251C301.873 222.033 301.639 221.83 301.412 221.64C301.206 221.437 301.014 221.24 300.83 221.057C300.461 220.706 300.17 220.39 299.95 220.116C299.737 219.864 299.566 219.66 299.439 219.512C299.325 219.372 299.268 219.302 299.275 219.302C299.275 219.302 299.346 219.365 299.467 219.491C299.602 219.632 299.779 219.828 299.999 220.074C300.226 220.334 300.525 220.643 300.901 220.987C301.085 221.163 301.284 221.352 301.49 221.549C301.717 221.739 301.951 221.935 302.206 222.146C303.214 222.996 304.534 223.929 306.195 224.8C307.848 225.671 309.836 226.479 312.135 227.005C314.427 227.518 317.032 227.806 319.785 227.49C320.126 227.448 320.474 227.406 320.821 227.363C321.169 227.307 321.517 227.23 321.865 227.167C322.574 227.047 323.263 226.844 323.951 226.591C325.307 226.064 326.655 225.313 327.719 224.21C328.245 223.663 328.699 223.024 328.968 222.307C329.238 221.591 329.316 220.798 329.139 220.032C328.812 218.494 327.421 217.293 325.832 216.886C325.037 216.661 324.178 216.633 323.369 216.816C322.553 216.984 321.787 217.406 321.141 217.953C319.835 219.056 319.005 220.699 318.749 222.427C318.501 224.161 318.863 225.931 319.53 227.504C320.211 229.084 321.169 230.523 322.283 231.78C324.49 234.316 327.23 236.219 330.09 237.419C332.943 238.648 335.909 239.203 338.67 239.217C341.445 239.252 343.985 238.627 346.242 237.953C348.506 237.279 350.543 236.584 352.367 236.12C354.19 235.643 355.809 235.383 357.143 235.341C357.81 235.292 358.399 235.355 358.91 235.369C359.414 235.439 359.854 235.474 360.194 235.558C360.521 235.636 360.776 235.699 360.968 235.748C361.138 235.79 361.23 235.818 361.23 235.825L361.238 235.804Z" fill="#FAFAFA"/>
<path d="M298.877 228.312C298.82 228.34 298.494 227.567 297.805 226.423C297.117 225.278 296.017 223.782 294.52 222.392C293.015 221.008 291.432 220.025 290.226 219.428C289.027 218.831 288.225 218.558 288.246 218.501C288.253 218.48 288.459 218.522 288.828 218.628C289.197 218.726 289.715 218.923 290.34 219.197C291.589 219.744 293.235 220.713 294.768 222.125C296.301 223.543 297.394 225.095 298.025 226.296C298.345 226.893 298.572 227.392 298.7 227.75C298.834 228.101 298.891 228.305 298.87 228.312H298.877Z" fill="#FAFAFA"/>
<path d="M271.336 258.367C271.336 258.367 271.293 258.311 271.222 258.191C271.144 258.051 271.052 257.882 270.931 257.665C270.676 257.194 270.307 256.506 269.853 255.6C268.958 253.795 267.638 251.162 266.602 247.693C266.105 245.959 265.687 243.999 265.587 241.872C265.524 240.804 265.587 239.695 265.722 238.571C265.885 237.447 266.169 236.303 266.56 235.165C267.39 232.918 268.703 230.65 270.726 228.929C272.706 227.216 275.438 226.015 278.298 226.303C279.703 226.45 281.108 227.019 282.031 228.101C282.939 229.154 283.379 230.601 283.081 231.942C282.932 232.609 282.57 233.227 282.073 233.676C281.584 234.14 280.966 234.442 280.342 234.61C279.071 234.962 277.723 234.737 276.637 234.168C275.537 233.606 274.643 232.778 273.926 231.886C273.209 230.987 272.649 230.018 272.223 229.035C271.393 227.054 271.123 225.018 271.272 223.206C271.421 221.387 271.989 219.8 272.677 218.536C273.366 217.265 274.175 216.296 274.898 215.587C275.629 214.878 276.275 214.407 276.729 214.126C276.949 213.979 277.134 213.888 277.255 213.817C277.375 213.754 277.439 213.719 277.439 213.726C277.446 213.74 277.205 213.888 276.772 214.189C276.332 214.491 275.715 214.976 275.005 215.692C274.302 216.409 273.522 217.378 272.862 218.635C272.202 219.892 271.662 221.451 271.535 223.227C271.407 225.004 271.676 226.984 272.507 228.915C272.926 229.877 273.479 230.818 274.182 231.689C274.884 232.553 275.75 233.346 276.793 233.873C277.829 234.407 279.078 234.61 280.249 234.28C281.42 233.985 282.471 233.087 282.726 231.865C282.996 230.664 282.591 229.309 281.747 228.339C280.909 227.356 279.589 226.809 278.255 226.668C275.53 226.394 272.876 227.546 270.96 229.203C268.994 230.875 267.702 233.087 266.879 235.285C266.489 236.401 266.212 237.518 266.042 238.62C265.9 239.73 265.836 240.811 265.893 241.864C265.978 243.964 266.382 245.902 266.858 247.63C267.851 251.085 269.129 253.725 269.987 255.544C270.42 256.436 270.754 257.131 271.002 257.637C271.109 257.861 271.194 258.044 271.265 258.184C271.322 258.311 271.35 258.374 271.343 258.374L271.336 258.367Z" fill="#FAFAFA"/>
<path d="M262.577 196.374C262.577 196.374 262.613 196.472 262.641 196.668C262.669 196.865 262.719 197.146 262.747 197.518C262.818 198.263 262.854 199.344 262.747 200.671C262.549 203.319 261.598 207.019 259.242 210.404C256.885 213.789 253.734 215.994 251.307 217.125C250.094 217.7 249.058 218.059 248.334 218.255C247.972 218.367 247.688 218.417 247.496 218.466C247.305 218.508 247.198 218.522 247.198 218.508C247.191 218.48 247.589 218.36 248.291 218.122C249.001 217.883 250.009 217.49 251.194 216.893C253.557 215.713 256.63 213.515 258.944 210.193C261.25 206.872 262.222 203.248 262.492 200.643C262.634 199.33 262.641 198.263 262.613 197.525C262.584 196.788 262.556 196.374 262.584 196.374H262.577Z" fill="#FAFAFA"/>
<path d="M384.501 226.823C384.551 226.886 383.16 227.455 381.762 229.302C381.059 230.208 380.349 231.373 379.54 232.672C378.731 233.972 377.723 235.341 376.51 236.64C374.076 239.245 371.329 241.029 369.236 242.047C368.192 242.574 367.305 242.904 366.695 243.122C366.078 243.325 365.73 243.424 365.723 243.396C365.716 243.375 366.042 243.227 366.645 242.988C367.241 242.728 368.1 242.363 369.122 241.816C371.159 240.748 373.849 238.957 376.24 236.387C377.44 235.102 378.433 233.768 379.256 232.49C380.08 231.212 380.818 230.039 381.563 229.14C382.308 228.241 383.039 227.616 383.6 227.272C383.876 227.097 384.103 226.977 384.26 226.914C384.416 226.844 384.501 226.809 384.508 226.823H384.501Z" fill="#FAFAFA"/>
<path d="M346.149 173.487C346.149 173.487 346.036 173.53 345.823 173.572C345.567 173.614 345.255 173.67 344.879 173.74C344.056 173.874 342.864 174.056 341.395 174.253C338.442 174.646 334.355 175.103 329.827 175.433C327.563 175.594 325.398 175.742 323.418 175.664C321.438 175.594 319.664 175.271 318.245 174.787C316.818 174.316 315.761 173.691 315.087 173.207C314.746 172.961 314.498 172.757 314.342 172.603C314.178 172.455 314.1 172.371 314.107 172.364C314.129 172.343 314.476 172.645 315.165 173.087C315.853 173.53 316.911 174.105 318.323 174.541C319.728 174.983 321.474 175.271 323.425 175.327C325.377 175.39 327.535 175.236 329.798 175.074C334.319 174.744 338.407 174.33 341.366 174C342.8 173.839 343.978 173.705 344.865 173.607C345.688 173.515 346.149 173.473 346.157 173.501L346.149 173.487Z" fill="#1A7474"/>
<path d="M394.755 255.923C397.004 267.482 388.119 278.233 376.218 278.353L322.467 277.763L323.879 260.537L369.966 253.732" fill="#B78876"/>
<path d="M327.207 261.331C326.958 261.415 323.857 260.032 321.075 258.761C318.123 257.413 314.887 256.788 311.636 256.949L298.819 257.595C298.819 257.595 299.607 259.688 300.97 260.432C302.325 261.177 310.295 261.338 310.295 261.338L309.89 261.753C308.208 263.466 305.923 264.456 303.51 264.512L302.29 264.54C301.381 264.47 300.487 264.295 299.614 264.021L296.456 262.757C295.498 262.328 294.49 262.399 294.072 263.354C293.695 264.217 293.972 265.404 296.584 266.703C298.046 267.434 303.454 269.28 303.454 269.28C303.454 269.28 303.532 270.762 303.766 271.542C304 272.321 306.129 273.101 306.129 273.101C306.129 273.101 307.47 275.825 308.017 276.45C308.265 276.731 310.188 277.321 312.232 277.89C315.539 278.81 319.038 278.789 322.331 277.813L327.214 276.373V261.654" fill="#B78876"/>
<path d="M309.678 270.945C309.678 271.029 308.152 270.945 306.35 270.474C304.54 270.004 303.178 269.337 303.213 269.259C303.249 269.175 304.647 269.709 306.428 270.165C308.209 270.629 309.692 270.846 309.678 270.945Z" fill="#037A84"/>
<path d="M309.223 273.915C309.223 273.999 308.393 274.048 307.421 273.789C306.441 273.529 305.76 273.072 305.803 272.995C305.845 272.911 306.569 273.234 307.506 273.48C308.436 273.732 309.23 273.824 309.223 273.915Z" fill="#037A84"/>
<path d="M311.566 260.186C311.566 260.186 311.225 260.628 310.579 261.232C309.926 261.836 308.975 262.636 307.79 263.325C306.598 264.013 305.399 264.399 304.519 264.574C303.639 264.75 303.078 264.764 303.078 264.729C303.05 264.617 305.299 264.406 307.634 263.051C308.798 262.383 309.749 261.618 310.437 261.063C311.119 260.502 311.544 260.15 311.58 260.186H311.566Z" fill="#037A84"/>
<path d="M328.511 259.006L327.206 278.486L377.841 278.507C381.276 278.507 384.654 277.587 387.599 275.832C394.441 271.766 397.968 263.901 396.428 256.155C395.91 252.988 394.689 249.287 393.163 245.348L367.707 249.491L368.523 252.63L328.518 259.013L328.511 259.006Z" fill="#037A84"/>
<path d="M380.249 251C380.249 251 380.071 251.05 379.738 251.12C379.362 251.183 378.872 251.274 378.262 251.38C376.934 251.597 375.082 251.906 372.811 252.279C368.17 253.009 361.825 254.006 354.814 255.116C347.795 256.176 341.443 257.138 336.795 257.847C334.517 258.177 332.658 258.444 331.33 258.634C330.713 258.718 330.216 258.781 329.84 258.83C329.499 258.873 329.322 258.887 329.315 258.873C329.315 258.859 329.492 258.823 329.826 258.753C330.202 258.69 330.692 258.599 331.302 258.493C332.629 258.276 334.481 257.967 336.752 257.594C341.394 256.864 347.738 255.867 354.75 254.757C361.769 253.697 368.113 252.735 372.761 252.033C375.04 251.703 376.899 251.436 378.226 251.246C378.843 251.162 379.34 251.099 379.716 251.05C380.057 251.008 380.234 250.993 380.242 251.008L380.249 251Z" fill="#1A7474"/>
<path d="M354.34 278.514C354.255 278.5 354.645 277.11 354.695 274.814C354.695 274.238 354.709 273.613 354.624 272.946C354.588 272.271 354.446 271.569 354.311 270.825C353.985 269.35 353.453 267.763 352.665 266.204C351.87 264.645 350.877 263.29 349.897 262.131C349.642 261.85 349.393 261.576 349.152 261.31C348.904 261.043 348.641 260.818 348.4 260.579C347.924 260.095 347.42 259.708 346.98 259.336C345.171 257.897 343.886 257.23 343.929 257.166C343.943 257.145 344.262 257.307 344.837 257.623C345.121 257.777 345.476 257.967 345.859 258.234C346.235 258.501 346.704 258.76 347.151 259.14C347.605 259.505 348.123 259.884 348.613 260.362C348.861 260.6 349.131 260.825 349.386 261.092C349.635 261.359 349.89 261.64 350.153 261.921C351.168 263.086 352.182 264.456 352.991 266.05C353.793 267.644 354.326 269.266 354.645 270.769C354.773 271.527 354.907 272.25 354.929 272.932C355 273.613 354.971 274.252 354.957 274.835C354.964 275.417 354.858 275.937 354.815 276.394C354.773 276.85 354.68 277.243 354.609 277.559C354.46 278.191 354.375 278.535 354.347 278.528L354.34 278.514Z" fill="#FAFAFA"/>
<path d="M385.161 277.047C385.161 277.047 384.31 277.082 382.812 276.766C382.074 276.59 381.159 276.337 380.186 275.853C379.214 275.368 378.164 274.673 377.227 273.669C376.297 272.672 375.474 271.359 375.048 269.807C374.85 269.027 374.686 268.206 374.672 267.356C374.615 266.506 374.694 265.614 374.885 264.73C375.084 263.845 375.41 262.96 375.935 262.152C376.446 261.345 377.177 260.628 378.064 260.151C378.944 259.666 379.981 259.393 381.031 259.477C382.081 259.547 383.125 260.067 383.813 260.902C384.501 261.724 384.892 262.805 384.743 263.866C384.601 264.94 383.863 265.818 382.997 266.331C381.223 267.377 379.172 267.363 377.397 267.089C373.771 266.492 370.946 264.35 369.477 262.068C367.959 259.779 367.575 257.518 367.533 256.022C367.49 254.505 367.732 253.69 367.732 253.69C367.781 253.69 367.583 254.519 367.675 256.015C367.767 257.49 368.179 259.702 369.697 261.928C371.166 264.133 373.934 266.197 377.454 266.759C379.179 267.019 381.166 267.005 382.805 266.029C383.6 265.551 384.253 264.758 384.374 263.817C384.501 262.883 384.154 261.893 383.522 261.141C382.89 260.376 381.961 259.919 380.995 259.849C380.03 259.765 379.058 260.025 378.235 260.474C376.546 261.38 375.588 263.128 375.219 264.814C375.027 265.664 374.949 266.527 374.999 267.356C374.999 268.185 375.155 268.985 375.346 269.743C375.744 271.253 376.532 272.531 377.419 273.514C378.32 274.505 379.335 275.193 380.279 275.684C381.23 276.176 382.117 276.443 382.848 276.646C384.317 276.998 385.168 277.012 385.161 277.061V277.047Z" fill="#FAFAFA"/>
</svg>
