<svg width="187" height="128" viewBox="0 0 187 128" fill="none" xmlns="http://www.w3.org/2000/svg">
<path d="M53.3388 6.69204C53.7423 6.78305 53.7973 6.52657 54.1709 6.69204C54.5361 6.87405 55.4912 7.31095 55.8352 7.52192C56.1791 7.72462 56.3573 8.1367 56.6673 8.35181C56.9815 8.57105 57.1937 9.01209 57.4994 9.18169C57.4994 9.18169 57.5801 8.45522 57.4994 8.35181C57.4187 8.24839 56.6673 8.35181 56.6673 8.35181C56.6673 8.35181 57.389 8.27735 57.4994 8.35181C57.6098 8.42627 57.3593 9.07 57.4994 9.18169C57.7839 9.3968 58.3315 9.18169 58.3315 9.18169V9.18169C58.5736 9.34716 58.9089 9.00795 59.1636 9.18169C59.4184 9.3513 59.7367 9.84611 59.9958 10.0116C60.5266 10.3342 61.1971 10.5188 61.66 10.8415C62.1271 11.16 62.1779 11.3735 62.4921 11.6713C62.8021 11.9692 63.252 12.2613 63.3242 12.5012V12.5012C63.3242 12.5012 63.7529 12.8471 64.1563 13.3311C64.2583 13.4511 64.0629 13.2194 64.1563 13.3311C64.2455 13.4469 64.9163 14.0659 64.9885 14.161C65.1286 14.3471 64.9885 14.161 64.9885 14.161C64.9885 14.161 64.3517 13.6372 64.1563 13.3311C63.9483 13.0333 64.1563 12.5012 64.1563 12.5012C64.7169 12.9273 65.2515 13.5943 65.8206 14.161C66.0924 14.4547 66.3937 14.6889 66.6527 14.9909C66.7801 15.1398 66.5295 15.6718 66.6527 15.8208C66.7716 15.9738 67.3744 16.5017 67.4848 16.6506C67.7099 16.9444 67.2895 17.2199 67.4848 17.4805C67.6674 17.7494 68.1683 17.2654 68.3169 17.4805C68.6099 17.9107 69.0641 18.1863 69.149 18.3104V18.3104C69.493 18.6289 69.7603 18.7184 69.9812 19.1403V19.1403C71.149 20.8901 71.7344 22.0818 72.4775 23.2897C72.6601 23.5917 72.2992 23.7887 72.4775 24.1196C72.6474 24.4505 73.127 24.5689 73.3096 24.9495C73.5007 25.3259 73.9719 26.1501 74.1418 26.6093C74.2267 26.8409 74.0568 27.1827 74.1418 27.4391C74.2139 27.6998 74.0653 27.9836 74.1418 28.269C74.6131 29.4687 73.9974 27.5095 74.1418 27.4391C74.3583 27.737 74.838 27.7395 74.9739 28.269C75.0885 28.8068 74.9866 29.7385 74.9739 29.9288C75.1395 29.693 75.0078 28.6331 74.9739 28.269C74.9187 27.9133 75.4195 28.4122 75.806 29.0989C75.8909 30.2117 75.3686 28.0342 75.806 29.9288C75.806 29.9288 75.84 29.8461 75.806 29.9288C75.772 30.0115 75.8569 29.8212 75.806 29.9288C75.7083 30.1439 75.806 30.7587 75.806 30.7587C75.9716 31.2675 75.6871 31.481 75.806 31.5886C75.9206 31.7003 76.5277 31.5746 76.6381 32.4185C76.6806 33.3947 76.0183 32.828 75.806 32.4185C75.5937 32.0089 75.5852 31.7343 75.806 33.2483C75.8909 33.6248 76.464 33.6728 76.6381 34.0782C76.808 34.4836 76.4682 35.2499 76.6381 35.738C77.0033 36.7142 77.6698 38.361 77.4702 39.8874C77.5764 41.2111 77.2961 40.1067 77.4702 39.8874C77.5551 39.7799 78.2726 39.7013 78.3023 39.8874C78.3193 39.9784 78.3151 40.4691 78.3023 40.7173C78.2853 40.9655 78.3575 41.088 78.3023 41.5472C78.3023 41.5472 78.158 41.3047 78.3023 40.7173C78.417 40.1216 78.3023 39.0575 78.3023 39.0575C78.3745 39.3719 78.2344 39.6971 78.3023 39.8874C78.366 40.0736 78.4425 40.7364 78.3023 41.5472C78.1707 41.7995 78.4425 41.9634 78.3023 42.3771C78.1664 42.7907 78.3703 43.6066 78.3023 44.0368C78.7525 42.3284 78.2344 42.3796 78.3023 43.2069C78.3703 44.026 78.6291 44.8327 79.1345 43.2069C79.1345 43.2069 79.1812 43.7266 79.1345 44.0368C79.109 44.1899 79.1557 44.7509 79.1345 44.8667C79.109 44.9825 79.1345 44.8667 79.1345 44.8667C79.1854 44.7178 79.109 44.7757 79.1345 44.8667V46.5265C79.2873 46.0301 78.9603 45.45 79.1345 44.8667C79.2958 44.2834 79.8392 43.4329 79.9666 44.0368C79.9666 44.0368 80.0685 45.0885 79.9666 45.6966C79.8774 46.3047 79.1345 46.5265 79.1345 46.5265C79.5676 45.9391 79.6905 46.6175 79.9666 46.5265C79.9666 46.5265 80.6118 46.3626 80.7987 45.6966C80.8836 45.3615 80.7095 45.2928 80.7987 44.8667C80.8921 44.4406 80.6968 43.662 80.7987 43.2069C80.9091 42.7519 81.5544 41.9815 81.6308 41.5472C81.6987 41.117 81.5841 41.0648 81.6308 40.7173C81.7115 40.0182 81.6308 39.8874 81.6308 39.8874C81.4312 40.177 80.977 41.1227 80.7987 40.7173C80.7435 39.7286 81.5544 39.4464 81.6308 39.0575C81.6987 38.6687 80.9516 38.3244 80.7987 37.3978V38.2276C80.8921 38.0787 80.7605 37.8222 80.7987 38.2276C80.9728 38.8771 80.9601 39.0534 80.7987 39.0575C80.6331 38.7349 80.769 38.01 80.7987 37.3978C80.8327 36.7814 80.701 36.0234 80.7987 35.738C80.701 34.5425 80.9261 34.784 80.7987 34.9081C80.6628 35.0322 80.0473 35.1604 79.9666 34.9081C80.0642 34.5937 79.992 33.6992 79.9666 33.2483C79.9496 32.7933 80.077 32.919 79.9666 32.4185C79.7755 31.4132 79.1684 29.8435 79.1345 29.0989V30.7587C78.3531 29.104 78.5232 26.8218 78.3023 25.7794V26.6093C78.2089 26.3114 77.5764 26.0317 77.4702 25.7794C77.3513 25.5312 77.5934 25.1687 77.4702 24.9495C77.2239 24.5151 76.8674 24.4836 76.6381 24.1196C76.1922 23.3833 75.7932 22.6889 75.806 21.63V21.63C75.5342 21.1956 75.3221 20.5038 74.9739 19.9702C74.6341 19.4324 74.2819 18.7903 74.1418 18.3104C74.0271 18.3518 73.5602 18.6372 73.3096 18.3104C73.3563 17.6403 72.6009 16.9666 71.6454 15.8208C71.9129 16.2386 72.503 16.419 72.4775 16.6506C72.452 16.8782 72.2355 17.0255 72.4775 17.4805C72.0401 17.0917 71.8238 16.9319 71.6454 16.6506C71.467 16.3735 70.877 16.069 70.8133 15.8208C70.6859 15.3244 70.6224 14.8849 69.9812 14.161C69.0257 13.4536 70.8133 14.6517 70.8133 14.9909C70.4141 14.3704 69.6841 13.8358 69.149 13.3311C68.5758 12.8554 68.0496 12.9066 67.4848 12.5012C66.3637 11.6739 65.3749 10.9878 64.9885 10.0116C64.9885 10.0116 64.8781 9.9578 64.9885 10.0116C65.0989 10.0654 65.672 9.93712 65.8206 10.0116C66.1136 10.1605 66.6527 10.0116 66.6527 10.0116C65.918 9.06428 64.929 9.0245 64.9885 9.18169C65.3112 9.3968 65.7781 9.85852 65.8206 10.0116C64.2621 9.0891 62.7301 7.63107 61.66 6.69204C61.3925 6.45625 61.0954 6.10208 60.8279 5.86216C60.5476 5.63464 60.3058 6.08554 59.9958 5.86216C59.3843 5.39885 59.1723 4.57882 58.3315 4.20239C58.4887 4.49195 58.3867 4.88749 58.3315 5.03227C57.9366 4.88335 57.7075 4.39267 57.4994 4.20239C57.2871 4.01624 56.8669 4.41336 56.6673 4.20239C56.2724 3.78458 56.362 2.85287 55.0031 2.54262V3.3725C54.5529 3.26495 54.396 2.70395 54.1709 2.54262C53.9459 2.38542 54.0988 2.55089 54.1709 2.54262C54.0775 2.73291 53.0673 2.67913 52.5067 2.54262C51.9504 2.3937 51.6493 1.93198 50.8425 1.71273C50.4433 1.59691 49.5987 1.79133 49.1782 1.71273C48.7578 1.63414 48.7411 1.76237 48.3461 1.71273C47.5393 1.65068 46.3509 1.52658 45.8498 1.71273C45.2383 1.40662 44.6104 1.07314 43.3534 0.88285C43.0392 0.833209 42.8228 0.0819221 42.5213 0.0529654C42.2156 0.0281453 41.961 0.0653754 41.6892 0.0529654C41.1456 0.032282 40.3137 -0.0256315 40.025 0.0529654C39.1884 0.321849 39.5281 0.758749 40.025 0.88285C40.5218 1.00695 41.1671 1.49349 40.8571 1.71273C40.2201 1.68378 39.7619 0.973857 39.1928 0.88285C38.9083 0.84562 38.7174 0.874576 38.3607 0.88285C38.0083 0.88285 37.1721 0.812526 36.6965 0.88285C36.6583 0.651196 37.8596 1.12691 38.3607 0.88285C38.8618 0.671879 38.565 0.0529654 36.6965 0.0529654V0.0529654C37.0744 -0.00494812 37.8214 0.0281453 38.3607 0.0529654C39.4393 0.259799 37.7579 0.742203 37.5286 0.88285C37.5286 0.88285 37.0659 0.87044 36.6965 0.88285C36.3271 0.903533 35.5249 0.84562 35.0323 0.88285C34.786 0.903533 34.4295 0.85803 34.2001 0.88285C33.9708 0.911806 34.387 0.862166 34.2001 0.88285C33.8307 0.928353 33.368 0.88285 33.368 0.88285C33.1812 0.659469 33.6269 0.197749 34.2001 0.0529654C34.7734 -0.100092 35.7497 0.135699 35.8644 0.0529654C34.2932 0.263936 32.4811 1.18324 30.8717 1.71273C30.0733 2.01057 29.1355 2.26132 28.3753 2.54262C27.9931 2.67499 27.0805 2.43506 26.7111 2.54262C26.3459 2.66672 26.2357 3.28563 25.879 3.3725H26.7111C25.8066 3.57934 24.5799 3.16153 24.2147 3.3725C23.8495 3.58347 24.3761 4.03692 24.2147 4.20239C24.0534 4.37613 23.6714 4.88749 23.3826 5.03227C23.0981 5.18533 22.4573 4.8668 21.7184 5.03227C20.4402 5.87615 22.8652 5.55032 20.8863 6.69204C20.3342 7.02711 19.9905 6.80787 20.0542 6.69204C19.4257 7.01884 19.4556 7.34818 19.222 7.52192C18.997 7.70807 18.4834 7.41023 18.3899 7.52192C18.2965 7.63361 18.6107 7.38128 18.3899 7.52192C18.1691 7.66257 17.3117 8.04983 16.7257 8.35181H17.5578C16.2159 9.10468 14.7009 9.97276 13.3972 10.8415C12.0723 11.6771 10.8841 13.0855 10.0688 14.161C10.4977 14.3099 11.8517 12.7287 12.5651 12.5012C11.0194 13.5147 9.62753 14.9008 8.40453 16.6506C7.16879 18.3963 6.02303 20.2318 5.07606 21.63C5.1525 21.1129 4.52846 21.481 4.24394 21.63C4.09956 21.7044 4.2949 21.7375 4.24394 21.63C4.19723 21.5224 4.04436 21.3172 4.24394 20.8001C4.62188 20.6677 4.86373 20.3921 5.07606 19.9702C5.28839 19.5482 5.58544 18.7985 5.90818 18.3104C5.41983 18.571 4.64736 19.2214 4.24394 19.9702C4.03586 20.3425 4.43079 21.208 4.24394 21.63C4.06984 22.056 3.57319 22.0296 3.41183 22.4598C3.24196 22.8859 3.54347 23.7225 3.41183 24.1196C3.28443 24.5167 2.70711 24.6351 2.57971 24.9495C2.35464 25.5865 2.03636 25.7215 1.74759 25.7794L2.57971 26.6093C2.35889 27.085 1.6117 28.3616 1.74759 27.4391C1.74759 27.4391 0.99616 27.9215 0.915476 28.269C0.877257 28.4428 0.962187 28.0498 0.915476 28.269C0.877257 28.4883 0.957941 28.8673 0.915476 29.0989C0.834792 29.5664 0.974927 30.4071 0.915476 30.7587C0.87301 31.1103 0.915476 30.7587 0.915476 30.7587C0.987667 30.6056 0.826299 30.949 0.915476 30.7587C1.0089 30.5684 0.805066 30.1398 0.915476 29.9288C1.1278 29.5069 1.54801 29.5415 1.74759 29.0989C1.96417 28.6604 2.45656 27.8197 2.57971 27.4391C2.64341 27.2489 2.55423 26.7706 2.57971 26.6093C2.61368 26.4521 2.5967 26.7292 2.57971 26.6093C2.96614 26.179 2.63491 26.2163 2.57971 26.6093C2.52875 27.0064 3.04238 27.8114 3.41183 27.4391C2.73238 28.5147 2.52875 28.6894 2.57971 29.0989C2.63067 29.5126 2.91943 30.3765 2.57971 31.5886C2.39286 30.9681 2.05759 30.8605 1.74759 31.5886C1.42061 32.3125 1.05986 33.3228 0.915476 33.2483C0.915476 33.4634 0.970681 33.7762 0.915476 34.0782C0.864517 34.3802 0.987667 34.5772 0.915476 34.9081C0.843285 35.239 0.159796 35.4484 0.0833589 35.738C0.0154145 36.0276 0.14281 36.3859 0.0833589 36.5679C0.011168 37.3207 -0.061023 38.5389 0.0833589 39.8874C0.159796 40.5617 0.817806 41.6945 0.915476 42.3771C0.957941 42.7163 0.88575 42.8801 0.915476 43.2069C0.957941 43.5337 0.89849 43.7349 0.915476 44.0368C0.945201 43.1061 0.529042 41.4686 0.915476 41.5472C0.78808 42.722 1.27623 44.7219 1.74759 44.8667C1.77307 44.3455 1.76458 43.5296 1.74759 43.2069C1.73061 42.8843 1.7943 42.5591 1.74759 42.3771C1.66266 42.013 1.90896 41.6754 1.74759 41.5472C1.42486 41.2948 0.724382 41.7737 0.915476 39.8874C1.17027 39.42 1.63294 38.8316 1.74759 38.2276C1.81554 37.9257 1.69239 36.9402 1.74759 36.5679C1.80704 36.1956 1.65842 36.2054 1.74759 35.738C1.95992 36.615 2.25273 36.1997 2.57971 36.5679C2.29519 37.1181 1.79855 37.512 1.74759 38.2276C1.71362 38.5834 1.75184 39.5068 1.74759 39.8874C1.75609 40.268 1.71787 40.3202 1.74759 40.7173C1.76458 40.9159 1.73061 41.3486 1.74759 41.5472C1.77307 41.7457 1.72211 42.1744 1.74759 42.3771C1.7943 42.7783 2.533 42.8098 2.57971 43.2069C2.69861 44.0012 2.54998 44.9355 2.57971 45.6966C2.54998 46.3502 1.90471 46.2038 1.74759 46.5265C1.67116 46.6878 1.75184 47.0047 1.74759 47.3564C1.74759 47.708 1.5565 48.2964 1.74759 49.0161C1.74759 49.0161 1.96841 47.9645 1.74759 47.3564C1.63294 47.0544 1.00465 46.754 0.915476 46.5265C0.826299 46.299 0.915476 46.5265 0.915476 46.5265C1.37835 47.8709 1.85376 48.0497 1.74759 48.1863C1.64568 48.3186 1.46732 48.696 1.74759 49.846V48.1863C1.98115 48.8647 1.67116 49.4406 1.74759 49.846C1.84526 50.2431 1.7391 51.088 1.74759 51.5058C1.74759 51.5058 2.54998 51.0027 2.57971 50.6759C2.5967 50.5146 2.56697 49.966 2.57971 49.846C2.5882 49.7261 2.57971 49.846 2.57971 49.846C2.88546 50.5575 2.85573 52.2157 2.57971 52.3357C2.77505 52.4763 3.3269 52.3646 3.41183 52.3357C3.39059 52.5011 3.03813 53.1764 3.41183 53.9954C3.24621 53.4949 3.27594 52.4019 3.41183 52.3357C3.48402 52.5342 3.35662 53.0042 3.41183 53.1656C3.47977 53.3186 4.18449 53.8796 4.24394 53.9954C4.3586 54.2312 4.16751 53.8837 4.24394 53.9954C4.39682 54.2188 4.16751 54.0078 4.24394 53.9954C4.32038 53.983 4.98264 53.9251 5.07606 53.9954C5.16948 54.0699 4.85099 54.3579 5.07606 54.8253C5.04209 54.4778 5.51325 55.0223 5.90818 55.6552C5.70859 55.7421 5.83174 56.0714 5.90818 56.4851C5.98886 56.8946 5.67462 57.5988 5.90818 58.1449C6.34557 59.2576 7.44501 60.0388 7.57241 60.6345V60.6345C7.57241 60.6345 8.03508 61.6614 8.40453 62.2943C8.58288 62.6169 8.2559 62.8925 8.40453 63.1242C8.55316 63.3558 9.23664 63.1242 9.23664 63.1242C8.91391 62.6195 9.44027 63.3749 10.0688 63.954V63.954C10.7864 64.5497 10.0768 62.608 11.733 64.7839L12.5651 65.6138C12.4037 65.4111 12.425 65.5642 12.5651 65.6138C12.5651 65.6138 12.4802 65.5021 12.5651 65.6138C12.6543 65.7214 12.4505 66.2989 12.5651 66.4437C12.7987 66.7374 13.3972 67.2736 13.3972 67.2736C14.5141 67.7452 15.091 68.1308 15.8936 68.9334C16.6877 69.7359 17.9693 70.8687 19.222 71.423C18.8738 71.241 17.8126 70.8041 17.5578 70.5931C17.2988 70.3863 17.2775 69.7177 17.5578 69.7632C18.0462 69.9701 18.946 71.1003 19.222 71.423V71.423C19.222 71.423 19.1116 71.3361 19.222 71.423C19.3367 71.5057 19.8588 71.2824 20.0542 71.423C20.4491 71.696 20.3342 71.9137 20.8863 72.2529C21.4298 72.6004 22.1259 72.8511 22.5505 73.0828C22.9709 73.331 23.3826 73.9127 23.3826 73.9127C23.2552 73.6934 22.2237 73.4344 21.7184 73.0828C21.2088 72.7312 21.0772 72.0998 21.7184 72.2529C21.9307 72.2529 22.317 72.1453 22.5505 72.2529C22.7883 72.348 23.1321 72.938 23.3826 73.0828C23.6332 73.2276 23.9769 72.938 24.2147 73.0828C24.3082 73.1407 24.1256 73.8589 24.2147 73.9127C24.2912 73.9582 24.1426 73.8796 24.2147 73.9127C24.1638 73.9499 24.3252 73.9044 24.2147 73.9127C24.1595 73.9127 24.2657 73.9085 24.2147 73.9127C24.1893 73.9127 24.236 73.9085 24.2147 73.9127C24.1765 73.9127 24.2487 73.9168 24.2147 73.9127C24.0916 73.9085 24.1553 73.8423 24.2147 73.9127C24.2275 73.9292 24.185 73.8878 24.2147 73.9127C24.2402 73.9333 24.202 73.9002 24.2147 73.9127C24.2657 73.954 24.1171 73.8589 24.2147 73.9127C24.2954 73.8878 24.7878 73.9085 25.0469 73.9127C25.3017 73.9168 25.221 74.0657 25.0469 73.9127C25.3484 74.1112 25.5775 74.5605 25.879 74.7425C25.913 74.7467 25.8917 74.7219 25.879 74.7425V74.7425V74.7425V74.7425C25.7516 74.9246 25.17 75.4194 25.0469 75.5724C24.9237 75.7255 25.1615 76.2865 25.0469 76.4023C24.9874 76.4602 25.1021 76.3568 25.0469 76.4023C25.0171 76.423 25.0723 76.3816 25.0469 76.4023C25.0384 76.4023 25.0681 76.3775 25.0469 76.4023V76.4023C24.9874 76.6381 24.9407 76.5305 25.0469 76.4023C25.1743 76.2286 25.0002 76.4685 25.0469 76.4023V76.4023C25.3823 75.9928 25.6369 75.7809 25.879 74.7425C26.121 74.6639 25.9002 75.4028 25.879 75.5724C25.8577 75.742 26.0403 75.2746 25.879 75.5724C25.7983 75.7213 25.9682 76.2451 25.879 76.4023V76.4023H25.0469V77.2322C24.7963 77.6955 24.3804 77.6608 24.2147 78.0621C24.2147 78.0621 24.6349 77.8072 25.0469 77.2322C25.1488 77.0874 25.7813 76.5388 25.879 76.4023C25.9766 76.2699 25.8068 76.4975 25.879 76.4023C26.0191 76.2244 25.879 76.4023 25.879 76.4023C25.8408 76.6133 25.9469 76.9923 25.879 77.2322C25.7983 77.5011 25.9724 77.7891 25.879 78.0621C25.6879 78.6123 25.3059 79.1303 25.0469 79.7218C24.5458 80.876 24.0451 81.7962 23.3826 83.0414C22.7202 84.2824 21.6634 85.7843 20.8863 87.1908C20.1134 88.5931 19.9015 90.0289 19.222 91.3402C19.6042 91.1127 19.6677 90.7585 20.0542 90.5103C19.4596 90.9737 18.8061 91.0507 18.3899 91.3402C18.6872 90.6163 19.3369 90.2812 18.3899 91.3402C17.9695 92.0972 17.7616 92.6277 17.5578 93C18.4284 92.5201 18.5723 92.5714 19.222 92.1701C19.876 91.7647 20.3085 90.5161 21.7184 89.6805V90.5103C22.831 89.6292 24.0659 88.5957 25.0469 88.0207C26.0108 87.4581 26.9062 87.0642 27.5432 86.3609C27.2077 86.3899 26.431 86.802 25.879 87.1908C25.3354 87.5755 24.8091 87.7162 25.0469 87.1908L29.2074 84.7012C28.5577 84.8956 27.7133 85.6991 26.7111 86.3609C25.7174 87.0187 24.0706 87.636 23.3826 88.0207C22.8306 88.393 23.6669 88.2854 24.2147 88.0207C24.7541 87.7601 25.4758 87.5077 25.0469 88.0207C20.9957 90.5689 20.2877 90.2306 20.0542 89.6805C20.0924 89.395 21.1281 89.2932 21.7184 88.8506C22.3172 88.4038 23.1193 87.3604 23.3826 87.1908C23.6884 87.3811 24.4989 87.0973 25.879 86.3609C27.2506 85.6329 29.2877 85.0502 30.8717 83.8713C30.8674 83.8713 30.757 83.1655 30.8717 83.0414C30.9948 82.909 30.7061 83.2151 30.8717 83.0414C31.1987 82.6939 31.7038 82.2115 31.7038 82.2115C33.3642 81.6696 33.3589 82.2685 35.8644 80.5517L35.0323 81.3816C35.5206 80.9142 35.5884 80.7213 35.8644 80.5517C34.6201 81.0357 33.6825 80.9721 32.5359 81.3816C33.5891 79.851 36.9677 79.3031 39.1928 78.0621C39.0315 78.0538 37.8556 78.9044 37.5286 78.892C38.2038 78.4162 39.3031 77.6459 40.025 77.2322C40.7426 76.8268 41.048 76.7084 41.6892 76.4023C42.1988 76.4313 42.8651 76.3734 43.3534 76.4023C43.8758 76.4106 44.5208 76.394 45.0177 76.4023C46.0114 76.3816 46.6732 75.7089 47.514 75.5724C48.1085 75.2994 47.3826 75.5145 46.6819 75.5724C45.977 75.6303 45.578 75.8413 45.8498 75.5724C46.6354 75.5642 47.6752 75.7213 48.3461 75.5724C49.0128 75.4028 48.9192 74.5771 49.1782 74.7425C48.3757 74.333 53.0169 73.6976 50.0104 73.9127C51.3353 73.5073 52.8163 73.5585 54.1709 73.0828C55.5128 72.5781 56.1703 72.0311 57.4994 71.423C58.8243 70.8108 60.403 70.4996 61.66 69.7632L62.4921 68.9334V68.9334C62.7979 68.7431 63.0227 68.302 63.3242 68.1035C63.9187 67.6981 65.26 67.7079 65.8206 67.2736C65.4851 67.3108 64.895 66.6919 64.9885 66.4437C64.8101 66.5968 64.3602 67.1123 64.1563 67.2736C63.9483 67.4266 64.3772 67.1123 64.1563 67.2736C63.719 67.5962 62.9507 67.8346 62.4921 68.1035C62.0377 68.3806 61.2313 68.7555 60.8279 68.9334C60.624 69.0202 61.002 69.7012 60.8279 69.7632C60.6495 69.817 60.1359 69.7426 59.9958 69.7632C60.1062 69.6515 60.6962 69.0244 60.8279 68.9334C60.9595 68.8341 60.6835 69.0161 60.8279 68.9334C61.1209 68.7679 61.367 68.2234 61.66 68.1035C62.2333 67.847 63.2393 68.2813 63.3242 68.1035C63.0227 68.2276 62.0125 67.9215 61.66 68.1035C61.3033 68.2813 60.9256 69.0533 60.8279 68.9334C61.3969 68.3625 61.9783 67.5259 62.4921 67.2736C62.9932 67.0088 63.6935 66.7664 64.1563 66.4437V67.2736C65.6596 66.3428 66.1346 65.8207 66.6527 65.6138C66.9117 65.5104 67.1281 65.8827 67.4848 65.6138C67.6547 65.4732 67.2513 65.0156 67.4848 64.7839C67.7184 64.5523 68.0154 64.3222 68.3169 63.954C68.9582 62.6924 68.6864 63.4303 68.3169 63.1242C68.4995 62.9959 68.0536 63.4261 68.3169 63.1242C68.5717 62.8139 68.8645 61.8284 69.149 61.4644C69.4378 61.1004 69.7051 60.9324 69.9812 60.6345C70.2572 60.3325 70.5797 59.9205 70.8133 59.8046C70.8133 59.8046 71.1615 60.1878 70.8133 60.6345C70.6434 60.862 70.1086 61.2948 69.9812 61.4644C69.8538 61.634 69.9812 61.4644 69.9812 61.4644C70.2657 61.1872 70.5585 60.9199 70.8133 60.6345C71.0681 60.3491 71.4288 60.0859 71.6454 59.8046C71.8662 59.5275 71.4373 59.2188 71.6454 58.9747C71.845 58.7224 72.2907 59.1816 72.4775 58.9747C72.3289 59.0161 71.862 58.7141 71.6454 58.9747C72.0573 58.4908 72.9487 57.8486 73.3096 57.315C73.4922 57.0502 73.144 56.6961 73.3096 56.4851C73.471 56.2741 73.9931 56.5926 74.1418 56.4851V55.6552C74.0144 56.4246 72.9489 57.9959 72.4775 58.1449C72.2355 57.7436 72.902 56.557 73.3096 55.6552C72.2353 57.5415 71.5012 58.2301 70.8133 58.9747C70.4481 59.3346 70.3506 59.3579 69.9812 59.8046C69.5947 60.239 68.852 60.7281 68.3169 61.4644H69.149C68.5715 62.4531 67.5232 63.2384 66.6527 63.954C66.2196 64.3139 66.2537 64.4654 65.8206 64.7839C65.6083 64.9453 65.1881 65.4484 64.9885 65.6138C64.7846 65.771 64.3432 65.4525 64.1563 65.6138C64.5131 65.1753 64.4111 65.5104 64.1563 65.6138C62.6488 67.1775 61.0958 67.7792 59.1636 68.9334C58.1997 69.5166 57.7204 70.0636 56.6673 70.5931C55.6014 71.0937 54.5024 71.7772 53.3388 72.2529C53.3388 72.2529 52.9016 72.2405 52.5067 72.2529C52.1075 72.2529 51.6746 72.2529 51.6746 72.2529V73.0828C51.3901 73.1945 51.0208 73.029 50.8425 73.0828C50.6641 73.1283 50.108 73.0745 50.0104 73.0828C49.815 73.091 50.0443 73.1531 50.0104 73.0828C49.9467 72.9463 49.9256 72.8594 49.1782 73.0828C49.7515 72.9256 49.866 73.0249 50.0104 73.0828C49.3012 73.1738 48.6391 73.0042 48.3461 73.0828C48.0531 73.1614 47.6159 72.9959 47.514 73.0828C47.3102 73.2607 47.4802 73.8217 46.6819 73.9127C46.8857 73.9747 47.1955 73.9292 47.514 73.9127C47.8325 73.892 48.0531 73.9499 48.3461 73.9127C48.9322 73.8382 49.4628 73.5652 49.1782 73.9127C47.7939 74.045 46.4912 74.6557 45.0177 74.7425C44.2788 74.7632 43.0606 74.817 42.5213 74.7425C42.3005 74.7095 41.9652 74.7922 41.6892 74.7425C41.4004 74.6929 41.0269 73.9954 40.8571 73.9127C40.7382 73.9416 40.8995 73.9375 40.8571 73.9127C40.4706 74.1815 40.4241 74.4695 40.025 74.7425C39.7362 74.9411 39.4859 75.3697 39.1928 75.5724C38.6026 75.9695 38.1486 76.0093 37.5286 76.4023C36.2886 77.1841 34.6335 78.1515 33.368 78.892C32.0983 79.6283 31.2201 80.6991 30.0396 81.3816H29.2074C29.1395 81.423 29.2202 81.3775 29.2074 81.3816C29.148 81.4106 29.2669 81.3485 29.2074 81.3816C29.0928 81.4395 28.4815 81.3278 28.3753 81.3816C28.163 81.4892 28.5537 82.1122 28.3753 82.2115C28.112 82.5673 28.49 81.9881 28.3753 82.2115C28.2394 82.1412 27.764 82.0667 27.5432 82.2115C27.3224 82.3521 27.0084 82.7973 26.7111 83.0414C26.1293 83.5295 25.4416 84.4256 25.879 83.8713C25.3439 84.3635 24.6182 85.1215 24.2147 85.531C24.1893 85.4773 24.2615 85.5559 24.2147 85.531C24.7456 84.7244 24.7199 83.5998 25.0469 83.0414V83.8713V83.8713V83.0414V83.0414C25.548 82.1603 26.278 81.3253 26.7111 80.5517C26.8173 80.3614 26.6049 79.8956 26.7111 79.7218C26.7663 79.635 27.488 79.8046 27.5432 79.7218V79.7218C27.5432 79.7218 27.5262 79.7467 27.5432 79.7218V79.7218V79.7218C27.7683 79.3247 28.146 78.4344 28.3753 78.0621C28.4348 77.9628 28.3159 78.1572 28.3753 78.0621C28.4645 77.909 28.2862 77.3853 28.3753 77.2322C28.5579 76.9219 29.0291 76.7043 29.2074 76.4023C28.3581 77.8005 28.3371 77.6045 28.3753 77.2322C28.4178 76.8475 28.7533 76.6696 28.3753 77.2322C28.7405 76.8268 28.7446 76.3005 29.2074 75.5724C29.4368 75.2084 29.7933 74.3387 30.0396 73.9127C30.1627 73.6976 30.74 73.3103 30.8717 73.0828C30.9354 72.9711 30.808 73.1986 30.8717 73.0828V73.0828C30.9014 73.0249 30.8674 73.1324 30.8717 73.0828C30.2092 72.8098 29.144 71.7126 28.3753 71.423C27.6025 71.1334 27.5094 70.8951 26.7111 70.5931H25.879V70.5931C25.828 70.5724 25.9002 70.6055 25.879 70.5931H25.0469C24.826 70.4938 25.2634 70.6924 25.0469 70.5931C24.826 70.498 24.4313 69.8584 24.2147 69.7632C24.0024 69.6598 23.5907 69.8625 23.3826 69.7632C23.3189 69.908 23.1151 69.4861 23.3826 69.7632C23.3826 69.7632 22.9157 70.0404 22.5505 69.7632C22.3679 69.6309 21.85 69.0368 21.7184 68.9334C21.5868 68.8258 21.7184 68.9334 21.7184 68.9334V68.9334C20.2576 68.2136 19.528 67.4779 18.3899 66.4437C18.1054 66.1831 17.8253 65.8579 17.5578 65.6138C17.2988 65.3573 16.9762 65.0115 16.7257 64.7839C16.2204 64.3413 15.5158 64.2436 15.0615 63.954C15.9532 64.9013 15.9615 64.515 15.8936 64.7839C14.1652 63.2451 12.3447 62.0674 10.9009 59.8046C10.9476 59.9453 10.9476 59.7674 10.9009 59.8046C10.6631 59.544 11.092 59.3098 10.9009 58.9747C10.714 58.6314 10.2344 58.4634 10.0688 58.1449H9.23664C8.6209 56.9121 7.99706 55.6005 7.57241 53.9954C7.40255 53.9003 6.89741 53.5668 6.74029 53.1656C6.58742 52.7643 6.87618 52.0601 6.74029 51.5058C6.59591 50.9556 6.04407 50.4086 5.90818 49.846C5.83599 49.5647 5.99311 49.2726 5.90818 49.0161C5.82325 48.7597 5.99735 48.4014 5.90818 48.1863C5.79777 47.4747 5.61961 50.1222 5.07606 48.1863C5.25866 48.0622 5.09305 47.617 5.07606 47.3564C5.06757 47.0916 5.144 46.8326 5.07606 46.5265C4.92743 45.9143 4.65141 45.0198 5.07606 44.8667C5.07606 44.8667 5.24167 44.4422 5.07606 44.0368C4.93168 43.6232 5.07606 43.2069 5.07606 43.2069V43.2069C4.80853 42.876 5.11428 42.6873 5.07606 42.3771C5.03784 42.0668 5.02935 41.874 5.07606 41.5472C5.13551 41.2204 5.03359 40.2887 5.07606 39.8874C5.09729 39.6888 5.07606 40.1191 5.07606 39.8874C5.08031 39.6599 5.11003 39.3264 5.07606 39.0575C4.97839 39.1734 5.13976 39.1692 5.07606 39.0575C5.12702 38.7059 4.99538 37.7287 5.07606 37.3978C5.144 37.0668 4.98688 37.6071 5.07606 38.2276C5.0888 37.9422 5.04633 37.0643 5.07606 36.5679C5.10579 36.0715 5.04633 35.3549 5.07606 34.9081C5.10579 34.4613 5.10579 34.2189 5.07606 34.0782C5.05058 33.9376 5.25441 34.4862 5.07606 34.9081C5.2077 34.8585 5.14825 35.2705 5.07606 35.738C4.99962 36.2054 5.12702 36.2204 5.07606 36.5679C4.67264 36.4562 4.60065 34.5622 4.24394 34.0782C4.2949 34.0286 4.15901 34.2354 4.24394 34.0782V34.0782C4.33737 33.8135 4.16326 33.5131 4.24394 33.2483C4.32887 32.9836 5.00387 32.6832 5.07606 32.4185C5.144 32.1537 5.01236 31.8492 5.07606 31.5886C5.1525 31.3321 5.00387 31.0069 5.07606 30.7587C5.34359 29.7617 6.26044 28.9474 6.74029 28.269C6.65961 28.1491 6.46427 27.3084 6.74029 26.6093V26.6093C6.74029 26.6093 7.50022 26.812 7.57241 26.6093C7.6446 26.4066 7.46625 26.0483 7.57241 25.7794C7.68282 25.5146 7.49173 25.1481 7.57241 24.9495C7.64885 24.7509 7.57241 24.9495 7.57241 24.9495C7.57241 24.9495 7.67433 24.8833 7.57241 24.9495C7.47474 25.0198 7.70405 24.8585 7.57241 24.9495C7.30488 25.1356 6.74029 25.7794 6.74029 25.7794C6.84646 25.4774 7.44926 25.2225 7.57241 24.9495C7.7083 24.6806 7.42803 24.3637 7.57241 24.1196C7.72104 23.8755 8.25165 23.5131 8.40453 23.2897C8.56165 23.0705 8.24316 22.6667 8.40453 22.4598C8.74 22.0503 8.88843 22.0064 9.23664 21.63C9.58061 21.2494 10.5781 20.3797 10.9009 19.9702C10.7183 19.5441 10.9346 19.1874 11.733 18.3104C12.5144 17.4169 13.8684 15.8844 14.2293 14.9909C14.2293 14.9909 13.7157 15.5519 13.3972 15.8208C13.2359 15.9531 12.6755 16.5431 12.5651 16.6506C12.4505 16.7582 12.5651 16.6506 12.5651 16.6506C12.8539 16.3156 13.1552 16.0855 13.3972 15.8208C13.6435 15.556 14.034 15.2184 14.2293 14.9909C14.6413 14.5565 14.7302 13.7034 15.0615 13.3311C15.4054 12.9671 15.4689 12.8901 15.8936 12.5012C16.3267 12.1207 16.8656 12.1347 17.5578 11.6713C17.0482 12.1553 17.0569 12.1827 16.7257 12.5012C16.3945 12.8198 16.1908 13.0209 15.8936 13.3311C15.7492 13.4883 15.2186 13.9666 15.0615 14.161C14.9086 14.3554 15.2526 14.751 15.0615 14.9909C14.6708 15.4666 13.9493 15.815 13.3972 16.6506C14.599 15.0373 16.1989 13.5189 17.5578 12.5012C18.9167 11.4753 20.2661 11.174 21.7184 10.0116C21.4084 9.98262 20.2068 9.8146 20.8863 9.18169C21.7059 9.11137 24.4738 7.67339 24.2147 8.35181C24.6989 8.03328 24.8515 7.77012 25.0469 7.52192C25.2422 7.27372 25.5605 6.85751 25.879 6.69204C25.879 6.69204 25.518 6.78718 25.879 6.69204C26.0573 6.64654 26.486 6.74995 26.7111 6.69204C26.9404 6.6424 27.3012 6.74582 27.5432 6.69204C28.0316 6.5969 28.0059 5.9118 28.3753 5.86216C28.7405 5.80424 29.2074 5.86216 29.2074 5.86216V5.86216C29.9506 5.46503 30.9352 5.29288 31.7038 5.03227C32.0902 4.90817 32.1495 5.12741 32.5359 5.03227C32.7313 4.98677 33.1727 5.07777 33.368 5.03227C33.5634 4.9909 34.0048 4.23548 34.2001 4.20239C34.5951 4.14034 34.6416 4.25203 35.0323 4.20239C35.4272 4.16929 35.4737 4.22307 35.8644 4.20239H36.6965H37.5286H38.3607H40.025V4.20239H40.8571C41.2435 4.24375 41.2985 4.16102 41.6892 4.20239C42.0756 4.2603 42.9628 4.97436 43.3534 5.03227H44.1855V5.03227C44.5762 5.09846 45.4549 4.97436 45.8498 5.03227C46.2447 5.10673 46.2785 4.97436 46.6819 5.03227C46.8815 5.06123 47.3102 5.00331 47.514 5.03227C47.7178 5.06536 48.1381 5.82906 48.3461 5.86216V5.03227C48.3461 5.03227 47.9597 5.676 48.3461 5.86216C48.7283 6.0359 49.1782 5.86216 49.1782 5.86216C47.9977 5.27475 49.8448 6.04003 50.0104 5.86216C50.0104 5.86216 50.473 5.70082 50.8425 5.86216C51.2034 6.0359 52.0226 6.45625 52.5067 6.69204C52.9908 6.91956 52.9906 7.33991 53.3388 7.52192C53.687 7.71635 54.1709 7.52192 54.1709 7.52192C54.3493 7.35646 54.358 6.98574 53.3388 6.69204V6.69204ZM6.74029 26.6093L5.90818 27.4391C5.86571 27.6377 6.01434 28.0663 5.90818 28.269C5.90818 28.269 5.84872 28.418 5.90818 28.269C5.96763 28.1201 5.90818 27.4391 5.90818 27.4391C6.02283 26.9345 6.4218 26.6093 6.74029 26.6093V26.6093ZM38.3607 76.4023C38.9255 76.303 37.8216 76.1789 37.5286 76.4023L39.1928 75.5724C39.3287 75.3366 38.5943 76.2906 38.3607 76.4023V76.4023ZM3.41183 25.7794C3.41183 25.7794 3.43731 25.949 3.41183 25.7794C3.38635 25.6056 3.41183 24.9495 3.41183 24.9495L4.24394 24.1196C4.24394 24.1196 4.36285 24.6227 4.24394 24.9495C4.18449 25.1108 3.4458 25.6553 3.41183 25.7794C3.37361 25.9035 3.41183 25.7794 3.41183 25.7794V25.7794ZM11.733 12.5012C11.733 12.5012 11.8434 12.4061 11.733 12.5012C11.6226 12.5964 11.8816 13.2029 11.733 13.3311C11.4357 13.5876 10.9009 13.3311 10.9009 13.3311V13.3311C10.9009 13.3311 11.44 13.5876 11.733 13.3311C11.8816 13.2029 11.6226 12.5964 11.733 12.5012C11.8476 12.4102 11.733 12.5012 11.733 12.5012V12.5012V12.5012ZM27.5432 5.86216C27.4498 5.8787 26.8215 5.85388 26.7111 5.86216C26.8045 5.84147 27.4455 5.87043 27.5432 5.86216C28.1122 5.77115 28.0356 5.17705 28.3753 5.03227C28.7108 4.87921 29.5215 4.91231 30.0396 5.03227C29.5724 5.42526 28.7872 5.82492 28.3753 5.86216C27.9634 5.89939 27.8829 5.84561 27.5432 5.86216V5.86216ZM8.40453 21.63C8.12001 22.0271 7.71255 22.9629 7.57241 23.2897C7.86542 23.1491 8.68055 21.8145 8.40453 22.4598C8.29836 22.5426 8.54891 23.1118 8.40453 23.2897C8.26439 23.4676 7.71255 23.0953 7.57241 23.2897C7.29639 23.6827 6.89317 24.1692 6.74029 24.1196C7.21166 23.5405 7.43652 22.919 7.57241 22.4598C7.7083 22.0048 8.04357 21.5969 8.40453 21.63V21.63ZM7.57241 54.8253V53.9954V54.8253C7.67008 55.148 7.57241 55.6552 7.57241 55.6552C7.57241 55.6552 7.63186 55.0694 7.57241 54.8253C7.5257 54.5771 7.57241 54.8253 7.57241 54.8253V54.8253ZM10.9009 59.8046C11.0028 60.6568 12.5309 62.09 13.3972 63.1242C13.8941 63.1324 12.7479 61.8052 11.733 60.6345C11.2701 59.8444 11.0368 59.7509 10.9009 59.8046C10.765 59.8625 11.024 60.1728 10.9009 59.8046ZM15.0615 12.5012C15.0615 12.5012 14.3482 12.4888 14.2293 12.5012C14.1104 12.5178 14.2293 12.5012 14.2293 12.5012C14.2293 12.5012 14.1741 12.5674 14.2293 12.5012C14.2888 12.435 14.2293 12.5012 14.2293 12.5012C14.2293 12.5012 14.3398 12.4144 14.2293 12.5012C14.1189 12.5881 14.378 13.2153 14.2293 13.3311C13.9321 13.5586 13.3972 13.3311 13.3972 13.3311C13.6733 12.9216 13.9151 12.7867 14.2293 12.5012C14.5521 12.2282 14.743 11.8575 15.0615 11.6713C15.6857 11.2908 16.3138 11.1103 16.7257 10.8415C16.025 11.3255 14.2249 12.2365 15.0615 12.5012V12.5012ZM20.8863 68.9334C21.1411 69.165 21.3914 69.4944 21.7184 69.7632C21.884 69.8956 21.5528 70.4607 21.7184 70.5931C21.884 70.7214 22.3976 70.4773 22.5505 70.5931C23.162 71.0688 23.5482 71.3527 23.3826 71.423C23.5398 71.2079 22.9879 70.9654 22.5505 70.5931C22.3297 70.407 21.9435 69.9163 21.7184 69.7632C21.4976 69.6019 21.85 69.8377 21.7184 69.7632C21.3957 69.6102 21.2642 69.2353 20.8863 68.9334V68.9334ZM20.0542 69.7632C19.2643 69.1179 18.6829 68.513 18.3899 68.1035C18.2413 67.9049 18.5428 68.3269 18.3899 68.1035C18.3135 67.9918 17.6512 67.406 17.5578 67.2736C17.4686 67.1412 17.6682 67.4391 17.5578 67.2736C19.2564 68.2457 19.583 68.8217 19.222 68.9334C20.2582 69.8807 20.2196 69.4447 20.8863 69.7632C20.8863 69.7632 20.2113 69.7343 20.0542 69.7632C19.897 69.7881 20.0542 69.7632 20.0542 69.7632ZM19.222 67.2736H18.3899C17.9356 67.0957 17.889 67.3935 17.5578 67.2736C17.2308 67.1495 17.0272 66.2798 16.7257 65.6138C16.7257 65.6138 17.0312 66.121 17.5578 66.4437C17.8169 66.6092 18.1946 67.1495 18.3899 67.2736C18.5853 67.3977 18.3899 67.2736 18.3899 67.2736C18.5938 67.3522 18.963 67.0792 19.222 67.2736ZM26.7111 79.7218C26.7111 79.7218 27.454 79.7963 27.5432 79.7218C27.6749 79.5564 27.5432 79.7218 27.5432 79.7218C27.4965 79.8129 27.5814 79.6515 27.5432 79.7218C27.522 79.7591 27.5602 79.6888 27.5432 79.7218C27.522 79.7591 27.556 79.7053 27.5432 79.7218C27.5092 79.7674 26.7408 79.7053 26.7111 79.7218C26.6559 79.7591 26.7408 79.7549 26.7111 79.7218C26.7111 79.7136 26.7153 79.7136 26.7111 79.7218C26.8215 79.2668 26.6814 79.6846 26.7111 79.7218C26.7408 79.7549 26.6516 79.6598 26.7111 79.7218ZM22.5505 69.7632C22.5505 69.7632 22.2152 69.2353 21.7184 68.9334C21.4721 68.7844 21.0604 69.0575 20.8863 68.9334C20.7079 68.8134 20.0542 68.9334 20.0542 68.9334C20.0457 69.0699 20.4701 68.71 20.8863 68.9334C21.2982 69.1609 22.215 69.6102 22.5505 69.7632ZM26.7111 78.892C26.9192 78.4204 27.2375 77.9189 27.5432 77.2322C27.9551 76.3387 28.4645 75.3532 28.3753 75.5724C28.4178 75.6469 28.5027 76.0631 28.3753 76.4023C28.3116 76.5719 27.6324 77.0254 27.5432 77.2322C27.4583 77.4183 27.6366 77.8594 27.5432 78.0621C27.2417 78.695 26.9192 78.6396 26.7111 78.892ZM57.4994 71.423C57.4994 71.423 56.7947 71.361 56.6673 71.423C56.5399 71.4809 56.8414 71.3485 56.6673 71.423L55.8352 72.2529L56.6673 71.423C56.6673 71.423 56.4507 71.4189 56.6673 71.423C56.8881 71.423 57.4994 71.423 57.4994 71.423V71.423ZM40.025 76.4023H40.8571L41.6892 75.5724L40.025 76.4023V76.4023ZM26.7111 85.531C26.8258 85.3614 26.7536 84.7756 26.7111 84.7012C26.5497 84.7673 26.7196 84.7839 26.7111 84.7012C26.8682 84.6019 26.6729 84.6226 26.7111 84.7012C27.1442 84.5274 28.0483 84.2188 28.3753 83.8713C28.2097 83.7554 27.7343 83.8961 27.5432 83.8713C27.8447 83.5486 28.0611 84.0202 28.3753 83.8713C28.6896 83.7224 28.8847 83.1779 29.2074 83.0414C29.5259 82.909 29.9292 83.1862 30.0396 83.0414C30.1542 82.8925 29.492 82.4101 29.2074 82.2115C29.2584 82.1991 29.9589 82.2322 30.0396 82.2115C30.0735 82.2032 29.9759 82.2363 30.0396 82.2115C30.1033 82.1867 29.9716 82.2363 30.0396 82.2115C30.3071 82.1081 30.6126 81.4685 30.8717 81.3816C31.3898 81.2079 31.9628 81.0879 31.7038 81.3816C31.3301 81.5967 30.5152 81.9013 30.0396 82.2115C29.8315 82.3521 30.2604 82.8925 30.0396 83.0414C29.823 83.1903 29.424 82.8883 29.2074 83.0414C28.3369 83.6578 27.3141 85.0057 26.7111 85.531C26.6092 85.6758 26.138 85.3573 25.879 85.531C25.9894 85.4069 26.4945 85.7172 26.7111 85.531V85.531ZM26.7111 75.5724C26.9999 75.0471 27.4413 74.8584 27.5432 74.7425C27.8829 74.2586 28.214 73.8299 28.3753 73.9127C27.9634 74.5869 27.6281 74.7343 27.5432 74.7425C27.4625 74.7467 27.6791 74.5895 27.5432 74.7425C27.3351 75.0404 26.8597 75.287 26.7111 75.5724V75.5724ZM25.879 73.0828L27.5432 73.9127C27.5942 73.9168 27.5602 73.8796 27.5432 73.9127V73.9127V74.7425V73.9127V73.9127C27.5687 73.8754 27.5857 73.9209 27.5432 73.9127C27.4583 73.8341 27.6409 73.9995 27.5432 73.9127V73.9127V73.9127C27.5432 73.9127 27.5517 73.9044 27.5432 73.9127V73.9127V73.9127V74.7425H26.7111C26.469 75.0776 26.0998 75.287 25.879 75.5724C25.9554 75.2622 26.5625 75.0362 26.7111 74.7425C26.7833 74.5936 26.6219 74.8915 26.7111 74.7425C26.7578 74.6681 26.6644 74.817 26.7111 74.7425V73.9127C26.7238 73.8796 26.7578 73.9168 26.7111 73.9127C26.278 73.6479 25.845 73.2524 25.879 73.0828V73.0828ZM25.879 73.0828C25.879 73.0828 25.0596 73.0869 25.0469 73.0828C25.0469 73.0828 25.7983 72.9669 25.879 73.0828C25.9597 73.1986 25.879 73.9127 25.879 73.9127V73.0828V73.9127L25.0469 73.0828C24.9237 73.0249 25.204 73.1572 25.0469 73.0828C24.9662 73.0414 24.3124 73.1324 24.2147 73.0828C24.1213 73.0331 24.3124 73.1324 24.2147 73.0828C23.8283 72.8842 23.6714 72.4018 23.3826 72.2529C23.2382 72.1784 22.6312 72.3025 22.5505 72.2529C22.4698 72.2033 22.5505 72.2529 22.5505 72.2529C22.5505 72.2529 22.4698 72.2074 22.5505 72.2529C22.6312 72.2984 23.2425 72.1867 23.3826 72.2529C23.6671 72.3935 23.8411 72.8925 24.2147 73.0828C24.6097 73.2855 24.7921 72.9669 25.0469 73.0828C25.2932 73.1945 25.879 73.0828 25.879 73.0828V73.0828ZM3.41183 48.1863C2.71115 47.7147 2.41409 48.8491 2.57971 49.846C2.76231 50.8388 3.51799 51.9344 3.41183 52.3357C3.60717 52.3439 4.09956 52.468 4.24394 52.3357C4.39682 52.195 3.9384 51.4138 3.41183 49.846C4.03607 51.1449 4.2312 52.013 4.24394 52.3357C4.24819 52.497 4.14203 52.1743 4.24394 52.3357C4.34161 52.497 4.69387 52.8677 5.07606 53.1656C4.99962 53.0125 5.144 52.497 5.07606 52.3357C5.01236 52.1702 4.29915 52.5011 4.24394 52.3357C4.12929 52.0047 4.32887 51.7995 4.24394 51.5058C4.09531 50.9101 4.26942 49.966 4.24394 49.846C4.24394 49.846 4.10805 50.2995 4.24394 50.6759C4.31189 50.8621 4.18024 51.3693 4.24394 51.5058C4.30339 51.6423 5.07606 51.5058 5.07606 51.5058C5.21195 50.9763 4.58366 50.4086 4.24394 49.846C4.15901 49.7054 4.32887 49.9908 4.24394 49.846C4.16326 49.7012 3.47977 49.1609 3.41183 49.0161C3.27169 48.7266 3.43731 48.4675 3.41183 48.1863V48.1863ZM2.57971 30.7587C2.57971 30.7587 2.52875 30.949 2.57971 30.7587C2.63067 30.5684 3.34813 30.1853 3.41183 29.9288C3.54347 29.4159 3.41183 29.0989 3.41183 29.0989C3.41183 29.0989 3.55196 29.4489 3.41183 29.9288C3.34388 30.1687 2.63067 30.5767 2.57971 30.7587C2.5245 30.9407 2.57971 30.7587 2.57971 30.7587V30.7587ZM41.6892 0.88285C41.651 0.820799 41.4302 0.9449 41.6892 0.88285C41.944 0.820799 42.1349 0.886986 42.5213 0.88285C43.2984 0.862166 44.7162 0.589145 45.0177 0.88285C43.5993 0.783569 42.0586 0.696699 41.6892 0.88285ZM62.4921 8.35181C62.4921 8.35181 62.6662 8.50073 62.4921 8.35181C62.318 8.20702 61.9063 7.70394 61.66 7.52192C61.1759 7.14962 60.8279 6.69204 60.8279 6.69204C61.1803 6.58035 61.9995 7.12894 62.4921 7.52192C62.972 7.93559 63.6595 8.88799 64.1563 9.18169C64.3007 9.64086 62.9168 8.41386 62.4921 8.35181ZM73.3096 19.9702V20.8001L74.1418 19.9702H73.3096V19.9702ZM73.3096 18.3104C73.7895 18.6 73.5899 17.7784 73.3096 17.4805C73.3096 17.4805 73.2502 17.3399 73.3096 17.4805C73.3691 17.6212 73.2459 18.116 73.3096 18.3104C73.4498 18.6869 73.3096 18.3104 73.3096 18.3104ZM79.1345 31.5886C79.1345 31.5886 79.1897 31.8409 79.1345 31.5886C79.0708 31.3404 79.1345 30.7587 79.1345 30.7587V31.5886C79.0495 31.8368 78.3023 31.5886 78.3023 31.5886H79.1345ZM78.3023 29.9288C78.5953 29.6227 79.1899 29.6605 78.3023 27.4391C77.9032 27.4557 78.1539 28.1424 77.4702 27.4391C77.6019 28.1962 78.1664 28.7349 78.3023 29.0989C78.2216 28.5818 77.2621 28.4759 77.4702 28.269C77.6571 28.6662 78.2089 28.7101 78.3023 29.0989C78.4043 29.4878 78.3023 29.6558 78.3023 29.9288C78.1919 30.0364 78.2938 30.4484 78.3023 30.7587C78.417 30.7297 78.2938 30.2515 78.3023 29.9288V29.9288ZM74.9739 22.4598C74.7955 22.2075 75.0885 21.7086 74.9739 21.63V21.63C75.2626 21.8368 74.9187 22.2158 74.9739 22.4598C75.1777 22.7329 75.5979 22.9381 75.806 23.2897C76.0056 23.3435 75.8697 22.8942 75.806 22.4598C75.7423 22.0255 75.8187 21.8616 75.806 21.63C75.9334 21.994 75.7041 22.0793 75.806 22.4598C75.9037 22.8404 76.3408 23.6935 76.6381 24.1196C76.6721 23.9624 76.9014 23.873 76.6381 23.2897V24.1196C76.7188 24.2768 76.5871 23.9955 76.6381 24.1196C76.6933 24.2396 76.6381 24.9495 76.6381 24.9495C76.7188 25.781 76.8759 25.2515 76.6381 24.9495C76.5192 24.7964 76.791 24.4092 76.6381 24.1196C76.4725 23.8342 75.9928 23.6165 75.806 23.2897C75.7211 23.2732 75.1607 23.5131 74.9739 23.2897C74.838 23.0953 75.0333 22.6915 74.9739 22.4598V22.4598ZM77.4702 33.2483V32.4185C77.5297 32.0213 78.2344 32.5674 78.3023 32.4185C78.3618 32.8528 78.3363 32.9712 78.3023 33.2483C78.2514 33.5296 77.6486 33.7241 77.4702 33.2483V33.2483ZM48.3461 2.54262C48.6009 2.55089 48.6859 2.71636 48.3461 2.54262C48.0064 2.3606 47.2509 1.77478 46.6819 1.71273H47.514C47.4928 1.98989 49.7641 2.45161 50.0104 2.54262C50.2864 3.0597 49.2719 2.45988 48.3461 2.54262V2.54262ZM5.07606 24.1196C4.89771 24.1568 5.25441 24.6599 5.07606 24.9495C4.90195 25.2391 4.37983 25.3823 4.24394 25.7794C3.95518 26.5695 3.56045 27.1537 3.41183 27.4391C3.45004 27.2571 3.34813 27.6625 3.41183 27.4391C3.47977 27.2158 4.17175 26.8533 4.24394 26.6093C4.39682 26.1253 4.04436 25.359 4.24394 24.9495C4.62613 24.118 4.94866 23.5446 5.07606 24.1196V24.1196ZM4.24394 29.0989C4.02312 29.8311 3.69634 30.0777 3.41183 29.9288C3.1995 30.2639 3.61991 30.4195 3.41183 30.7587C3.45429 30.0017 3.24621 30.1687 3.41183 29.9288C3.58169 29.6889 4.05285 29.4919 4.24394 29.0989C4.30339 28.9086 4.14203 28.5379 4.24394 28.269C4.17175 28.571 4.32463 28.9252 4.24394 29.0989V29.0989ZM22.5505 6.69204C22.5505 6.69204 23.0939 6.70031 23.3826 6.69204V6.69204C23.3826 6.69204 23.858 6.04417 24.2147 5.86216C24.3931 5.76701 24.911 5.92421 25.0469 5.86216C25.1828 5.8001 25.0469 5.86216 25.0469 5.86216C25.0469 5.86216 24.8475 5.65532 24.2147 5.86216C23.892 5.96144 22.7926 5.78769 22.5505 5.86216C22.4274 5.89939 22.6185 6.66722 22.5505 6.69204C22.4826 6.71686 22.5505 6.69204 22.5505 6.69204V6.69204ZM39.1928 2.54262C39.1249 2.41852 39.5366 2.57157 40.025 2.54262C40.5176 2.52193 41.4981 2.48057 41.6892 2.54262C41.6382 2.37715 41.303 2.58812 40.8571 2.54262C40.4112 2.49298 39.6897 2.55503 39.1928 2.54262C39.0655 2.5178 38.675 2.53021 38.3607 2.54262C38.5561 2.55503 38.9508 2.53848 39.1928 2.54262C39.5623 2.61294 39.1886 2.43093 39.1928 2.54262H38.3607L40.025 3.3725L39.1928 2.54262ZM65.8206 14.161C66.7548 14.7484 67.0602 14.4117 67.4848 14.9909C67.2258 14.9081 66.2622 14.7401 65.8206 14.161ZM30.8717 4.20239C32.6 3.57775 29.7464 3.83581 30.8717 3.3725L30.0396 4.20239C30.753 3.83422 30.6254 3.31045 30.8717 3.3725C31.118 3.43455 31.1772 3.5297 31.7038 3.3725C31.7038 3.3725 31.8822 4.14861 31.7038 4.20239C31.5254 4.25203 30.8717 4.20239 30.8717 4.20239C30.6339 4.43404 31.3343 4.23962 31.7038 4.20239C32.0775 4.16929 32.4425 4.09483 32.5359 4.20239C31.7333 4.47127 30.1922 4.45886 30.8717 4.20239V4.20239ZM67.4848 14.9909C68.1982 15.5452 68.2362 16.3652 68.3169 16.6506C68.3552 16.7954 68.2745 16.4976 68.3169 16.6506C68.3552 16.8078 68.1641 17.2654 68.3169 17.4805C67.7819 17.0131 67.5697 16.9526 67.4848 16.6506C67.3914 16.3569 67.901 15.508 67.4848 14.9909V14.9909ZM41.6892 4.20239V4.20239C41.6892 4.20239 41.5576 4.1817 41.6892 4.20239C41.8208 4.21893 42.3472 4.16516 42.5213 4.20239C42.8695 4.27685 43.3534 4.20239 43.3534 4.20239V4.20239H42.5213C42.1689 4.11965 41.6892 4.20239 41.6892 4.20239V4.20239Z" fill="#1A7474"/>
<path d="M6.80234 46.728C6.43095 46.5591 6.21259 46.2094 6.14725 45.6788C6.07155 45.1698 6.15801 44.6556 6.40661 44.136C6.5102 43.9195 6.64712 43.7445 6.81737 43.6111C7.00947 43.4876 7.23547 43.4322 7.49536 43.445C7.78746 43.446 8.07438 43.4579 8.35612 43.4806C8.67007 43.4916 8.98402 43.5026 9.29796 43.5136C9.31529 43.3106 9.35908 43.0801 9.42934 42.8221C9.49959 42.5641 9.6124 42.2727 9.76778 41.9479C9.88173 41.7098 10.1429 41.275 10.5514 40.6437C10.9922 40.0006 11.5278 39.2425 12.1583 38.3694C12.7889 37.4963 13.4562 36.5741 14.1604 35.6027C14.8968 34.6196 15.6067 33.664 16.2902 32.7359C17.0059 31.7961 17.6479 30.9546 18.2163 30.2114C19.4589 28.615 20.7009 27.2424 21.9422 26.0936C23.2054 24.9546 24.5201 24.2083 25.8865 23.8544C27.285 23.4888 28.8035 23.6787 30.442 24.424C31.6872 24.9904 32.7811 25.8175 33.7237 26.9053C34.6881 28.003 35.4236 29.2734 35.9302 30.7164C36.4689 32.1478 36.7173 33.6579 36.6753 35.2468C36.6333 36.8358 36.2393 38.4096 35.4935 39.9684C34.8513 41.3106 33.9234 42.4439 32.7098 43.368C31.5065 44.2706 30.1159 45.0088 28.5378 45.5827C26.9598 46.1566 25.2651 46.5852 23.4537 46.8684C21.6642 47.1616 19.8454 47.3492 17.9973 47.4312C16.1814 47.5015 14.4288 47.4951 12.7395 47.4121C11.0398 47.3507 9.49601 47.2416 8.10802 47.0847C7.93438 47.0585 7.72797 47.0173 7.4888 46.9612C7.24962 46.9051 7.0208 46.8274 6.80234 46.728ZM12.0596 43.6627C14.3332 43.7478 16.5624 43.7865 18.7474 43.7786C20.9543 43.7807 23.0169 43.6118 24.9352 43.2718C26.8639 42.9101 28.5546 42.2952 30.0074 41.4271C31.4602 40.559 32.5751 39.313 33.352 37.6893C33.756 36.845 33.953 35.9329 33.943 34.953C33.933 33.9731 33.7287 33.0102 33.3301 32.0644C32.9636 31.1069 32.4315 30.2453 31.7337 29.4798C31.0682 28.7026 30.2657 28.1003 29.3263 27.673C28.4743 27.2854 27.6061 27.1541 26.7217 27.2791C25.8695 27.3923 24.9493 27.87 23.9612 28.7122C22.973 29.5544 21.8535 30.8378 20.6028 32.5623C19.7813 33.6121 18.9022 34.7544 17.9656 35.9891C17.0394 37.2022 16.1391 38.3612 15.2646 39.466C14.4224 40.5591 13.7119 41.4881 13.1331 42.253C12.5647 42.9961 12.2386 43.4277 12.1546 43.5477C12.1338 43.591 12.1022 43.6293 12.0596 43.6627ZM37.5645 58.2298C37.1495 58.041 36.8506 57.7205 36.6679 57.2683C36.4956 56.7945 36.57 56.2221 36.8911 55.5509C37.119 55.0747 37.5005 54.4442 38.0356 53.6595C38.581 52.8531 39.2063 51.9908 39.9117 51.0727C40.617 50.1545 41.328 49.2522 42.0448 48.3656C42.7938 47.4673 43.491 46.6773 44.1365 45.9955C44.7819 45.3137 45.2961 44.8227 45.6792 44.5225C45.999 44.2989 46.2561 44.1785 46.4504 44.1615C46.6666 44.1544 46.8512 44.1856 47.0041 44.2552C47.31 44.3943 47.5255 44.611 47.6507 44.9052C47.7978 45.2094 47.7367 45.6429 47.4674 46.2058C47.312 46.5305 46.9875 47.0419 46.4939 47.74C46.0324 48.4264 45.4652 49.2229 44.7921 50.1293C44.1512 51.024 43.4729 51.9413 42.7572 52.8811C42.0737 53.8092 41.411 54.694 40.7689 55.5355C40.1269 56.377 39.6011 57.0868 39.1914 57.6649C38.9383 57.9716 38.6559 58.1726 38.3442 58.2681C38.0647 58.3519 37.8049 58.3391 37.5645 58.2298ZM49.3684 41.7323C48.8659 41.5038 48.4578 41.1336 48.1441 40.6218C47.8521 40.12 47.8668 39.5335 48.1879 38.8624C48.4572 38.2995 48.8058 37.9045 49.2337 37.6773C49.6834 37.4601 50.1302 37.3602 50.5741 37.3776C51.0502 37.3833 51.4303 37.4507 51.7143 37.5799C51.9983 37.709 52.284 37.9181 52.5714 38.207C52.891 38.4842 53.1041 38.8447 53.2109 39.2887C53.328 39.7111 53.2416 40.2253 52.9516 40.8315C52.7547 41.2429 52.4366 41.5463 51.9973 41.7419C51.5682 41.9158 51.1048 41.9949 50.6068 41.9793C50.1307 41.9736 49.7179 41.8913 49.3684 41.7323ZM48.6762 64.1146C47.8461 63.7369 47.3392 63.0451 47.1556 62.0389C47.0042 61.021 47.2237 59.8951 47.8142 58.6611C48.3632 57.5136 49.191 56.5062 50.2976 55.6388C51.4261 54.7813 52.7196 54.0516 54.178 53.4497C55.6365 52.8478 57.1409 52.3722 58.6912 52.0229C60.2519 51.652 61.7556 51.4002 63.2024 51.2675C64.671 51.1446 65.9739 51.1178 67.1113 51.187C68.2486 51.2562 69.1012 51.42 69.6692 51.6784C69.9751 51.8175 70.1952 51.9967 70.3297 52.2161C70.4745 52.4137 70.4744 52.6641 70.3294 52.9672C70.2362 53.1621 70.0717 53.3113 69.8359 53.4149C69.8577 53.4249 69.8796 53.4348 69.9014 53.4447C70.382 53.6634 70.4877 54.0541 70.2184 54.617C70.1251 54.8118 69.857 55.1776 69.4141 55.7142C68.9815 56.2292 68.4545 56.8858 67.8332 57.684C67.2119 58.4822 66.5658 59.3877 65.8949 60.4006C65.2345 61.3919 64.6401 62.4396 64.1118 63.5437C63.6664 64.4746 63.8041 65.1041 64.525 65.432C65.3333 65.7997 66.2406 65.9883 67.2469 65.9979C68.2531 66.0074 69.2738 65.9313 70.3088 65.7694C71.3543 65.5859 72.329 65.3835 73.2329 65.162C74.1473 64.9189 74.9219 64.7176 75.5568 64.5583C76.1916 64.3989 76.6074 64.3639 76.804 64.4534C76.9788 64.5329 77.1058 64.6566 77.1851 64.8244C77.2643 64.9923 77.247 65.1953 77.1331 65.4335C77.0295 65.6499 76.6246 65.9403 75.9183 66.3044C75.2121 66.6686 74.3276 67.0439 73.2648 67.4304C72.2021 67.8169 71.0623 68.142 69.8455 68.4057C68.6287 68.6694 67.447 68.8041 66.3004 68.8098C65.1539 68.8155 64.1546 68.6246 63.3026 68.237C62.6472 67.9389 62.1397 67.4708 61.78 66.8327C61.4525 66.1828 61.358 65.2963 61.4964 64.173C61.6567 63.0596 62.146 61.6478 62.9643 59.9375L63.3528 59.1256C61.4433 60.3923 59.5517 61.4826 57.678 62.3965C55.8261 63.3204 54.1141 63.952 52.5419 64.2913C50.9915 64.6405 49.703 64.5816 48.6762 64.1146ZM67.9279 53.7333C67.798 53.7269 67.614 53.7223 67.3759 53.7195C66.1535 53.717 64.8355 53.8029 63.4221 53.9772C62.0305 54.1614 60.6245 54.4313 59.2042 54.7869C57.8056 55.1525 56.4898 55.5953 55.2568 56.1152C54.0238 56.6352 52.9495 57.2405 52.0338 57.9311C51.1181 58.6218 50.4531 59.4001 50.0388 60.2661C49.9041 60.5475 49.8551 60.7889 49.8919 60.9901C49.9504 61.2013 50.1326 61.3764 50.4385 61.5156C50.8754 61.7143 51.5729 61.702 52.5309 61.4788C53.4993 61.2339 54.6161 60.8456 55.8813 60.314C57.1684 59.7922 58.5021 59.1731 59.8824 58.4565C61.2626 57.7399 62.6044 56.9927 63.9077 56.2147C65.2328 55.4467 66.4072 54.7155 67.431 54.0213C67.5909 53.9095 67.7565 53.8135 67.9279 53.7333ZM78.2597 78.1248C76.5775 77.3597 75.5148 76.2172 75.0715 74.6975C74.6604 73.1661 74.9262 71.4153 75.8688 69.4452C76.4489 68.2329 77.2912 66.8894 78.3958 65.4147C79.5326 63.9283 80.7982 62.3951 82.1926 60.8151C83.6193 59.2233 85.0792 57.673 86.5725 56.1643C88.0658 54.6556 89.4751 53.2668 90.8004 51.998C92.1579 50.7175 93.3147 49.662 94.2707 48.8315C94.8125 48.3662 95.3237 48.2429 95.8043 48.4615C96.4597 48.7596 96.5958 49.3092 96.2125 50.1102C96.0882 50.37 95.7143 50.8457 95.0907 51.5375C94.4671 52.2292 93.6739 53.081 92.7109 54.0928C91.7583 55.083 90.7108 56.1882 89.5684 57.4084C88.4259 58.6286 87.2519 59.8871 86.0461 61.184C84.8726 62.4691 83.7371 63.7583 82.6395 65.0516C81.5522 66.3232 80.5828 67.5431 79.7314 68.7111C78.8799 69.8791 78.2367 70.9177 77.8016 71.827C77.5219 72.4115 77.4521 72.9466 77.5922 73.4321C77.7646 73.9059 78.1238 74.267 78.6699 74.5154C79.6749 74.9725 80.773 75.2348 81.9644 75.3022C83.188 75.3579 84.4093 75.3072 85.6283 75.1499C86.8578 74.971 87.9946 74.7632 89.0389 74.5265C90.1154 74.2781 91.02 74.0832 91.7526 73.9419C92.4956 73.779 92.9763 73.7473 93.1947 73.8466C93.6753 74.0652 93.7913 74.4344 93.5427 74.9539C93.4599 75.1271 93.1297 75.3724 92.5523 75.6897C91.9852 75.9853 91.2566 76.3129 90.3663 76.6724C89.4761 77.032 88.4772 77.3684 87.3696 77.6818C86.2942 77.9835 85.1907 78.2328 84.059 78.4298C82.9595 78.6151 81.9009 78.6872 80.8832 78.646C79.877 78.6364 79.0025 78.4627 78.2597 78.1248ZM94.5054 84.3283C93.2165 83.742 92.4337 82.7928 92.1571 81.4808C91.8805 80.1687 92.1151 78.7332 92.8609 77.1745C93.1302 76.6116 93.4915 76.051 93.9449 75.4927C94.4304 74.9227 94.9285 74.4376 95.4393 74.0372C95.3589 73.8161 95.3371 73.5558 95.374 73.2563C95.4213 72.9351 95.5434 72.5688 95.7402 72.1575C96.3513 70.8801 97.1292 69.8104 98.0737 68.9484C99.0181 68.0863 100.037 67.4295 101.131 66.9781C102.235 66.505 103.328 66.2507 104.409 66.2152C105.512 66.1896 106.522 66.3855 107.44 66.8029C108.947 67.4885 109.911 68.5862 110.333 70.096C110.765 71.5841 110.457 73.4215 109.411 75.6081C108.862 76.7555 108.128 77.8451 107.209 78.8768C106.311 79.9185 105.304 80.8572 104.185 81.693C103.089 82.5388 101.952 83.2208 100.773 83.7389C99.6155 84.2671 98.4866 84.5971 97.386 84.7292C96.3176 84.8495 95.3574 84.7159 94.5054 84.3283ZM98.1303 73.9169C98.1786 74.1497 98.1353 74.4068 98.0007 74.6883C97.8453 75.013 97.6244 75.308 97.3379 75.5731C97.0733 75.8481 96.7408 76.2373 96.3404 76.7406C95.94 77.2438 95.4912 78.015 94.994 79.0542C94.4968 80.0934 94.6632 80.8018 95.4934 81.1794C96.4109 81.5968 97.4338 81.6271 98.5621 81.2704C99.7008 80.8921 100.85 80.2683 102.011 79.3991C103.172 78.5299 104.227 77.5204 105.176 76.3705C106.157 75.2089 106.928 74.0435 107.487 72.8744C107.85 72.1167 107.962 71.5217 107.823 71.0894C107.694 70.6355 107.258 70.2396 106.515 69.9017C105.751 69.5539 104.829 69.451 103.75 69.593C102.704 69.7233 101.7 70.0972 100.74 70.7147C99.7793 71.3323 99.0401 72.1823 98.5222 73.2648C98.4082 73.5029 98.2776 73.7203 98.1303 73.9169ZM107.014 100.062C105.332 99.2968 104.176 98.5729 103.544 97.8905C102.913 97.208 102.727 96.5961 102.986 96.0549C103.152 95.7085 103.396 95.4767 103.718 95.3596C104.062 95.2524 104.409 95.2783 104.758 95.4373C105.13 95.6063 105.639 95.9038 106.286 96.3301C106.923 96.778 107.58 97.1559 108.257 97.464C110.508 98.4875 112.669 98.6669 114.743 98.0021C116.817 97.3374 118.889 95.815 120.958 93.435C123.039 91.0333 125.23 87.7596 127.533 83.6139C126.246 84.6364 124.871 85.6191 123.409 86.5621C121.979 87.4934 120.536 88.2867 119.078 88.9418C117.653 89.5853 116.294 90.0082 115 90.2105C113.706 90.4128 112.578 90.2953 111.617 89.8581C110.7 89.4407 110.131 88.9054 109.912 88.252C109.714 87.6085 109.864 86.7672 110.361 85.7281C110.807 84.7971 111.54 83.9313 112.562 83.1306C113.594 82.3083 114.8 81.5655 116.182 80.9021C117.563 80.2388 119.006 79.6693 120.51 79.1937C122.025 78.6965 123.483 78.3183 124.884 78.0592C126.317 77.7884 127.596 77.6452 128.72 77.6296C129.845 77.614 130.691 77.7353 131.259 77.9937C131.827 78.2521 132.171 78.6457 132.29 79.1745C132.41 79.7033 132.211 80.5089 131.693 81.5914C130.481 84.1244 129.212 86.5527 127.888 88.8763C126.595 91.1881 125.217 93.2631 123.752 95.1012C122.288 96.9393 120.707 98.4083 119.01 99.5082C117.325 100.64 115.489 101.281 113.502 101.431C111.514 101.582 109.352 101.125 107.014 100.062ZM128.466 80.1631C127.042 80.359 125.544 80.6266 123.972 80.9659C122.4 81.3053 120.878 81.7335 119.407 82.2506C117.958 82.7776 116.679 83.4216 115.57 84.1826C114.461 84.9435 113.658 85.8436 113.161 86.8827C113.005 87.2075 113.135 87.4642 113.55 87.653C113.878 87.8021 114.445 87.7568 115.251 87.5173C116.089 87.266 117.071 86.8822 118.196 86.3657C119.331 85.8277 120.514 85.2188 121.743 84.5392C123.005 83.8478 124.218 83.1208 125.381 82.3581C126.543 81.5953 127.572 80.8637 128.466 80.1631ZM141.543 106.278C141.171 106.109 140.932 105.802 140.825 105.358C140.719 104.914 140.815 104.379 141.116 103.751C141.468 103.015 142.08 102.014 142.951 100.75C143.844 99.4951 145.058 97.8464 146.594 95.8035C145.341 96.9208 144.059 97.9325 142.748 98.8386C141.458 99.7546 140.234 100.423 139.075 100.845C137.915 101.267 136.92 101.289 136.09 100.911C135.282 100.543 134.711 99.9016 134.378 98.9856C134.067 98.0795 134.289 96.8363 135.045 95.2559C135.47 94.3682 136.023 93.4071 136.704 92.3726C137.396 91.3164 138.126 90.2909 138.895 89.296C139.663 88.3012 140.375 87.4255 141.029 86.6688C141.694 85.8905 142.224 85.3404 142.617 85.0185C142.936 84.7416 143.197 84.5839 143.402 84.5452C143.617 84.4849 143.856 84.5143 144.118 84.6336C144.424 84.7727 144.689 85.0516 144.915 85.4704C145.14 85.8892 145.107 86.4017 144.817 87.0079C144.745 87.1594 144.497 87.4819 144.075 87.9752C143.685 88.4568 143.189 89.0484 142.588 89.7501C142.018 90.44 141.407 91.19 140.753 91.9999C140.099 92.8098 139.479 93.6346 138.891 94.4743C138.325 95.324 137.86 96.1277 137.498 96.8854C137.301 97.2967 137.184 97.6522 137.147 97.9517C137.11 98.2513 137.267 98.4805 137.616 98.6395C137.922 98.7786 138.449 98.6495 139.198 98.252C139.969 97.8644 140.865 97.2969 141.888 96.5494C142.943 95.7903 144.06 94.9278 145.241 93.9621C146.443 93.0063 147.639 92.0081 148.828 90.9675C150.04 89.9369 151.165 88.9463 152.205 87.9959C152.566 87.6857 152.866 87.532 153.104 87.5348C153.352 87.516 153.597 87.5613 153.837 87.6706C154.23 87.8495 154.502 88.1708 154.653 88.6347C154.835 89.0868 154.808 89.5619 154.569 90.0598C154.414 90.3846 154.079 90.9176 153.565 91.659C153.072 92.4104 152.458 93.2776 151.721 94.2607C151.017 95.2321 150.249 96.2535 149.417 97.325C148.607 98.4064 147.802 99.477 147.003 100.537C146.213 101.575 145.482 102.521 144.807 103.374C144.155 104.237 143.623 104.931 143.213 105.456C142.845 105.947 142.526 106.224 142.257 106.286C141.999 106.38 141.761 106.377 141.543 106.278ZM172.062 102.169C171.73 102.861 171.185 103.444 170.427 103.916C169.68 104.367 168.8 104.732 167.789 105.01C166.789 105.266 165.727 105.456 164.605 105.578C163.482 105.7 162.391 105.757 161.331 105.749C160.27 105.741 159.323 105.693 158.488 105.603C157.909 106.368 157.465 107.075 157.154 107.724C156.957 108.136 156.915 108.473 157.029 108.735C157.143 108.998 157.407 109.224 157.822 109.413C158.74 109.83 159.79 110.11 160.972 110.252C162.154 110.394 163.405 110.449 164.724 110.416C166.043 110.384 167.334 110.299 168.596 110.161C169.859 110.024 171.019 109.879 172.076 109.728C173.155 109.586 174.045 109.476 174.746 109.4C175.448 109.324 175.886 109.325 176.061 109.405C176.323 109.524 176.478 109.7 176.526 109.933C176.607 110.154 176.595 110.373 176.492 110.589C176.409 110.763 175.975 110.974 175.191 111.223C174.428 111.483 173.438 111.744 172.222 112.008C171.015 112.25 169.689 112.464 168.244 112.65C166.798 112.836 165.329 112.959 163.838 113.019C162.368 113.088 160.988 113.054 159.698 112.915C158.429 112.786 157.358 112.523 156.484 112.125C155.348 111.609 154.666 110.784 154.436 109.652C154.207 108.519 154.516 107.065 155.366 105.29C155.936 104.099 156.663 102.967 157.549 101.894C158.457 100.831 159.448 99.8712 160.523 99.0155C161.629 98.1481 162.728 97.4354 163.82 96.8775C164.944 96.3078 166.007 95.9479 167.01 95.7978C168.023 95.626 168.89 95.7041 169.611 96.032C170.987 96.6581 171.888 97.5288 172.311 98.6443C172.735 99.7598 172.652 100.935 172.062 102.169ZM160.373 103.415C161.247 103.312 162.153 103.197 163.091 103.07C164.03 102.944 164.919 102.781 165.758 102.583C166.598 102.385 167.328 102.111 167.948 101.76C168.6 101.398 169.061 100.935 169.33 100.372C169.713 99.5713 169.468 98.9721 168.594 98.5746C168.048 98.3262 167.303 98.4092 166.36 98.8238C165.449 99.2266 164.462 99.845 163.398 100.679C162.334 101.513 161.325 102.425 160.373 103.415Z" fill="#1A7474"/>
</svg>
