<svg width="137" height="99" viewBox="0 0 137 99" fill="none" xmlns="http://www.w3.org/2000/svg">
<path d="M53.3388 6.69204C53.7423 6.78305 53.7973 6.52657 54.1709 6.69204C54.5361 6.87405 55.4912 7.31095 55.8352 7.52192C56.1791 7.72462 56.3573 8.1367 56.6673 8.35181C56.9815 8.57105 57.1937 9.01209 57.4994 9.18169C57.4994 9.18169 57.5801 8.45522 57.4994 8.35181C57.4187 8.24839 56.6673 8.35181 56.6673 8.35181C56.6673 8.35181 57.389 8.27735 57.4994 8.35181C57.6098 8.42627 57.3593 9.07 57.4994 9.18169C57.7839 9.3968 58.3315 9.18169 58.3315 9.18169C58.5736 9.34716 58.9089 9.00795 59.1636 9.18169C59.4184 9.3513 59.7367 9.84611 59.9958 10.0116C60.5266 10.3342 61.1971 10.5188 61.66 10.8415C62.1271 11.16 62.1779 11.3735 62.4921 11.6713C62.8021 11.9692 63.252 12.2613 63.3242 12.5012C63.3242 12.5012 63.7529 12.8471 64.1563 13.3311C64.0629 13.2194 64.2583 13.4511 64.1563 13.3311C64.2455 13.4469 64.9163 14.0659 64.9885 14.161C64.9885 14.161 65.1286 14.3471 64.9885 14.161C64.9885 14.161 64.3517 13.6372 64.1563 13.3311C63.9483 13.0333 64.1563 12.5012 64.1563 12.5012C64.7169 12.9273 65.2515 13.5943 65.8206 14.161C66.0924 14.4547 66.3937 14.6889 66.6527 14.9909C66.7801 15.1398 66.5295 15.6718 66.6527 15.8208C66.7716 15.9738 67.3744 16.5017 67.4848 16.6507C67.7099 16.9444 67.2895 17.2199 67.4848 17.4805C67.6674 17.7494 68.1683 17.2654 68.3169 17.4805C68.6099 17.9107 69.0641 18.1863 69.149 18.3104C69.493 18.6289 69.7603 18.7184 69.9812 19.1403C71.149 20.8901 71.7344 22.0818 72.4775 23.2897C72.6601 23.5917 72.2992 23.7887 72.4775 24.1196C72.6474 24.4505 73.127 24.5689 73.3096 24.9495C73.5007 25.3259 73.9719 26.1501 74.1417 26.6093C74.2267 26.8409 74.0568 27.1827 74.1417 27.4391C74.2139 27.6998 74.0653 27.9836 74.1417 28.269C74.6131 29.4687 73.9974 27.5095 74.1417 27.4391C74.3583 27.737 74.838 27.7395 74.9739 28.269C75.0885 28.8068 74.9866 29.7385 74.9739 29.9288C75.1395 29.693 75.0078 28.6331 74.9739 28.269C74.9187 27.9133 75.4195 28.4122 75.806 29.0989C75.8909 30.2117 75.3686 28.0342 75.806 29.9288C75.806 29.9288 75.84 29.8461 75.806 29.9288C75.772 30.0115 75.8569 29.8212 75.806 29.9288C75.7083 30.1439 75.806 30.7587 75.806 30.7587C75.9716 31.2675 75.6871 31.481 75.806 31.5886C75.9206 31.7003 76.5277 31.5746 76.6381 32.4184C76.6806 33.3947 76.0183 32.828 75.806 32.4184C75.5937 32.0089 75.5852 31.7343 75.806 33.2483C75.8909 33.6248 76.464 33.6728 76.6381 34.0782C76.808 34.4836 76.4682 35.2499 76.6381 35.738C77.0033 36.7142 77.6698 38.361 77.4702 39.8874C77.2961 40.1067 77.5764 41.2111 77.4702 39.8874C77.5551 39.7799 78.2726 39.7013 78.3023 39.8874C78.3193 39.9784 78.3151 40.4691 78.3023 40.7173C78.2853 40.9655 78.3575 41.088 78.3023 41.5472C78.3023 41.5472 78.158 41.3047 78.3023 40.7173C78.417 40.1216 78.3023 39.0575 78.3023 39.0575C78.3745 39.3719 78.2344 39.6971 78.3023 39.8874C78.366 40.0736 78.4425 40.7364 78.3023 41.5472C78.1707 41.7995 78.4425 41.9634 78.3023 42.3771C78.1664 42.7907 78.3703 43.6066 78.3023 44.0368C78.7525 42.3284 78.2344 42.3796 78.3023 43.2069C78.3703 44.026 78.6291 44.8327 79.1345 43.2069C79.1345 43.2069 79.1812 43.7266 79.1345 44.0368C79.109 44.1899 79.1557 44.7509 79.1345 44.8667C79.109 44.9825 79.1345 44.8667 79.1345 44.8667C79.109 44.7757 79.1854 44.7178 79.1345 44.8667V46.5265C79.2873 46.0301 78.9603 45.45 79.1345 44.8667C79.2958 44.2834 79.8392 43.4329 79.9666 44.0368C79.9666 44.0368 80.0685 45.0885 79.9666 45.6966C79.8774 46.3047 79.1345 46.5265 79.1345 46.5265C79.5676 45.9391 79.6905 46.6175 79.9666 46.5265C79.9666 46.5265 80.6118 46.3626 80.7987 45.6966C80.8836 45.3615 80.7095 45.2928 80.7987 44.8667C80.8921 44.4406 80.6968 43.662 80.7987 43.2069C80.9091 42.7519 81.5544 41.9815 81.6308 41.5472C81.6987 41.117 81.5841 41.0648 81.6308 40.7173C81.7115 40.0182 81.6308 39.8874 81.6308 39.8874C81.4312 40.177 80.977 41.1227 80.7987 40.7173C80.7435 39.7286 81.5544 39.4464 81.6308 39.0575C81.6987 38.6687 80.9516 38.3244 80.7987 37.3978V38.2276C80.7605 37.8222 80.8921 38.0787 80.7987 38.2276C80.9728 38.8771 80.9601 39.0534 80.7987 39.0575C80.6331 38.7349 80.769 38.01 80.7987 37.3978C80.8327 36.7814 80.701 36.0234 80.7987 35.738C80.701 34.5425 80.9261 34.784 80.7987 34.9081C80.6628 35.0322 80.0472 35.1604 79.9666 34.9081C80.0642 34.5937 79.9921 33.6992 79.9666 33.2483C79.9496 32.7933 80.077 32.919 79.9666 32.4184C79.7755 31.4132 79.1684 29.8435 79.1345 29.0989V30.7587C78.3531 29.104 78.5232 26.8218 78.3023 25.7794V26.6093C78.2089 26.3114 77.5764 26.0317 77.4702 25.7794C77.3513 25.5312 77.5934 25.1687 77.4702 24.9495C77.2239 24.5151 76.8674 24.4836 76.6381 24.1196C76.1922 23.3833 75.7932 22.6889 75.806 21.63C75.5342 21.1956 75.3221 20.5038 74.9739 19.9702C74.6341 19.4324 74.2819 18.7903 74.1417 18.3104C74.0271 18.3518 73.5602 18.6372 73.3096 18.3104C73.3563 17.6403 72.6009 16.9666 71.6454 15.8208C71.9129 16.2386 72.503 16.419 72.4775 16.6507C72.452 16.8782 72.2355 17.0255 72.4775 17.4805C72.0401 17.0917 71.8238 16.9319 71.6454 16.6507C71.467 16.3735 70.877 16.069 70.8133 15.8208C70.6859 15.3244 70.6224 14.8849 69.9812 14.161C69.0257 13.4536 70.8133 14.6517 70.8133 14.9909C70.4141 14.3704 69.6841 13.8358 69.149 13.3311C68.5758 12.8554 68.0496 12.9066 67.4848 12.5012C66.3637 11.6739 65.3749 10.9878 64.9885 10.0116C64.8781 9.9578 64.9885 10.0116 64.9885 10.0116C65.0989 10.0654 65.672 9.93712 65.8206 10.0116C66.1136 10.1605 66.6527 10.0116 66.6527 10.0116C65.9181 9.06428 64.929 9.0245 64.9885 9.18169C65.3112 9.3968 65.7781 9.85852 65.8206 10.0116C64.2621 9.0891 62.7301 7.63107 61.66 6.69204C61.3925 6.45625 61.0954 6.10208 60.8279 5.86215C60.5476 5.63464 60.3058 6.08554 59.9958 5.86215C59.3843 5.39885 59.1723 4.57882 58.3315 4.20239C58.4887 4.49195 58.3867 4.88749 58.3315 5.03227C57.9366 4.88335 57.7075 4.39267 57.4994 4.20239C57.2871 4.01624 56.8669 4.41336 56.6673 4.20239C56.2724 3.78458 56.362 2.85287 55.0031 2.54262V3.3725C54.5529 3.26495 54.396 2.70395 54.1709 2.54262C53.9459 2.38542 54.0988 2.55089 54.1709 2.54262C54.0775 2.73291 53.0673 2.67913 52.5067 2.54262C51.9504 2.3937 51.6493 1.93198 50.8425 1.71273C50.4433 1.59691 49.5987 1.79133 49.1782 1.71273C48.7578 1.63414 48.7411 1.76237 48.3461 1.71273C47.5393 1.65068 46.3509 1.52658 45.8498 1.71273C45.2383 1.40662 44.6104 1.07314 43.3534 0.88285C43.0392 0.833209 42.8228 0.0819221 42.5213 0.0529654C42.2156 0.0281453 41.961 0.0653754 41.6892 0.0529654C41.1456 0.032282 40.3137 -0.0256315 40.025 0.0529654C39.1884 0.321849 39.5281 0.758749 40.025 0.88285C40.5218 1.00695 41.1671 1.49349 40.8571 1.71273C40.2201 1.68378 39.7619 0.973857 39.1928 0.88285C38.9083 0.845619 38.7174 0.874576 38.3607 0.88285C38.0083 0.88285 37.1721 0.812526 36.6965 0.88285C36.6583 0.651196 37.8596 1.12691 38.3607 0.88285C38.8618 0.671879 38.565 0.0529654 36.6965 0.0529654C37.0744 -0.00494812 37.8214 0.0281453 38.3607 0.0529654C39.4394 0.259799 37.7579 0.742203 37.5286 0.88285C37.5286 0.88285 37.0659 0.87044 36.6965 0.88285C36.327 0.903533 35.5249 0.845619 35.0323 0.88285C34.786 0.903533 34.4295 0.85803 34.2001 0.88285C33.9708 0.911806 34.387 0.862166 34.2001 0.88285C33.8307 0.928353 33.368 0.88285 33.368 0.88285C33.1812 0.659469 33.6269 0.197749 34.2001 0.0529654C34.7734 -0.100092 35.7497 0.135699 35.8644 0.0529654C34.2932 0.263936 32.4811 1.18324 30.8717 1.71273C30.0733 2.01057 29.1355 2.26132 28.3753 2.54262C27.9931 2.67499 27.0805 2.43506 26.7111 2.54262C26.3459 2.66672 26.2357 3.28563 25.879 3.3725H26.7111C25.8066 3.57934 24.5799 3.16153 24.2147 3.3725C23.8495 3.58347 24.3761 4.03692 24.2147 4.20239C24.0534 4.37613 23.6714 4.88749 23.3826 5.03227C23.0981 5.18533 22.4573 4.8668 21.7184 5.03227C20.4402 5.87615 22.8652 5.55032 20.8863 6.69204C20.3342 7.02711 19.9905 6.80787 20.0542 6.69204C19.4257 7.01884 19.4556 7.34818 19.222 7.52192C18.997 7.70807 18.4834 7.41023 18.3899 7.52192C18.2965 7.63361 18.6107 7.38128 18.3899 7.52192C18.1691 7.66257 17.3117 8.04983 16.7257 8.35181H17.5578C16.2159 9.10468 14.7009 9.97276 13.3972 10.8415C12.0723 11.6771 10.8841 13.0855 10.0688 14.161C10.4977 14.3099 11.8517 12.7287 12.5651 12.5012C11.0194 13.5147 9.62753 14.9008 8.40453 16.6507C7.16879 18.3963 6.02304 20.2318 5.07606 21.63C5.1525 21.1129 4.52846 21.481 4.24394 21.63C4.09956 21.7044 4.2949 21.7375 4.24394 21.63C4.19723 21.5224 4.04436 21.3172 4.24394 20.8001C4.62188 20.6677 4.86373 20.3921 5.07606 19.9702C5.28839 19.5482 5.58544 18.7985 5.90818 18.3104C5.41983 18.571 4.64736 19.2214 4.24394 19.9702C4.03586 20.3425 4.43079 21.208 4.24394 21.63C4.06984 22.056 3.57319 22.0296 3.41183 22.4598C3.24196 22.8859 3.54347 23.7225 3.41183 24.1196C3.28443 24.5167 2.70711 24.6351 2.57971 24.9495C2.35464 25.5865 2.03636 25.7215 1.74759 25.7794L2.57971 26.6093C2.35889 27.085 1.6117 28.3616 1.74759 27.4391C1.74759 27.4391 0.99616 27.9215 0.915476 28.269C0.877257 28.4428 0.962187 28.0498 0.915476 28.269C0.877257 28.4883 0.957941 28.8673 0.915476 29.0989C0.834792 29.5664 0.974927 30.4071 0.915476 30.7587C0.87301 31.1103 0.915476 30.7587 0.915476 30.7587C0.826299 30.949 0.987667 30.6056 0.915476 30.7587C1.0089 30.5684 0.805066 30.1398 0.915476 29.9288C1.1278 29.5069 1.54801 29.5415 1.74759 29.0989C1.96417 28.6604 2.45656 27.8197 2.57971 27.4391C2.64341 27.2489 2.55423 26.7706 2.57971 26.6093C2.5967 26.7292 2.61368 26.4521 2.57971 26.6093C2.63491 26.2163 2.96614 26.179 2.57971 26.6093C2.52875 27.0064 3.04238 27.8114 3.41183 27.4391C2.73238 28.5147 2.52875 28.6894 2.57971 29.0989C2.63067 29.5126 2.91943 30.3765 2.57971 31.5886C2.39286 30.9681 2.05759 30.8605 1.74759 31.5886C1.42061 32.3125 1.05986 33.3228 0.915476 33.2483C0.915476 33.4634 0.970681 33.7762 0.915476 34.0782C0.864517 34.3802 0.987667 34.5772 0.915476 34.9081C0.843285 35.239 0.159796 35.4484 0.0833589 35.738C0.0154145 36.0276 0.14281 36.3859 0.0833589 36.5679C0.011168 37.3207 -0.061023 38.5389 0.0833589 39.8874C0.159796 40.5617 0.817806 41.6945 0.915476 42.3771C0.957941 42.7163 0.88575 42.8801 0.915476 43.2069C0.957941 43.5337 0.89849 43.7349 0.915476 44.0368C0.945201 43.1061 0.529042 41.4686 0.915476 41.5472C0.78808 42.722 1.27623 44.7219 1.74759 44.8667C1.77307 44.3455 1.76458 43.5296 1.74759 43.2069C1.73061 42.8843 1.7943 42.5591 1.74759 42.3771C1.66266 42.013 1.90896 41.6754 1.74759 41.5472C1.42486 41.2948 0.724382 41.7737 0.915476 39.8874C1.17027 39.42 1.63294 38.8316 1.74759 38.2276C1.81554 37.9257 1.69239 36.9402 1.74759 36.5679C1.80704 36.1956 1.65842 36.2054 1.74759 35.738C1.95992 36.615 2.25273 36.1997 2.57971 36.5679C2.29519 37.118 1.79855 37.512 1.74759 38.2276C1.71362 38.5834 1.75184 39.5068 1.74759 39.8874C1.75609 40.268 1.71787 40.3202 1.74759 40.7173C1.76458 40.9159 1.73061 41.3486 1.74759 41.5472C1.77307 41.7457 1.72211 42.1744 1.74759 42.3771C1.7943 42.7783 2.533 42.8098 2.57971 43.2069C2.69861 44.0012 2.54998 44.9355 2.57971 45.6966C2.54998 46.3502 1.90471 46.2038 1.74759 46.5265C1.67116 46.6878 1.75184 47.0047 1.74759 47.3564C1.74759 47.708 1.5565 48.2964 1.74759 49.0161C1.74759 49.0161 1.96841 47.9645 1.74759 47.3564C1.63294 47.0544 1.00465 46.754 0.915476 46.5265C0.826299 46.299 0.915476 46.5265 0.915476 46.5265C1.37835 47.8709 1.85376 48.0497 1.74759 48.1863C1.64568 48.3186 1.46732 48.696 1.74759 49.846V48.1863C1.98115 48.8647 1.67116 49.4406 1.74759 49.846C1.84526 50.2431 1.7391 51.088 1.74759 51.5058C1.74759 51.5058 2.54998 51.0027 2.57971 50.6759C2.5967 50.5146 2.56697 49.966 2.57971 49.846C2.57971 49.846 2.5882 49.7261 2.57971 49.846C2.88546 50.5575 2.85573 52.2157 2.57971 52.3357C2.77505 52.4763 3.3269 52.3646 3.41183 52.3357C3.39059 52.5011 3.03813 53.1764 3.41183 53.9954C3.24621 53.4949 3.27594 52.4019 3.41183 52.3357C3.48402 52.5342 3.35662 53.0042 3.41183 53.1656C3.47977 53.3186 4.18449 53.8796 4.24394 53.9954C4.16751 53.8837 4.3586 54.2312 4.24394 53.9954C4.16751 54.0078 4.39682 54.2188 4.24394 53.9954C4.32038 53.983 4.98264 53.9251 5.07606 53.9954C5.16948 54.0699 4.85099 54.3579 5.07606 54.8253C5.04209 54.4778 5.51325 55.0223 5.90818 55.6552C5.70859 55.7421 5.83174 56.0714 5.90818 56.4851C5.98886 56.8946 5.67462 57.5988 5.90818 58.1449C6.34557 59.2576 7.44501 60.0388 7.57241 60.6345C7.57241 60.6345 8.03508 61.6614 8.40453 62.2943C8.58288 62.6169 8.2559 62.8925 8.40453 63.1242C8.55315 63.3558 9.23664 63.1242 9.23664 63.1242C8.91391 62.6195 9.44027 63.3749 10.0688 63.954C10.7864 64.5497 10.0768 62.608 11.733 64.7839L12.5651 65.6138C12.4037 65.4111 12.425 65.5642 12.5651 65.6138C12.4802 65.5021 12.5651 65.6138 12.5651 65.6138C12.6543 65.7214 12.4505 66.2989 12.5651 66.4437C12.7987 66.7374 13.3972 67.2736 13.3972 67.2736C14.5141 67.7452 15.091 68.1308 15.8936 68.9334C16.6877 69.7359 17.9693 70.8687 19.222 71.423C18.8738 71.241 17.8126 70.8041 17.5578 70.5931C17.2988 70.3863 17.2775 69.7177 17.5578 69.7632C18.0462 69.9701 18.946 71.1003 19.222 71.423C19.1116 71.3361 19.222 71.423 19.222 71.423C19.3367 71.5057 19.8588 71.2824 20.0542 71.423C20.4491 71.696 20.3342 71.9137 20.8863 72.2529C21.4298 72.6004 22.1259 72.8511 22.5505 73.0828C22.9709 73.331 23.3826 73.9127 23.3826 73.9127C23.2552 73.6934 22.2237 73.4344 21.7184 73.0828C21.2088 72.7312 21.0772 72.0998 21.7184 72.2529C21.9307 72.2529 22.317 72.1453 22.5505 72.2529C22.7883 72.348 23.1321 72.938 23.3826 73.0828C23.6332 73.2276 23.9769 72.938 24.2147 73.0828C24.3082 73.1407 24.1256 73.8589 24.2147 73.9127C24.1426 73.8796 24.2912 73.9582 24.2147 73.9127C24.1638 73.9499 24.3252 73.9044 24.2147 73.9127C24.1595 73.9127 24.2657 73.9085 24.2147 73.9127C24.1893 73.9127 24.236 73.9085 24.2147 73.9127C24.1765 73.9127 24.2487 73.9168 24.2147 73.9127C24.0916 73.9085 24.1553 73.8423 24.2147 73.9127C24.185 73.8878 24.2275 73.9292 24.2147 73.9127C24.202 73.9003 24.2402 73.9333 24.2147 73.9127C24.1171 73.8589 24.2657 73.954 24.2147 73.9127C24.2954 73.8878 24.7878 73.9085 25.0469 73.9127C25.221 74.0657 25.3017 73.9168 25.0469 73.9127C25.3484 74.1112 25.5775 74.5605 25.879 74.7425C25.8917 74.7219 25.913 74.7467 25.879 74.7425C25.7516 74.9246 25.17 75.4194 25.0469 75.5724C24.9237 75.7255 25.1615 76.2865 25.0469 76.4023C24.9874 76.4602 25.1021 76.3568 25.0469 76.4023C25.0171 76.423 25.0723 76.3816 25.0469 76.4023C25.0384 76.4023 25.0681 76.3775 25.0469 76.4023C24.9407 76.5305 24.9874 76.6381 25.0469 76.4023C25.0002 76.4685 25.1743 76.2286 25.0469 76.4023C25.3823 75.9928 25.6369 75.7809 25.879 74.7425C26.121 74.6639 25.9002 75.4028 25.879 75.5724C25.8577 75.742 26.0403 75.2746 25.879 75.5724C25.7983 75.7214 25.9682 76.2451 25.879 76.4023H25.0469V77.2322C24.7963 77.6955 24.3804 77.6608 24.2147 78.0621C24.2147 78.0621 24.635 77.8072 25.0469 77.2322C25.1488 77.0874 25.7813 76.5388 25.879 76.4023C25.8068 76.4975 25.9767 76.2699 25.879 76.4023C25.879 76.4023 26.0191 76.2244 25.879 76.4023C25.8408 76.6133 25.9469 76.9923 25.879 77.2322C25.7983 77.5011 25.9724 77.7891 25.879 78.0621C25.6879 78.6123 25.3059 79.1303 25.0469 79.7218C24.5458 80.876 24.0451 81.7962 23.3826 83.0414C22.7202 84.2824 21.6634 85.7843 20.8863 87.1908C20.1134 88.5931 19.9015 90.0289 19.222 91.3402C19.6042 91.1127 19.6677 90.7585 20.0542 90.5103C19.4596 90.9737 18.8061 91.0507 18.3899 91.3402C18.6872 90.6163 19.3369 90.2812 18.3899 91.3402C17.9695 92.0972 17.7616 92.6277 17.5578 93C18.4284 92.5201 18.5723 92.5714 19.222 92.1701C19.876 91.7647 20.3085 90.5161 21.7184 89.6805V90.5103C22.831 89.6292 24.0659 88.5957 25.0469 88.0207C26.0108 87.4581 26.9062 87.0642 27.5432 86.3609C27.2077 86.3899 26.431 86.802 25.879 87.1908C25.3354 87.5755 24.8091 87.7162 25.0469 87.1908L29.2074 84.7012C28.5577 84.8956 27.7133 85.6991 26.7111 86.3609C25.7174 87.0187 24.0706 87.636 23.3826 88.0207C22.8306 88.393 23.6669 88.2854 24.2147 88.0207C24.7541 87.7601 25.4758 87.5077 25.0469 88.0207C20.9957 90.5689 20.2877 90.2306 20.0542 89.6805C20.0924 89.395 21.1281 89.2932 21.7184 88.8506C22.3172 88.4038 23.1193 87.3604 23.3826 87.1908C23.6884 87.3811 24.4989 87.0973 25.879 86.3609C27.2506 85.6329 29.2877 85.0502 30.8717 83.8713C30.8674 83.8713 30.757 83.1655 30.8717 83.0414C30.7061 83.2151 30.9948 82.909 30.8717 83.0414C31.1987 82.6939 31.7038 82.2115 31.7038 82.2115C33.3642 81.6696 33.3589 82.2685 35.8644 80.5517L35.0323 81.3816C35.5206 80.9142 35.5884 80.7213 35.8644 80.5517C34.6201 81.0357 33.6825 80.9721 32.5359 81.3816C33.5891 79.851 36.9677 79.3031 39.1928 78.0621C39.0315 78.0538 37.8556 78.9044 37.5286 78.892C38.2038 78.4162 39.3031 77.6459 40.025 77.2322C40.7426 76.8268 41.048 76.7084 41.6892 76.4023C42.1988 76.4313 42.8651 76.3734 43.3534 76.4023C43.8758 76.4106 44.5208 76.394 45.0177 76.4023C46.0114 76.3816 46.6732 75.7089 47.514 75.5724C48.1085 75.2994 47.3826 75.5145 46.6819 75.5724C45.977 75.6303 45.578 75.8413 45.8498 75.5724C46.6354 75.5642 47.6752 75.7214 48.3461 75.5724C49.0128 75.4028 48.9192 74.5771 49.1782 74.7425C48.3757 74.333 53.0169 73.6976 50.0104 73.9127C51.3353 73.5073 52.8163 73.5585 54.1709 73.0828C55.5128 72.5781 56.1702 72.0311 57.4994 71.423C58.8243 70.8108 60.403 70.4996 61.66 69.7632L62.4921 68.9334C62.7979 68.7431 63.0227 68.302 63.3242 68.1035C63.9187 67.6981 65.26 67.7079 65.8206 67.2736C65.4851 67.3108 64.895 66.6919 64.9885 66.4437C64.8101 66.5968 64.3602 67.1123 64.1563 67.2736C63.9483 67.4266 64.3772 67.1123 64.1563 67.2736C63.719 67.5962 62.9507 67.8346 62.4921 68.1035C62.0377 68.3806 61.2313 68.7555 60.8279 68.9334C60.6241 69.0202 61.002 69.7012 60.8279 69.7632C60.6495 69.817 60.1359 69.7426 59.9958 69.7632C60.1062 69.6516 60.6962 69.0244 60.8279 68.9334C60.6835 69.0161 60.9595 68.8341 60.8279 68.9334C61.1209 68.7679 61.367 68.2234 61.66 68.1035C62.2333 67.847 63.2393 68.2813 63.3242 68.1035C63.0227 68.2276 62.0125 67.9215 61.66 68.1035C61.3033 68.2813 60.9256 69.0533 60.8279 68.9334C61.3969 68.3625 61.9783 67.5259 62.4921 67.2736C62.9932 67.0088 63.6935 66.7664 64.1563 66.4437V67.2736C65.6596 66.3428 66.1346 65.8206 66.6527 65.6138C66.9117 65.5104 67.1281 65.8827 67.4848 65.6138C67.6547 65.4732 67.2513 65.0156 67.4848 64.7839C67.7184 64.5523 68.0154 64.3222 68.3169 63.954C68.9582 62.6924 68.6864 63.4303 68.3169 63.1242C68.0536 63.4261 68.4995 62.9959 68.3169 63.1242C68.5717 62.8139 68.8645 61.8284 69.149 61.4644C69.4378 61.1004 69.7051 60.9324 69.9812 60.6345C70.2572 60.3325 70.5797 59.9205 70.8133 59.8046C70.8133 59.8046 71.1615 60.1878 70.8133 60.6345C70.6434 60.862 70.1086 61.2948 69.9812 61.4644C69.8538 61.634 69.9812 61.4644 69.9812 61.4644C70.2657 61.1872 70.5585 60.9199 70.8133 60.6345C71.0681 60.3491 71.4288 60.0859 71.6454 59.8046C71.8662 59.5275 71.4373 59.2188 71.6454 58.9747C71.845 58.7224 72.2907 59.1816 72.4775 58.9747C72.3289 59.0161 71.862 58.7141 71.6454 58.9747C72.0573 58.4908 72.9487 57.8486 73.3096 57.315C73.4922 57.0502 73.144 56.6961 73.3096 56.4851C73.471 56.2741 73.9931 56.5926 74.1417 56.4851V55.6552C74.0144 56.4246 72.9489 57.9959 72.4775 58.1449C72.2355 57.7436 72.902 56.557 73.3096 55.6552C72.2353 57.5415 71.5012 58.2301 70.8133 58.9747C70.4481 59.3346 70.3506 59.3579 69.9812 59.8046C69.5947 60.239 68.852 60.7281 68.3169 61.4644H69.149C68.5715 62.4531 67.5232 63.2384 66.6527 63.954C66.2196 64.3139 66.2537 64.4654 65.8206 64.7839C65.6083 64.9453 65.188 65.4483 64.9885 65.6138C64.7846 65.771 64.3432 65.4525 64.1563 65.6138C64.4111 65.5104 64.5131 65.1753 64.1563 65.6138C62.6488 67.1775 61.0958 67.7792 59.1636 68.9334C58.1997 69.5166 57.7204 70.0636 56.6673 70.5931C55.6014 71.0937 54.5024 71.7772 53.3388 72.2529C53.3388 72.2529 52.9016 72.2405 52.5067 72.2529C52.1075 72.2529 51.6746 72.2529 51.6746 72.2529V73.0828C51.3901 73.1945 51.0208 73.029 50.8425 73.0828C50.6641 73.1283 50.108 73.0745 50.0104 73.0828C49.815 73.091 50.0443 73.1531 50.0104 73.0828C49.9467 72.9463 49.9256 72.8594 49.1782 73.0828C49.7515 72.9256 49.866 73.0249 50.0104 73.0828C49.3012 73.1738 48.6391 73.0042 48.3461 73.0828C48.0531 73.1614 47.6159 72.9959 47.514 73.0828C47.3102 73.2607 47.4802 73.8217 46.6819 73.9127C46.8857 73.9747 47.1955 73.9292 47.514 73.9127C47.8325 73.892 48.0531 73.9499 48.3461 73.9127C48.9322 73.8382 49.4628 73.5652 49.1782 73.9127C47.7939 74.045 46.4912 74.6557 45.0177 74.7425C44.2788 74.7632 43.0606 74.817 42.5213 74.7425C42.3005 74.7094 41.9652 74.7922 41.6892 74.7425C41.4004 74.6929 41.0269 73.9954 40.8571 73.9127C40.7382 73.9416 40.8995 73.9375 40.8571 73.9127C40.4706 74.1815 40.4241 74.4695 40.025 74.7425C39.7362 74.9411 39.4859 75.3697 39.1928 75.5724C38.6026 75.9696 38.1486 76.0093 37.5286 76.4023C36.2886 77.1841 34.6335 78.1515 33.368 78.892C32.0983 79.6283 31.2201 80.6991 30.0396 81.3816H29.2074C29.1395 81.423 29.2202 81.3775 29.2074 81.3816C29.148 81.4106 29.2669 81.3485 29.2074 81.3816C29.0928 81.4395 28.4815 81.3278 28.3753 81.3816C28.163 81.4892 28.5537 82.1122 28.3753 82.2115C28.112 82.5673 28.49 81.9881 28.3753 82.2115C28.2394 82.1412 27.764 82.0667 27.5432 82.2115C27.3224 82.3521 27.0084 82.7973 26.7111 83.0414C26.1293 83.5295 25.4416 84.4256 25.879 83.8713C25.3439 84.3635 24.6182 85.1215 24.2147 85.531C24.1893 85.4773 24.2615 85.5559 24.2147 85.531C24.7456 84.7244 24.7199 83.5998 25.0469 83.0414V83.8713V83.0414C25.548 82.1603 26.278 81.3253 26.7111 80.5517C26.8173 80.3614 26.6049 79.8956 26.7111 79.7218C26.7663 79.635 27.488 79.8046 27.5432 79.7218C27.5262 79.7467 27.5432 79.7218 27.5432 79.7218C27.7683 79.3247 28.146 78.4344 28.3753 78.0621C28.3159 78.1572 28.4348 77.9628 28.3753 78.0621C28.4645 77.909 28.2862 77.3853 28.3753 77.2322C28.5579 76.9219 29.0291 76.7043 29.2074 76.4023C28.3581 77.8005 28.3371 77.6045 28.3753 77.2322C28.4178 76.8475 28.7533 76.6696 28.3753 77.2322C28.7405 76.8268 28.7446 76.3005 29.2074 75.5724C29.4368 75.2084 29.7933 74.3387 30.0396 73.9127C30.1627 73.6976 30.74 73.3103 30.8717 73.0828C30.808 73.1986 30.9354 72.9711 30.8717 73.0828C30.8674 73.1324 30.9014 73.0249 30.8717 73.0828C30.2092 72.8098 29.144 71.7126 28.3753 71.423C27.6025 71.1334 27.5094 70.8951 26.7111 70.5931H25.879C25.828 70.5724 25.9002 70.6055 25.879 70.5931H25.0469C24.826 70.4938 25.2634 70.6924 25.0469 70.5931C24.826 70.498 24.4313 69.8584 24.2147 69.7632C24.0024 69.6598 23.5907 69.8625 23.3826 69.7632C23.1151 69.4861 23.3189 69.908 23.3826 69.7632C23.3826 69.7632 22.9157 70.0404 22.5505 69.7632C22.3679 69.6309 21.85 69.0368 21.7184 68.9334C21.5868 68.8258 21.7184 68.9334 21.7184 68.9334C20.2576 68.2136 19.528 67.4779 18.3899 66.4437C18.1054 66.1831 17.8253 65.8579 17.5578 65.6138C17.2988 65.3573 16.9762 65.0115 16.7257 64.7839C16.2204 64.3413 15.5158 64.2436 15.0615 63.954C15.9532 64.9014 15.9615 64.5151 15.8936 64.7839C14.1652 63.2451 12.3447 62.0674 10.9009 59.8046C10.9476 59.7674 10.9476 59.9453 10.9009 59.8046C10.6631 59.544 11.092 59.3098 10.9009 58.9747C10.714 58.6314 10.2344 58.4634 10.0688 58.1449H9.23664C8.6209 56.9121 7.99706 55.6005 7.57241 53.9954C7.40255 53.9003 6.89741 53.5668 6.74029 53.1656C6.58742 52.7643 6.87618 52.0601 6.74029 51.5058C6.59591 50.9556 6.04406 50.4086 5.90818 49.846C5.83599 49.5647 5.99311 49.2726 5.90818 49.0161C5.82325 48.7597 5.99735 48.4014 5.90818 48.1863C5.79777 47.4747 5.61962 50.1222 5.07606 48.1863C5.25866 48.0622 5.09305 47.617 5.07606 47.3564C5.06757 47.0916 5.144 46.8326 5.07606 46.5265C4.92743 45.9143 4.65141 45.0198 5.07606 44.8667C5.07606 44.8667 5.24167 44.4422 5.07606 44.0368C4.93168 43.6232 5.07606 43.2069 5.07606 43.2069C4.80853 42.876 5.11428 42.6873 5.07606 42.3771C5.03784 42.0668 5.02935 41.874 5.07606 41.5472C5.13551 41.2204 5.03359 40.2887 5.07606 39.8874C5.07606 40.1191 5.09729 39.6889 5.07606 39.8874C5.08031 39.6599 5.11003 39.3264 5.07606 39.0575C4.97839 39.1734 5.13976 39.1692 5.07606 39.0575C5.12702 38.7059 4.99538 37.7287 5.07606 37.3978C5.144 37.0668 4.98688 37.6071 5.07606 38.2276C5.0888 37.9422 5.04633 37.0643 5.07606 36.5679C5.10579 36.0715 5.04633 35.3549 5.07606 34.9081C5.10579 34.4613 5.10579 34.2189 5.07606 34.0782C5.05058 33.9376 5.25441 34.4862 5.07606 34.9081C5.2077 34.8585 5.14825 35.2705 5.07606 35.738C4.99962 36.2054 5.12702 36.2204 5.07606 36.5679C4.67264 36.4562 4.60065 34.5622 4.24394 34.0782C4.15901 34.2354 4.2949 34.0286 4.24394 34.0782C4.33737 33.8135 4.16326 33.5131 4.24394 33.2483C4.32887 32.9836 5.00387 32.6832 5.07606 32.4184C5.144 32.1537 5.01236 31.8492 5.07606 31.5886C5.1525 31.3321 5.00387 31.0069 5.07606 30.7587C5.34359 29.7617 6.26044 28.9474 6.74029 28.269C6.65961 28.1491 6.46427 27.3084 6.74029 26.6093C6.74029 26.6093 7.50022 26.812 7.57241 26.6093C7.6446 26.4066 7.46625 26.0483 7.57241 25.7794C7.68282 25.5146 7.49173 25.1481 7.57241 24.9495C7.57241 24.9495 7.64885 24.7509 7.57241 24.9495C7.57241 24.9495 7.67433 24.8833 7.57241 24.9495C7.47474 25.0198 7.70405 24.8585 7.57241 24.9495C7.30488 25.1356 6.74029 25.7794 6.74029 25.7794C6.84646 25.4774 7.44926 25.2225 7.57241 24.9495C7.7083 24.6806 7.42803 24.3637 7.57241 24.1196C7.72104 23.8755 8.25165 23.5131 8.40453 23.2897C8.56165 23.0705 8.24316 22.6667 8.40453 22.4598C8.74 22.0503 8.88843 22.0064 9.23664 21.63C9.58061 21.2494 10.5781 20.3797 10.9009 19.9702C10.7183 19.5441 10.9346 19.1874 11.733 18.3104C12.5144 17.4169 13.8684 15.8844 14.2293 14.9909C14.2293 14.9909 13.7157 15.5519 13.3972 15.8208C13.2359 15.9531 12.6755 16.5431 12.5651 16.6507C12.4505 16.7582 12.5651 16.6507 12.5651 16.6507C12.8539 16.3156 13.1552 16.0855 13.3972 15.8208C13.6435 15.556 14.034 15.2184 14.2293 14.9909C14.6413 14.5565 14.7302 13.7034 15.0615 13.3311C15.4054 12.9671 15.4689 12.8901 15.8936 12.5012C16.3267 12.1207 16.8656 12.1347 17.5578 11.6713C17.0482 12.1553 17.0569 12.1827 16.7257 12.5012C16.3945 12.8198 16.1908 13.0209 15.8936 13.3311C15.7492 13.4883 15.2186 13.9666 15.0615 14.161C14.9086 14.3554 15.2526 14.751 15.0615 14.9909C14.6708 15.4666 13.9493 15.815 13.3972 16.6507C14.599 15.0373 16.1989 13.5189 17.5578 12.5012C18.9167 11.4753 20.2661 11.174 21.7184 10.0116C21.4084 9.98262 20.2068 9.8146 20.8863 9.18169C21.7059 9.11137 24.4738 7.67339 24.2147 8.35181C24.6989 8.03328 24.8515 7.77012 25.0469 7.52192C25.2422 7.27372 25.5605 6.85751 25.879 6.69204C25.518 6.78718 25.879 6.69204 25.879 6.69204C26.0573 6.64654 26.486 6.74995 26.7111 6.69204C26.9404 6.6424 27.3012 6.74582 27.5432 6.69204C28.0316 6.5969 28.0059 5.9118 28.3753 5.86215C28.7405 5.80424 29.2074 5.86215 29.2074 5.86215C29.9506 5.46503 30.9352 5.29288 31.7038 5.03227C32.0902 4.90817 32.1495 5.12741 32.5359 5.03227C32.7313 4.98677 33.1727 5.07777 33.368 5.03227C33.5634 4.9909 34.0048 4.23548 34.2001 4.20239C34.5951 4.14034 34.6416 4.25203 35.0323 4.20239C35.4272 4.16929 35.4737 4.22307 35.8644 4.20239H36.6965H37.5286H38.3607H40.025H40.8571C41.2435 4.24375 41.2985 4.16102 41.6892 4.20239C42.0756 4.2603 42.9628 4.97436 43.3534 5.03227H44.1856C44.5762 5.09846 45.4549 4.97436 45.8498 5.03227C46.2447 5.10673 46.2785 4.97436 46.6819 5.03227C46.8815 5.06123 47.3102 5.00331 47.514 5.03227C47.7178 5.06536 48.1381 5.82906 48.3461 5.86215V5.03227C48.3461 5.03227 47.9597 5.676 48.3461 5.86215C48.7283 6.0359 49.1782 5.86215 49.1782 5.86215C47.9977 5.27475 49.8448 6.04003 50.0104 5.86215C50.0104 5.86215 50.473 5.70082 50.8425 5.86215C51.2034 6.0359 52.0226 6.45625 52.5067 6.69204C52.9908 6.91956 52.9906 7.33991 53.3388 7.52192C53.687 7.71635 54.1709 7.52192 54.1709 7.52192C54.3493 7.35646 54.358 6.98574 53.3388 6.69204ZM6.74029 26.6093L5.90818 27.4391C5.86571 27.6377 6.01434 28.0663 5.90818 28.269C5.84872 28.4179 5.90818 28.269 5.90818 28.269C5.96763 28.1201 5.90818 27.4391 5.90818 27.4391C6.02283 26.9345 6.4218 26.6093 6.74029 26.6093ZM38.3607 76.4023C38.9255 76.303 37.8216 76.1789 37.5286 76.4023L39.1928 75.5724C39.3287 75.3366 38.5943 76.2906 38.3607 76.4023ZM3.41183 25.7794C3.41183 25.7794 3.43731 25.949 3.41183 25.7794C3.38635 25.6056 3.41183 24.9495 3.41183 24.9495L4.24394 24.1196C4.24394 24.1196 4.36285 24.6227 4.24394 24.9495C4.18449 25.1108 3.4458 25.6553 3.41183 25.7794C3.41183 25.7794 3.37361 25.9035 3.41183 25.7794ZM11.733 12.5012C11.733 12.5012 11.8434 12.4061 11.733 12.5012C11.6226 12.5964 11.8816 13.2029 11.733 13.3311C11.4357 13.5876 10.9009 13.3311 10.9009 13.3311C10.9009 13.3311 11.44 13.5876 11.733 13.3311C11.8816 13.2029 11.6226 12.5964 11.733 12.5012C11.8476 12.4102 11.733 12.5012 11.733 12.5012ZM27.5432 5.86215C27.4498 5.8787 26.8215 5.85388 26.7111 5.86215C26.8045 5.84147 27.4455 5.87043 27.5432 5.86215C28.1122 5.77115 28.0356 5.17705 28.3753 5.03227C28.7108 4.87921 29.5215 4.91231 30.0396 5.03227C29.5724 5.42526 28.7872 5.82492 28.3753 5.86215C27.9634 5.89939 27.8829 5.84561 27.5432 5.86215ZM8.40453 21.63C8.12001 22.0271 7.71255 22.9629 7.57241 23.2897C7.86542 23.1491 8.68055 21.8145 8.40453 22.4598C8.29836 22.5426 8.54891 23.1118 8.40453 23.2897C8.26439 23.4676 7.71255 23.0953 7.57241 23.2897C7.29639 23.6827 6.89317 24.1692 6.74029 24.1196C7.21166 23.5405 7.43652 22.919 7.57241 22.4598C7.7083 22.0048 8.04357 21.5969 8.40453 21.63ZM7.57241 54.8253V53.9954V54.8253C7.67008 55.148 7.57241 55.6552 7.57241 55.6552C7.57241 55.6552 7.63186 55.0694 7.57241 54.8253C7.57241 54.8253 7.5257 54.5771 7.57241 54.8253ZM10.9009 59.8046C11.0028 60.6568 12.5309 62.09 13.3972 63.1242C13.8941 63.1324 12.7479 61.8052 11.733 60.6345C11.2701 59.8444 11.0368 59.7509 10.9009 59.8046C11.024 60.1728 10.765 59.8625 10.9009 59.8046ZM15.0615 12.5012C15.0615 12.5012 14.3482 12.4888 14.2293 12.5012C14.1104 12.5178 14.2293 12.5012 14.2293 12.5012C14.1741 12.5674 14.2293 12.5012 14.2293 12.5012C14.2293 12.5012 14.2888 12.435 14.2293 12.5012C14.2293 12.5012 14.3398 12.4144 14.2293 12.5012C14.1189 12.5881 14.378 13.2153 14.2293 13.3311C13.9321 13.5586 13.3972 13.3311 13.3972 13.3311C13.6733 12.9216 13.9151 12.7867 14.2293 12.5012C14.5521 12.2282 14.743 11.8575 15.0615 11.6713C15.6857 11.2908 16.3138 11.1103 16.7257 10.8415C16.025 11.3255 14.2249 12.2365 15.0615 12.5012ZM20.8863 68.9334C21.1411 69.165 21.3914 69.4944 21.7184 69.7632C21.884 69.8956 21.5528 70.4607 21.7184 70.5931C21.884 70.7214 22.3976 70.4773 22.5505 70.5931C23.162 71.0688 23.5482 71.3527 23.3826 71.423C23.5398 71.2079 22.9879 70.9654 22.5505 70.5931C22.3297 70.407 21.9435 69.9163 21.7184 69.7632C21.4976 69.6019 21.85 69.8377 21.7184 69.7632C21.3957 69.6102 21.2642 69.2353 20.8863 68.9334ZM20.0542 69.7632C19.2643 69.1179 18.6829 68.513 18.3899 68.1035C18.2413 67.9049 18.5428 68.3269 18.3899 68.1035C18.3135 67.9918 17.6512 67.406 17.5578 67.2736C17.4686 67.1412 17.6682 67.4391 17.5578 67.2736C19.2564 68.2457 19.583 68.8217 19.222 68.9334C20.2582 69.8807 20.2196 69.4447 20.8863 69.7632C20.8863 69.7632 20.2113 69.7343 20.0542 69.7632C20.0542 69.7632 19.897 69.7881 20.0542 69.7632ZM19.222 67.2736H18.3899C17.9356 67.0957 17.889 67.3935 17.5578 67.2736C17.2308 67.1495 17.0272 66.2798 16.7257 65.6138C16.7257 65.6138 17.0312 66.121 17.5578 66.4437C17.8169 66.6092 18.1946 67.1495 18.3899 67.2736C18.3899 67.2736 18.5853 67.3977 18.3899 67.2736C18.5938 67.3522 18.963 67.0792 19.222 67.2736ZM26.7111 79.7218C26.7111 79.7218 27.454 79.7963 27.5432 79.7218C27.5432 79.7218 27.6749 79.5564 27.5432 79.7218C27.4965 79.8129 27.5814 79.6515 27.5432 79.7218C27.522 79.7591 27.5602 79.6888 27.5432 79.7218C27.522 79.7591 27.556 79.7053 27.5432 79.7218C27.5092 79.7673 26.7408 79.7053 26.7111 79.7218C26.7408 79.7549 26.6559 79.7591 26.7111 79.7218C26.7153 79.7136 26.7111 79.7136 26.7111 79.7218C26.8215 79.2668 26.6814 79.6846 26.7111 79.7218C26.7408 79.7549 26.6516 79.6598 26.7111 79.7218ZM22.5505 69.7632C22.5505 69.7632 22.2152 69.2353 21.7184 68.9334C21.4721 68.7844 21.0604 69.0575 20.8863 68.9334C20.7079 68.8134 20.0542 68.9334 20.0542 68.9334C20.0457 69.0699 20.4701 68.71 20.8863 68.9334C21.2982 69.1609 22.215 69.6102 22.5505 69.7632ZM26.7111 78.892C26.9192 78.4204 27.2375 77.9189 27.5432 77.2322C27.9551 76.3387 28.4645 75.3532 28.3753 75.5724C28.4178 75.6469 28.5027 76.0631 28.3753 76.4023C28.3116 76.5719 27.6324 77.0254 27.5432 77.2322C27.4583 77.4184 27.6366 77.8594 27.5432 78.0621C27.2417 78.695 26.9192 78.6396 26.7111 78.892ZM57.4994 71.423C57.4994 71.423 56.7947 71.361 56.6673 71.423C56.5399 71.4809 56.8414 71.3485 56.6673 71.423L55.8352 72.2529L56.6673 71.423C56.4507 71.4189 56.6673 71.423 56.6673 71.423C56.8881 71.423 57.4994 71.423 57.4994 71.423ZM40.025 76.4023H40.8571L41.6892 75.5724L40.025 76.4023ZM26.7111 85.531C26.8258 85.3614 26.7536 84.7756 26.7111 84.7012C26.5497 84.7673 26.7196 84.7839 26.7111 84.7012C26.6729 84.6226 26.8682 84.6019 26.7111 84.7012C27.1442 84.5274 28.0483 84.2188 28.3753 83.8713C28.2097 83.7554 27.7343 83.8961 27.5432 83.8713C27.8447 83.5486 28.0611 84.0202 28.3753 83.8713C28.6896 83.7224 28.8847 83.1779 29.2074 83.0414C29.5259 82.909 29.9292 83.1862 30.0396 83.0414C30.1542 82.8925 29.492 82.4101 29.2074 82.2115C29.2584 82.1991 29.9589 82.2322 30.0396 82.2115C29.9759 82.2363 30.0735 82.2032 30.0396 82.2115C29.9716 82.2363 30.1033 82.1867 30.0396 82.2115C30.3071 82.1081 30.6126 81.4685 30.8717 81.3816C31.3898 81.2079 31.9628 81.0879 31.7038 81.3816C31.3301 81.5967 30.5152 81.9013 30.0396 82.2115C29.8315 82.3521 30.2604 82.8925 30.0396 83.0414C29.823 83.1903 29.424 82.8883 29.2074 83.0414C28.3369 83.6578 27.3141 85.0057 26.7111 85.531C26.6092 85.6758 26.138 85.3573 25.879 85.531C25.9894 85.4069 26.4945 85.7172 26.7111 85.531ZM26.7111 75.5724C26.9999 75.0471 27.4413 74.8584 27.5432 74.7425C27.8829 74.2586 28.214 73.8299 28.3753 73.9127C27.9634 74.5869 27.6281 74.7343 27.5432 74.7425C27.4625 74.7467 27.6791 74.5895 27.5432 74.7425C27.3351 75.0404 26.8597 75.287 26.7111 75.5724ZM25.879 73.0828L27.5432 73.9127C27.5602 73.8796 27.5942 73.9168 27.5432 73.9127V74.7425V73.9127C27.5687 73.8754 27.5857 73.9209 27.5432 73.9127C27.4583 73.8341 27.6409 73.9995 27.5432 73.9127C27.5432 73.9127 27.5517 73.9044 27.5432 73.9127V74.7425H26.7111C26.469 75.0776 26.0998 75.287 25.879 75.5724C25.9554 75.2622 26.5625 75.0362 26.7111 74.7425C26.6219 74.8915 26.7833 74.5936 26.7111 74.7425C26.6644 74.817 26.7578 74.6681 26.7111 74.7425V73.9127C26.7238 73.8796 26.7578 73.9168 26.7111 73.9127C26.278 73.6479 25.845 73.2524 25.879 73.0828ZM25.879 73.0828C25.879 73.0828 25.0596 73.0869 25.0469 73.0828C25.0469 73.0828 25.7983 72.9669 25.879 73.0828C25.9597 73.1986 25.879 73.9127 25.879 73.9127V73.0828V73.9127L25.0469 73.0828C24.9237 73.0249 25.204 73.1572 25.0469 73.0828C24.9662 73.0414 24.3124 73.1324 24.2147 73.0828C24.1213 73.0331 24.3124 73.1324 24.2147 73.0828C23.8283 72.8842 23.6714 72.4018 23.3826 72.2529C23.2382 72.1784 22.6312 72.3025 22.5505 72.2529C22.4698 72.2033 22.5505 72.2529 22.5505 72.2529C22.4698 72.2074 22.5505 72.2529 22.5505 72.2529C22.6312 72.2984 23.2425 72.1867 23.3826 72.2529C23.6671 72.3935 23.8411 72.8925 24.2147 73.0828C24.6097 73.2855 24.7921 72.9669 25.0469 73.0828C25.2932 73.1945 25.879 73.0828 25.879 73.0828ZM3.41183 48.1863C2.71115 47.7147 2.41409 48.8491 2.57971 49.846C2.76231 50.8388 3.51799 51.9344 3.41183 52.3357C3.60717 52.3439 4.09956 52.468 4.24394 52.3357C4.39682 52.195 3.9384 51.4138 3.41183 49.846C4.03607 51.1449 4.2312 52.013 4.24394 52.3357C4.14203 52.1743 4.24819 52.497 4.24394 52.3357C4.34161 52.497 4.69387 52.8677 5.07606 53.1656C4.99962 53.0125 5.144 52.497 5.07606 52.3357C5.01236 52.1702 4.29915 52.5011 4.24394 52.3357C4.12929 52.0047 4.32887 51.7995 4.24394 51.5058C4.09531 50.9101 4.26942 49.966 4.24394 49.846C4.24394 49.846 4.10805 50.2995 4.24394 50.6759C4.31189 50.8621 4.18024 51.3693 4.24394 51.5058C4.30339 51.6423 5.07606 51.5058 5.07606 51.5058C5.21195 50.9763 4.58366 50.4086 4.24394 49.846C4.15901 49.7054 4.32887 49.9908 4.24394 49.846C4.16326 49.7012 3.47977 49.1609 3.41183 49.0161C3.27169 48.7266 3.43731 48.4675 3.41183 48.1863ZM2.57971 30.7587C2.52875 30.949 2.57971 30.7587 2.57971 30.7587C2.63067 30.5684 3.34813 30.1853 3.41183 29.9288C3.54347 29.4158 3.41183 29.0989 3.41183 29.0989C3.41183 29.0989 3.55196 29.4489 3.41183 29.9288C3.34388 30.1687 2.63067 30.5767 2.57971 30.7587C2.57971 30.7587 2.5245 30.9407 2.57971 30.7587ZM41.6892 0.88285C41.4302 0.9449 41.651 0.820799 41.6892 0.88285C41.944 0.820799 42.1349 0.886986 42.5213 0.88285C43.2984 0.862166 44.7162 0.589145 45.0177 0.88285C43.5993 0.783569 42.0586 0.696699 41.6892 0.88285ZM62.4921 8.35181C62.4921 8.35181 62.6662 8.50073 62.4921 8.35181C62.318 8.20702 61.9063 7.70394 61.66 7.52192C61.1759 7.14962 60.8279 6.69204 60.8279 6.69204C61.1803 6.58035 61.9995 7.12894 62.4921 7.52192C62.972 7.93559 63.6595 8.88799 64.1563 9.18169C64.3007 9.64086 62.9168 8.41386 62.4921 8.35181ZM73.3096 19.9702V20.8001L74.1417 19.9702H73.3096ZM73.3096 18.3104C73.7895 18.6 73.5899 17.7784 73.3096 17.4805C73.2502 17.3399 73.3096 17.4805 73.3096 17.4805C73.3691 17.6212 73.2459 18.116 73.3096 18.3104C73.4498 18.6869 73.3096 18.3104 73.3096 18.3104ZM79.1345 31.5886C79.1345 31.5886 79.1897 31.8409 79.1345 31.5886C79.0708 31.3404 79.1345 30.7587 79.1345 30.7587V31.5886C79.0495 31.8368 78.3023 31.5886 78.3023 31.5886H79.1345ZM78.3023 29.9288C78.5953 29.6227 79.1899 29.6605 78.3023 27.4391C77.9032 27.4557 78.1539 28.1424 77.4702 27.4391C77.6019 28.1962 78.1664 28.7349 78.3023 29.0989C78.2216 28.5818 77.2621 28.4759 77.4702 28.269C77.6571 28.6662 78.2089 28.7101 78.3023 29.0989C78.4043 29.4878 78.3023 29.6558 78.3023 29.9288C78.1919 30.0364 78.2938 30.4484 78.3023 30.7587C78.417 30.7297 78.2938 30.2515 78.3023 29.9288ZM74.9739 22.4598C74.7955 22.2075 75.0885 21.7086 74.9739 21.63C75.2626 21.8368 74.9187 22.2158 74.9739 22.4598C75.1777 22.7329 75.5979 22.9381 75.806 23.2897C76.0056 23.3435 75.8697 22.8942 75.806 22.4598C75.7423 22.0255 75.8187 21.8616 75.806 21.63C75.9334 21.994 75.7041 22.0793 75.806 22.4598C75.9037 22.8404 76.3408 23.6935 76.6381 24.1196C76.6721 23.9624 76.9014 23.873 76.6381 23.2897V24.1196C76.5871 23.9955 76.7188 24.2768 76.6381 24.1196C76.6933 24.2396 76.6381 24.9495 76.6381 24.9495C76.7188 25.781 76.8759 25.2515 76.6381 24.9495C76.5192 24.7964 76.791 24.4092 76.6381 24.1196C76.4725 23.8342 75.9928 23.6165 75.806 23.2897C75.7211 23.2732 75.1607 23.5131 74.9739 23.2897C74.838 23.0953 75.0333 22.6915 74.9739 22.4598ZM77.4702 33.2483V32.4184C77.5297 32.0213 78.2344 32.5674 78.3023 32.4184C78.3618 32.8528 78.3363 32.9712 78.3023 33.2483C78.2514 33.5296 77.6486 33.7241 77.4702 33.2483ZM48.3461 2.54262C48.6009 2.55089 48.6859 2.71636 48.3461 2.54262C48.0064 2.3606 47.2509 1.77478 46.6819 1.71273H47.514C47.4928 1.98989 49.7641 2.45161 50.0104 2.54262C50.2864 3.0597 49.2719 2.45988 48.3461 2.54262ZM5.07606 24.1196C4.89771 24.1568 5.25441 24.6599 5.07606 24.9495C4.90195 25.2391 4.37983 25.3823 4.24394 25.7794C3.95518 26.5695 3.56045 27.1537 3.41183 27.4391C3.34813 27.6625 3.45004 27.2571 3.41183 27.4391C3.47977 27.2158 4.17175 26.8533 4.24394 26.6093C4.39682 26.1253 4.04436 25.359 4.24394 24.9495C4.62613 24.118 4.94866 23.5446 5.07606 24.1196ZM4.24394 29.0989C4.02312 29.8311 3.69634 30.0777 3.41183 29.9288C3.1995 30.2639 3.61991 30.4195 3.41183 30.7587C3.45429 30.0017 3.24621 30.1687 3.41183 29.9288C3.58169 29.6889 4.05285 29.4919 4.24394 29.0989C4.30339 28.9086 4.14203 28.5379 4.24394 28.269C4.17175 28.571 4.32463 28.9252 4.24394 29.0989ZM22.5505 6.69204C22.5505 6.69204 23.0939 6.70031 23.3826 6.69204C23.3826 6.69204 23.858 6.04417 24.2147 5.86215C24.3931 5.76701 24.911 5.92421 25.0469 5.86215C25.0469 5.86215 25.1828 5.80011 25.0469 5.86215C25.0469 5.86215 24.8475 5.65532 24.2147 5.86215C23.892 5.96144 22.7926 5.78769 22.5505 5.86215C22.4274 5.89939 22.6185 6.66722 22.5505 6.69204C22.5505 6.69204 22.4826 6.71686 22.5505 6.69204ZM39.1928 2.54262C39.1249 2.41852 39.5366 2.57157 40.025 2.54262C40.5176 2.52193 41.4981 2.48057 41.6892 2.54262C41.6382 2.37715 41.303 2.58812 40.8571 2.54262C40.4112 2.49298 39.6897 2.55503 39.1928 2.54262C39.0655 2.5178 38.675 2.53021 38.3607 2.54262C38.5561 2.55503 38.9508 2.53848 39.1928 2.54262C39.5623 2.61294 39.1886 2.43093 39.1928 2.54262H38.3607L40.025 3.3725L39.1928 2.54262ZM65.8206 14.161C66.7548 14.7484 67.0602 14.4117 67.4848 14.9909C67.2258 14.9081 66.2622 14.7401 65.8206 14.161ZM30.8717 4.20239C32.6 3.57775 29.7464 3.83581 30.8717 3.3725L30.0396 4.20239C30.753 3.83422 30.6254 3.31045 30.8717 3.3725C31.118 3.43455 31.1772 3.5297 31.7038 3.3725C31.7038 3.3725 31.8822 4.14861 31.7038 4.20239C31.5254 4.25203 30.8717 4.20239 30.8717 4.20239C30.6339 4.43404 31.3343 4.23962 31.7038 4.20239C32.0775 4.16929 32.4425 4.09483 32.5359 4.20239C31.7333 4.47127 30.1922 4.45886 30.8717 4.20239ZM67.4848 14.9909C68.1982 15.5452 68.2363 16.3652 68.3169 16.6507C68.2745 16.4976 68.3551 16.7954 68.3169 16.6507C68.3551 16.8078 68.1641 17.2654 68.3169 17.4805C67.7819 17.0131 67.5697 16.9526 67.4848 16.6507C67.3914 16.3569 67.901 15.508 67.4848 14.9909ZM41.6892 4.20239C41.5576 4.1817 41.6892 4.20239 41.6892 4.20239C41.8208 4.21893 42.3472 4.16516 42.5213 4.20239C42.8695 4.27685 43.3534 4.20239 43.3534 4.20239H42.5213C42.1689 4.11965 41.6892 4.20239 41.6892 4.20239Z" fill="#1A7474"/>
<path d="M7.27046 45.0825C6.92093 44.9235 6.6939 44.6753 6.58938 44.3377C6.48487 44.0002 6.57763 43.5284 6.86767 42.9222C7.0852 42.4676 7.57939 41.7961 8.35024 40.9077C9.1533 40.0077 10.1375 38.9791 11.3029 37.8221C12.4902 36.6751 13.7683 35.477 15.1373 34.2281C16.5385 32.9675 17.9564 31.7276 19.3909 30.5085C20.8255 29.2893 22.1921 28.1843 23.4908 27.1934C24.7999 26.1808 25.956 25.3491 26.9591 24.6982C27.9621 24.0473 28.7276 23.6705 29.2555 23.568C29.8697 23.4519 30.3733 23.4833 30.7666 23.6622C30.985 23.7615 31.1931 23.8826 31.3909 24.0252C31.5886 24.1679 31.7381 24.3281 31.8392 24.506C32.1185 24.923 32.2033 25.6074 32.0937 26.5593C32.0163 27.4994 31.8071 28.6037 31.4662 29.8722C31.1356 31.119 30.72 32.4325 30.2192 33.8127C29.7506 35.1812 29.2653 36.529 28.7634 37.856C29.4602 38.0675 30.0375 38.251 30.4951 38.4065C30.9527 38.5619 31.2799 38.6843 31.4765 38.7738C32.2192 39.1116 32.6423 39.4227 32.7457 39.707C32.8491 39.9913 32.8496 40.2683 32.7471 40.538C32.6043 40.9476 32.3294 41.2443 31.9222 41.4281C31.515 41.612 31.0349 41.6704 30.4818 41.6033C30.3081 41.577 29.9442 41.5037 29.3899 41.3834C28.8679 41.2514 28.2371 41.0963 27.4978 40.9182C27.2089 41.5776 26.9297 42.1887 26.6604 42.7516C26.4233 43.3028 26.2115 43.7732 26.0251 44.1629C25.0824 46.133 24.2527 47.5614 23.5359 48.4479C22.8295 49.3129 22.2186 49.839 21.7033 50.0264C21.1881 50.2138 20.7666 50.233 20.4389 50.0839C20.0457 49.905 19.8244 49.6726 19.775 49.3865C19.7361 49.0788 19.8201 48.7085 20.0273 48.2755L21.1305 45.9698C21.5138 45.1688 21.9379 44.2545 22.4029 43.2271C22.9001 42.1879 23.4123 41.0896 23.9395 39.9323C22.547 39.5625 21.1378 39.1719 19.712 38.7606C18.308 38.3592 17.0891 38.0157 16.0554 37.73C14.9843 38.7454 14.0358 39.6715 13.2097 40.5084C12.3941 41.3236 11.7964 41.9612 11.4167 42.4212C10.5711 43.3546 9.88771 44.0323 9.36659 44.4543C8.85583 44.8546 8.43886 45.0868 8.11569 45.1506C7.81436 45.2245 7.53262 45.2018 7.27046 45.0825ZM18.5524 35.3466C19.8127 35.6035 21.008 35.8573 22.1384 36.1078C23.2906 36.3683 24.3398 36.6215 25.2862 36.8675C26.1529 34.8892 26.9236 32.9727 27.5982 31.1179C28.3051 29.2515 28.7542 27.7291 28.9456 26.5508C28.1886 27.0764 27.2413 27.8054 26.1036 28.7378C24.9659 29.6701 23.7332 30.7175 22.4057 31.8798C21.1103 33.0304 19.8259 34.186 18.5524 35.3466ZM42.8674 61.6305C42.1465 61.3025 41.6085 60.926 41.2533 60.5008C40.8981 60.0756 40.6786 59.6726 40.5948 59.2918C40.5329 58.921 40.5433 58.6489 40.6262 58.4757C40.8748 57.9561 41.1768 57.6585 41.5322 57.5829C41.8875 57.5073 42.4803 57.6583 43.3105 58.036C43.7911 58.2546 44.4988 58.4711 45.4337 58.6854C46.4008 58.8881 47.4915 59.0547 48.7058 59.1853C49.9305 59.2942 51.2133 59.3373 52.5542 59.3146C53.8952 59.2919 55.1959 59.1586 56.4564 58.9148C57.7169 58.6709 58.8555 58.2926 59.8723 57.7797C60.9213 57.2552 61.7559 56.5672 62.3761 55.7157C61.8047 55.2977 61.2017 54.9179 60.567 54.5765C59.9646 54.2234 59.3466 53.9027 58.713 53.6145C56.7906 52.7401 54.7369 52.0564 52.5521 51.5634C50.3777 51.0488 48.1555 50.5784 45.8856 50.1522C45.53 50.7286 45.2112 51.2558 44.9293 51.7338C44.6473 52.2119 44.3608 52.7274 44.0696 53.2804C43.3411 54.6361 42.737 55.4817 42.2574 55.8171C41.8099 56.1408 41.4332 56.233 41.1274 56.0939C40.6468 55.8753 40.41 55.4249 40.4172 54.7428C40.4244 54.0607 40.7232 53.1026 41.3136 51.8686C43.1989 47.9284 45.2184 44.7083 47.3722 42.2083C49.526 39.7083 51.7462 38.0425 54.0327 37.2109C56.3192 36.3794 58.5876 36.4753 60.8377 37.4989C62.4325 38.2243 63.4648 39.2079 63.9346 40.4497C64.4264 41.7015 64.2889 43.1284 63.5224 44.7304C62.9941 45.8346 62.2485 46.8925 61.2855 47.9044C60.333 48.8946 59.2413 49.7029 58.0105 50.3293C58.6522 50.4894 59.2673 50.677 59.8561 50.892C60.4551 51.0854 60.995 51.2915 61.4756 51.5101C63.1359 52.2653 64.2953 53.1222 64.9539 54.0808C65.6125 55.0394 65.688 56.0491 65.1804 57.11C64.59 58.344 63.6862 59.3432 62.4692 60.1077C61.2741 60.8821 59.8962 61.4548 58.3355 61.8257C56.7966 62.2065 55.2009 62.456 53.5483 62.5742C51.906 62.6708 50.3484 62.674 48.8752 62.5839C47.4021 62.4937 46.128 62.3491 45.0528 62.15C43.9891 61.9825 43.2607 61.8093 42.8674 61.6305ZM47.5167 47.4936C50.1488 48.1636 52.3021 48.4445 53.9765 48.3362C55.651 48.228 56.9782 47.8168 57.9583 47.1027C58.9488 46.367 59.734 45.3929 60.3141 44.1805C60.5006 43.7908 60.6267 43.3605 60.6924 42.8896C60.7685 42.3969 60.6934 41.9146 60.467 41.4426C60.2406 40.9706 59.7779 40.5756 59.0788 40.2576C57.2875 39.4427 55.4572 39.5987 53.588 40.7256C51.7406 41.8624 49.7169 44.1184 47.5167 47.4936ZM86.7306 74.5441C86.9709 74.6534 87.1536 74.8552 87.2789 75.1494C87.4041 75.4436 87.3631 75.8072 87.156 76.2402C86.9902 76.5866 86.5313 76.8787 85.7791 77.1165C85.0372 77.3327 84.1477 77.4684 83.1103 77.5238C82.0949 77.5891 81.0501 77.5488 79.976 77.403C78.8916 77.2788 77.9344 77.0279 77.1042 76.6502C75.9245 76.1136 74.9554 75.3037 74.1968 74.2206C73.4601 73.1473 73.0385 71.888 72.9322 70.4424C72.8361 68.9752 73.1869 67.4081 73.9845 65.7411C74.6889 64.269 75.6664 62.921 76.9169 61.6973C78.1675 60.4735 79.5669 59.3834 81.1152 58.4269C82.6853 57.4804 84.2962 56.671 85.9478 55.9988C87.6214 55.3365 89.2224 54.8258 90.7509 54.4666C92.2794 54.1074 93.6382 53.9083 94.8273 53.8692C96.0486 53.8185 96.976 53.9372 97.6096 54.2254C98.0465 54.4241 98.3183 54.7455 98.4251 55.1895C98.5641 55.6217 98.5455 56.0219 98.3694 56.3899C98.2658 56.6064 98.0967 56.7931 97.8621 56.95C97.6492 57.1168 97.3698 57.2006 97.0236 57.2013C95.2721 57.2481 93.4056 57.4799 91.424 57.8966C89.4424 58.3133 87.4975 58.9312 85.5893 59.7503C83.6915 60.5478 81.977 61.5737 80.4458 62.828C78.925 64.0606 77.7451 65.5537 76.9061 67.3073C76.181 68.8228 75.9873 70.145 76.3249 71.2739C76.6729 72.3812 77.4695 73.2181 78.7148 73.7845C79.3702 74.0826 80.1044 74.2716 80.9174 74.3515C81.7522 74.4413 82.559 74.4787 83.3375 74.4638C84.1483 74.4371 84.8509 74.4141 85.4455 74.3945C86.0619 74.385 86.4903 74.4348 86.7306 74.5441ZM98.6378 86.4057C98.1572 86.1871 97.76 85.8219 97.4463 85.3102C97.1544 84.8083 97.1742 84.211 97.5056 83.5182C97.775 82.9553 98.1345 82.5653 98.5842 82.3481C99.034 82.1309 99.4808 82.031 99.9247 82.0484C100.379 82.0441 100.748 82.1066 101.032 82.2357C101.316 82.3649 101.602 82.574 101.889 82.8628C102.198 83.1617 102.406 83.5331 102.513 83.9771C102.63 84.3994 102.544 84.9137 102.254 85.5199C101.964 86.126 101.463 86.5047 100.753 86.6559C100.042 86.8071 99.3369 86.7237 98.6378 86.4057ZM110.076 91.6088C109.596 91.3902 109.199 91.025 108.885 90.5132C108.593 90.0114 108.613 89.4141 108.944 88.7213C109.213 88.1584 109.573 87.7683 110.023 87.5511C110.472 87.3339 110.919 87.234 111.363 87.2514C111.817 87.2471 112.187 87.3096 112.471 87.4388C112.755 87.568 113.04 87.777 113.328 88.0659C113.637 88.3647 113.845 88.7361 113.952 89.1801C114.069 89.6025 113.982 90.1167 113.692 90.7229C113.402 91.3291 112.902 91.7078 112.191 91.859C111.48 92.0102 110.775 91.9268 110.076 91.6088ZM121.515 96.8118C121.034 96.5932 120.637 96.228 120.323 95.7163C120.031 95.2144 120.051 94.6171 120.383 93.9243C120.652 93.3614 121.011 92.9714 121.461 92.7542C121.911 92.537 122.358 92.4371 122.802 92.4545C123.256 92.4502 123.625 92.5127 123.909 92.6418C124.193 92.771 124.479 92.9801 124.766 93.2689C125.075 93.5678 125.283 93.9392 125.39 94.3832C125.507 94.8055 125.421 95.3198 125.131 95.926C124.841 96.5321 124.34 96.9108 123.63 97.062C122.919 97.2132 122.214 97.1298 121.515 96.8118Z" fill="#1A7474"/>
</svg>
